<svg xmlns="http://www.w3.org/2000/svg" width="332.869" height="146.49" viewBox="0 0 332.869 146.49">
  <g id="undraw_On_the_way_re_swjt" transform="translate(0 0)">
    <path id="Path_1477" data-name="Path 1477" d="M289.087,454.346c-1.144,8.966-5.352,17.169-9.842,25.072-.148.269-.3.534-.458.8H232.13c-.944-.245-1.875-.514-2.8-.8a51,51,0,0,1-14.732-7.248c-17.165-12.367-23.771-35.736-20.787-56.676,1.855-13.01,7.565-26.292,18.683-33.3a28.051,28.051,0,0,1,20.169-3.533c.177.032.354.072.534.108,5.814,1.309,10.994,4.561,13.941,9.8,5.3,9.416,2.144,21.08-.462,31.56s-4.007,23.024,3.533,30.753a19.237,19.237,0,0,1,22.369-25c.546.116,1.084.249,1.614.41a17.91,17.91,0,0,1,3.682,1.542C286.766,432.8,290.368,444.239,289.087,454.346Z" transform="translate(-190.057 -333.73)" fill="#28a745"/>
    <path id="Path_1478" data-name="Path 1478" d="M300.129,480.221c1.293.3,2.59.566,3.895.8h-7.055c-.924-.249-1.843-.514-2.754-.8q-3.006-.94-5.919-2.156a53.1,53.1,0,0,1-20.394-14.7,41.505,41.505,0,0,1-6.433-10.508,47.726,47.726,0,0,1-3.292-13.447c-.984-9.476.02-19.213,1.9-28.521a119.034,119.034,0,0,1,9.3-27.894q.765-1.6,1.582-3.172a.619.619,0,0,1,.414-.353.714.714,0,0,1,.534.108.846.846,0,0,1,.333,1.116,117.665,117.665,0,0,0-9.87,26.886,103.491,103.491,0,0,0-2.935,27.987c.393,8.745,2.678,17.346,7.862,24.5a49.424,49.424,0,0,0,18.5,15.182,67.905,67.905,0,0,0,14.335,4.979Z" transform="translate(-228.765 -334.534)" fill="#fff"/>
    <path id="Path_1479" data-name="Path 1479" d="M382.706,551.424h-2.08c-.233-.265-.458-.534-.679-.8a44.334,44.334,0,0,1-9.332-19.94,43.259,43.259,0,0,1,3.73-26.922,44.253,44.253,0,0,1,4.031-6.674c.546.116,1.084.249,1.614.41a41.845,41.845,0,0,0,2,53.127C382.22,550.89,382.461,551.159,382.706,551.424Z" transform="translate(-295.859 -404.934)" fill="#fff"/>
    <path id="Path_1480" data-name="Path 1480" d="M868.331,585.416a18.394,18.394,0,0,0,2.6,6.617c.039.071.08.141.121.212h12.314c.249-.065.495-.136.74-.212a13.46,13.46,0,0,0,3.888-1.913c4.53-3.264,6.274-9.431,5.486-14.958-.49-3.433-2-6.939-4.931-8.788a7.4,7.4,0,0,0-5.323-.933l-.141.029a5.493,5.493,0,0,0-3.679,2.587c-1.4,2.485-.566,5.563.122,8.329s1.058,6.076-.932,8.116a5.077,5.077,0,0,0-5.9-6.6c-.144.031-.286.066-.426.108a4.726,4.726,0,0,0-.972.407C868.943,579.729,867.992,582.749,868.331,585.416Z" transform="translate(-594.114 -445.755)" fill="#28a745"/>
    <path id="Path_1481" data-name="Path 1481" d="M885.081,592.248c-.341.079-.684.149-1.028.212h1.862c.244-.066.486-.136.727-.212q.793-.248,1.562-.569a14.012,14.012,0,0,0,5.382-3.881,10.951,10.951,0,0,0,1.7-2.773,12.592,12.592,0,0,0,.869-3.549,25.245,25.245,0,0,0-.5-7.527,31.407,31.407,0,0,0-2.454-7.362q-.2-.421-.417-.837a.163.163,0,0,0-.109-.093.189.189,0,0,0-.141.029.223.223,0,0,0-.088.295,31.049,31.049,0,0,1,2.6,7.1,27.317,27.317,0,0,1,.775,7.386,11.784,11.784,0,0,1-2.075,6.465,13.043,13.043,0,0,1-4.883,4.007A17.927,17.927,0,0,1,885.081,592.248Z" transform="translate(-603.563 -445.97)" fill="#fff"/>
    <path id="Path_1482" data-name="Path 1482" d="M876.437,611.04h.549c.061-.07.121-.141.179-.212a11.7,11.7,0,0,0,2.463-5.263,11.416,11.416,0,0,0-.984-7.105,11.664,11.664,0,0,0-1.064-1.761c-.144.031-.286.066-.426.108a11.044,11.044,0,0,1-.527,14.021C876.565,610.9,876.5,610.97,876.437,611.04Z" transform="translate(-599.004 -464.549)" fill="#fff"/>
    <path id="Path_1483" data-name="Path 1483" d="M533.956,456.948H495.417l-.409-11.849A3.557,3.557,0,0,1,499,441.445l22.427,2.746h0a12.564,12.564,0,0,1,12.53,12.556Z" transform="translate(-370.73 -371.619)" fill="#28a745"/>
    <path id="Path_1484" data-name="Path 1484" d="M505.111,375.414H478.232a2.721,2.721,0,0,0-2.722,2.722v26.879a2.721,2.721,0,0,0,2.722,2.722h26.879a2.721,2.721,0,0,0,2.722-2.722V378.136a2.721,2.721,0,0,0-2.722-2.722Z" transform="translate(-359.062 -332.118)" fill="#ccc"/>
    <path id="Path_1485" data-name="Path 1485" d="M508.651,409.463l-12.691,2.471a2.9,2.9,0,0,1-3.392-2.286l-.976-5.01a2.9,2.9,0,0,1,2.286-3.392l12.691-2.471a2.9,2.9,0,0,1,3.392,2.286l.976,5.01A2.9,2.9,0,0,1,508.651,409.463Z" transform="translate(-368.655 -346.067)" fill="#3f3d56"/>
    <path id="Path_1486" data-name="Path 1486" d="M512.187,408.722l-9.685,1.886a.68.68,0,1,1-.26-1.336l9.685-1.886a.681.681,0,1,1,.26,1.336Z" transform="translate(-374.731 -351.244)" fill="#fff"/>
    <path id="Path_1487" data-name="Path 1487" d="M514.468,415.678l-5.01.976a.68.68,0,1,1-.26-1.336l5.009-.976a.68.68,0,1,1,.26,1.336Z" transform="translate(-378.894 -355.407)" fill="#fff"/>
    <path id="Path_1488" data-name="Path 1488" d="M507.833,378.136v3.573H475.51v-3.573a2.721,2.721,0,0,1,2.722-2.722h26.879A2.721,2.721,0,0,1,507.833,378.136Z" transform="translate(-359.062 -332.118)" fill="#b3b3b3"/>
    <path id="Path_1489" data-name="Path 1489" d="M650.123,370.293a4.314,4.314,0,0,0-6.1-2.556l-36.98-13.268-1.629,9.238,36.862,10.137a4.337,4.337,0,0,0,7.847-3.552Z" transform="translate(-436.806 -319.583)" fill="#ffb8b8"/>
    <path id="Path_1490" data-name="Path 1490" d="M650.123,370.293a4.314,4.314,0,0,0-6.1-2.556l-36.98-13.268-1.629,9.238,36.862,10.137a4.337,4.337,0,0,0,7.847-3.552Z" transform="translate(-436.806 -319.583)" opacity="0.2"/>
    <path id="Path_1491" data-name="Path 1491" d="M598.733,351.145l-3.492,9.123a1.934,1.934,0,0,1-2.755.994L584,356.485a5.371,5.371,0,0,1,3.87-10.022l9.477,2.1a1.934,1.934,0,0,1,1.387,2.579Z" transform="translate(-421.932 -314.575)" fill="#6c63ff"/>
    <path id="Path_1492" data-name="Path 1492" d="M704.26,414.915l-13.251,6.023,1.74,6.549a101.88,101.88,0,0,1,2.626,38.808h0l9.688,2.023,8.031-20.478-2.811-23.289Z" transform="translate(-488.032 -355.757)" fill="#28a745"/>
    <path id="Path_1493" data-name="Path 1493" d="M764.7,490.415c-8.706,0-15.8,6.329-16.145,14.254h32.29C780.5,496.743,773.4,490.415,764.7,490.415Z" transform="translate(-522.469 -400.942)" fill="#3f3d56"/>
    <path id="Path_1494" data-name="Path 1494" d="M574.322,445.281c-.453-35.776-20.828-32.484-20.828-32.484s.381,11.136.564,11.482c12.984,24.565-8.444,53.365-35.72,48.067q-.771-.15-1.482-.3a13.885,13.885,0,0,1-10.907-15.564c2.687-21.577-10.677-21.195-10.677-21.195H475.731l-10.148-9.133a2.95,2.95,0,0,0-4.742,1.173l-1.306,3.544s-19.273,2.008-17.667,20.88h5.959a12.027,12.027,0,0,0,.064,1.606l44.47-.362a4.867,4.867,0,0,1,4.918,4.7,4.719,4.719,0,0,1-4.876,4.736l-7.169-.239c-2.208,9.837,3.212,16.463,9.185,20.629a33.386,33.386,0,0,0,19.12,5.872h19.477c25.3,0,29.713-21.281,29.713-21.281C575.979,461.783,574.322,445.281,574.322,445.281Z" transform="translate(-338.871 -354.442)" fill="#3f3d56"/>
    <circle id="Ellipse_334" data-name="Ellipse 334" cx="22.586" cy="22.586" r="22.586" transform="translate(218.437 100.716)" fill="#3f3d56"/>
    <circle id="Ellipse_335" data-name="Ellipse 335" cx="5.536" cy="5.536" r="5.536" transform="translate(235.487 117.766)" fill="#fff"/>
    <circle id="Ellipse_336" data-name="Ellipse 336" cx="25.999" cy="25.999" r="25.999" transform="translate(100.989 93.89)" fill="#3f3d56"/>
    <circle id="Ellipse_337" data-name="Ellipse 337" cx="6.372" cy="6.372" r="6.372" transform="translate(120.616 113.516)" fill="#fff"/>
    <path id="Path_1495" data-name="Path 1495" d="M683.493,396.178l-4.768-12.949a5.476,5.476,0,0,1,3.247-7.031l13.668-5.032a9.636,9.636,0,1,1,6.659,18.084Z" transform="translate(-480.477 -329.219)" fill="#3f3d56"/>
    <path id="Path_1496" data-name="Path 1496" d="M734.513,380.512a9.456,9.456,0,0,1-3.534,7.364,12.041,12.041,0,0,1-7.91-16.583,9.438,9.438,0,0,1,11.444,9.219Z" transform="translate(-506.585 -329.522)" fill="#28a745"/>
    <ellipse id="Ellipse_338" data-name="Ellipse 338" cx="5.621" cy="6.826" rx="5.621" ry="6.826" transform="translate(100.788 86.26)" fill="#28a745"/>
    <path id="Path_1497" data-name="Path 1497" d="M450.07,272.976h4.923l2.342-12.768h-7.266Z" transform="translate(-269.352 -155.726)" fill="#ffb8b8"/>
    <path id="Path_1498" data-name="Path 1498" d="M632.444,555.587h9.695a6.178,6.178,0,0,1,6.178,6.178v.2H632.444Z" transform="translate(-452.982 -439.946)" fill="#2f2e41"/>
    <path id="Path_1499" data-name="Path 1499" d="M600.228,477.254q-.086,0-.173-.008l-6.813-.5a1.807,1.807,0,0,1-1.53-2.421l9.117-20.484a1.4,1.4,0,0,0-.079-1.124,1.386,1.386,0,0,0-.888-.707c-4.287-1.121-15.287-4.1-24.809-7.6-4.079-1.5-6.649-3.658-7.637-6.425a9.069,9.069,0,0,1,.707-7.116l.065-.109,8.96.814,9.714.826,21.286,11.415a8.065,8.065,0,0,1,3.541,10.353l-9.814,22.007A1.806,1.806,0,0,1,600.228,477.254Z" transform="translate(-413.796 -365.245)" fill="#2f2e41"/>
    <circle id="Ellipse_339" data-name="Ellipse 339" cx="9.862" cy="9.862" r="9.862" transform="translate(155.049 6.087)" fill="#ffb8b8"/>
    <path id="Path_1500" data-name="Path 1500" d="M443.07,275.975h4.923l2.342-12.768h-7.266Z" transform="translate(-265.163 -157.522)" fill="#ffb8b8"/>
    <path id="Path_1501" data-name="Path 1501" d="M625.444,558.587h9.695a6.178,6.178,0,0,1,6.178,6.178v.2H625.444Z" transform="translate(-448.793 -441.741)" fill="#2f2e41"/>
    <path id="Path_1502" data-name="Path 1502" d="M593.228,480.254q-.086,0-.173-.008l-6.813-.5a1.807,1.807,0,0,1-1.529-2.421l9.117-20.484a1.4,1.4,0,0,0-.079-1.124,1.386,1.386,0,0,0-.888-.707c-4.287-1.121-15.287-4.1-24.809-7.6-4.079-1.5-6.649-3.658-7.637-6.425a9.068,9.068,0,0,1,.707-7.116l.065-.109,8.96.814,9.713.826,21.287,11.415a8.065,8.065,0,0,1,3.541,10.353l-9.814,22.007A1.806,1.806,0,0,1,593.228,480.254Z" transform="translate(-409.607 -367.04)" fill="#2f2e41"/>
    <path id="Path_1503" data-name="Path 1503" d="M579.542,340.408l-10.44-3.614s-6.554,5.035-3.405,17.526a30.923,30.923,0,0,1-1.365,19.4,19.97,19.97,0,0,1-1.052,2.221s11.644,14.054,22.486,3.614L581.55,359.28S588.175,345.828,579.542,340.408Z" transform="translate(-411.59 -309.005)" fill="#28a745"/>
    <path id="Path_1504" data-name="Path 1504" d="M575.748,293.732c-1.4-2.1-2.511-5.014-.966-7.013,1.525-1.973,4.534-1.683,6.87-2.556a7.778,7.778,0,0,0,4.553-8.462,10.04,10.04,0,0,0-6.611-7.423,14.313,14.313,0,0,0-10.172.554,15.533,15.533,0,0,0-8.752,8.864,11.942,11.942,0,0,0,2.284,11.977c3.158,3.324,8.113,4.21,12.7,4.156" transform="translate(-409.613 -267.585)" fill="#2f2e41"/>
    <path id="Path_1505" data-name="Path 1505" d="M508.421,280.059c-1.769,1.44-4.467.8-6.366-.463s-3.439-3.063-5.493-4.054c-3.622-1.747-8-.586-11.525,1.349s-6.649,4.608-10.372,6.126-8.474,1.593-11.293-1.273a10.332,10.332,0,0,0,15.142,12.2c4.079-2.485,6.333-7.695,10.908-9.066,2.532-.759,5.25-.148,7.809.514s5.227,1.377,7.809.814,5-2.884,4.669-5.507Z" transform="translate(-351.459 -271.834)" fill="#2f2e41"/>
    <path id="Path_1506" data-name="Path 1506" d="M648.2,377.4a4.313,4.313,0,0,0-6.369-1.783l-38.334-8.6-.477,9.368,37.831,5.511A4.337,4.337,0,0,0,648.2,377.4Z" transform="translate(-435.373 -327.087)" fill="#ffb8b8"/>
    <path id="Path_1507" data-name="Path 1507" d="M594.068,363.984l-2.34,9.484a1.934,1.934,0,0,1-2.611,1.326l-9.011-3.693a5.371,5.371,0,1,1,2.6-10.423l9.664.917a1.934,1.934,0,0,1,1.695,2.389Z" transform="translate(-419.223 -323.203)" fill="#28a745"/>
    <circle id="Ellipse_340" data-name="Ellipse 340" cx="2.811" cy="2.811" r="2.811" transform="translate(205.588 52.13)" fill="#28a745"/>
    <path id="Path_1508" data-name="Path 1508" d="M518.369,630.816a.4.4,0,0,1-.4.4H185.9a.4.4,0,1,1,0-.8H517.968A.4.4,0,0,1,518.369,630.816Z" transform="translate(-185.5 -484.728)" fill="#3f3d56"/>
  </g>
</svg>
