<svg id="Group_25" data-name="Group 25" xmlns="http://www.w3.org/2000/svg" width="20.038" height="21.058" viewBox="0 0 20.038 21.058">
  <g id="Group_26" data-name="Group 26">
    <path id="Path_224" data-name="Path 224" d="M22.211,3.786H20.682V3.3a.8.8,0,1,0-1.6,0v.51H15.539V3.3a.8.8,0,1,0-1.6,0v.51H10.374V3.3a.8.8,0,1,0-1.6,0v.51H7.249A2.564,2.564,0,0,0,4.7,6.357V21.009a2.564,2.564,0,0,0,2.549,2.549h14.94a2.564,2.564,0,0,0,2.549-2.549V6.335A2.517,2.517,0,0,0,22.211,3.786Zm-14.94,1.6H8.8v.51a.8.8,0,0,0,1.6,0v-.51h3.569v.51a.8.8,0,1,0,1.6,0v-.51H19.13v.51a.8.8,0,1,0,1.6,0v-.51h1.529a.984.984,0,0,1,.975.975V7.864H6.3V6.357A.97.97,0,0,1,7.271,5.382Zm14.94,16.6H7.271a.984.984,0,0,1-.975-.975V9.438H23.164V21.009A.951.951,0,0,1,22.211,21.984Z" transform="translate(-4.7 -2.5)" fill="#28a745"/>
    <path id="Path_225" data-name="Path 225" d="M22.971,41H21.043a.643.643,0,0,0-.643.643v.687a.643.643,0,0,0,.643.643h1.928a.643.643,0,0,0,.643-.643v-.687A.643.643,0,0,0,22.971,41Z" transform="translate(-16.92 -32.466)" fill="#28a745"/>
    <path id="Path_226" data-name="Path 226" d="M67.649,41H65.743a.643.643,0,0,0-.643.643v.687a.643.643,0,0,0,.643.643h1.928a.643.643,0,0,0,.643-.643v-.687A.648.648,0,0,0,67.649,41Z" transform="translate(-51.712 -32.466)" fill="#28a745"/>
    <path id="Path_227" data-name="Path 227" d="M45.271,41H43.343a.643.643,0,0,0-.643.643v.687a.643.643,0,0,0,.643.643h1.928a.643.643,0,0,0,.643-.643v-.687A.643.643,0,0,0,45.271,41Z" transform="translate(-34.277 -32.466)" fill="#28a745"/>
    <path id="Path_228" data-name="Path 228" d="M22.971,57.8H21.043a.643.643,0,0,0-.643.643v.687a.643.643,0,0,0,.643.643h1.928a.643.643,0,0,0,.643-.643v-.687A.643.643,0,0,0,22.971,57.8Z" transform="translate(-16.92 -45.542)" fill="#28a745"/>
    <path id="Path_229" data-name="Path 229" d="M67.649,57.8H65.743a.643.643,0,0,0-.643.643v.687a.643.643,0,0,0,.643.643h1.928a.643.643,0,0,0,.643-.643v-.687A.648.648,0,0,0,67.649,57.8Z" transform="translate(-51.712 -45.542)" fill="#28a745"/>
    <path id="Path_230" data-name="Path 230" d="M45.271,57.8H43.343a.643.643,0,0,0-.643.643v.687a.643.643,0,0,0,.643.643h1.928a.643.643,0,0,0,.643-.643v-.687A.643.643,0,0,0,45.271,57.8Z" transform="translate(-34.277 -45.542)" fill="#28a745"/>
    <path id="Path_231" data-name="Path 231" d="M22.971,74.7H21.043a.643.643,0,0,0-.643.643v.687a.643.643,0,0,0,.643.643h1.928a.643.643,0,0,0,.643-.643v-.687A.643.643,0,0,0,22.971,74.7Z" transform="translate(-16.92 -58.696)" fill="#28a745"/>
    <path id="Path_232" data-name="Path 232" d="M67.649,74.7H65.743a.643.643,0,0,0-.643.643v.687a.643.643,0,0,0,.643.643h1.928a.643.643,0,0,0,.643-.643v-.687A.648.648,0,0,0,67.649,74.7Z" transform="translate(-51.712 -58.696)" fill="#28a745"/>
    <path id="Path_233" data-name="Path 233" d="M45.271,74.7H43.343a.643.643,0,0,0-.643.643v.687a.643.643,0,0,0,.643.643h1.928a.643.643,0,0,0,.643-.643v-.687A.643.643,0,0,0,45.271,74.7Z" transform="translate(-34.277 -58.696)" fill="#28a745"/>
  </g>
</svg>
