<svg xmlns="http://www.w3.org/2000/svg" width="15.6" height="18" viewBox="0 0 15.6 18">
  <g id="Group_117" data-name="Group 117" transform="translate(-6 -2)">
    <path id="Path_416" data-name="Path 416" d="M19.8,2H11.4a.6.6,0,0,0-.112.011h-.007a.6.6,0,0,0-.143.051l-.036.019a.6.6,0,0,0-.127.094l-4.8,4.8a.6.6,0,0,0-.094.127c-.007.012-.013.023-.019.035a.6.6,0,0,0-.052.145h0A.6.6,0,0,0,6,7.4V18.2A1.8,1.8,0,0,0,7.8,20h12a1.8,1.8,0,0,0,1.8-1.8V3.8A1.8,1.8,0,0,0,19.8,2Zm-9,2.049V6.2a.6.6,0,0,1-.6.6H8.049ZM20.4,18.2a.6.6,0,0,1-.6.6H7.8a.6.6,0,0,1-.6-.6V8h3A1.8,1.8,0,0,0,12,6.2v-3h7.8a.6.6,0,0,1,.6.6Z" transform="translate(0 0)" fill="#28a745"/>
    <path id="Path_417" data-name="Path 417" d="M30.4,32H25.6a.6.6,0,0,0,0,1.2h4.8a.6.6,0,0,0,0-1.2Z" transform="translate(-13.3 -21)" fill="#28a745"/>
    <path id="Path_418" data-name="Path 418" d="M26.2,44H19.6a.6.6,0,1,0,0,1.2h6.6a.6.6,0,0,0,0-1.2Z" transform="translate(-9.1 -29.4)" fill="#28a745"/>
  </g>
</svg>
