<svg xmlns="http://www.w3.org/2000/svg" width="34.571" height="32.143" viewBox="0 0 34.571 32.143">
  <g id="Group_2821" data-name="Group 2821" transform="translate(-0.001 -0.922)">
    <g id="Group_2820" data-name="Group 2820" transform="translate(0.001 0.922)">
      <path id="Path_1908" data-name="Path 1908" d="M34.515,10.507C34.01,4.952,30.079.923,25.159.923a9.3,9.3,0,0,0-7.968,4.591A8.962,8.962,0,0,0,9.414.922C4.495.922.564,4.951.059,10.506a9.879,9.879,0,0,0,.294,3.641A15.62,15.62,0,0,0,5.14,22.134l12.044,10.93L29.435,22.136a15.628,15.628,0,0,0,4.786-7.988,9.879,9.879,0,0,0,.294-3.641" transform="translate(-0.001 -0.922)" fill="#28a745" fill-rule="evenodd"/>
    </g>
  </g>
</svg>
