<svg xmlns="http://www.w3.org/2000/svg" width="334.237" height="303.13" viewBox="0 0 334.237 303.13">
  <g id="undraw_package_arrived_63rf" transform="translate(0.001 0)">
    <path id="Path_1509" data-name="Path 1509" d="M365.367,285.856h0a46.367,46.367,0,0,1,46.367,46.367V443.315H319V332.223a46.367,46.367,0,0,1,46.367-46.367Z" transform="translate(-198.257 -177.658)" fill="#28a745"/>
    <rect id="Rectangle_1632" data-name="Rectangle 1632" width="8.327" height="27.631" transform="translate(142.696 163.944)" fill="#fff"/>
    <rect id="Rectangle_1633" data-name="Rectangle 1633" width="27.631" height="24.981" transform="translate(153.294 193.846)" fill="#fff"/>
    <rect id="Rectangle_1634" data-name="Rectangle 1634" width="27.631" height="27.631" transform="translate(153.294 163.944)" fill="#fff"/>
    <path id="Path_1510" data-name="Path 1510" d="M642.5,445.633h8.327v-.568a24.349,24.349,0,0,0-8.327-18.356Z" transform="translate(-459.303 -283.96)" fill="#fff"/>
    <path id="Path_1511" data-name="Path 1511" d="M563.5,435.687h27.631V414.993a24.3,24.3,0,0,0-13.816-4.287h0a24.3,24.3,0,0,0-13.815,4.287Z" transform="translate(-410.205 -274.014)" fill="#fff"/>
    <path id="Path_1512" data-name="Path 1512" d="M543.827,561.706H535.5v18.925a6.056,6.056,0,0,0,6.056,6.056h2.271Z" transform="translate(-392.804 -367.86)" fill="#fff"/>
    <path id="Path_1513" data-name="Path 1513" d="M642.5,561.706v24.981h2.271a6.056,6.056,0,0,0,6.056-6.056V561.706Z" transform="translate(-459.303 -367.86)" fill="#fff"/>
    <path id="Path_1514" data-name="Path 1514" d="M543.827,445.633V426.709a24.349,24.349,0,0,0-8.327,18.356v.568Z" transform="translate(-392.804 -283.96)" fill="#fff"/>
    <rect id="Rectangle_1635" data-name="Rectangle 1635" width="8.327" height="27.631" transform="translate(183.197 163.944)" fill="#fff"/>
    <circle id="Ellipse_341" data-name="Ellipse 341" cx="4.921" cy="4.921" r="4.921" transform="translate(201.933 190.818)" fill="#3f3d56"/>
    <rect id="Rectangle_1636" data-name="Rectangle 1636" width="6.536" height="21.687" transform="translate(45.189 148.514)" fill="#28a745"/>
    <rect id="Rectangle_1637" data-name="Rectangle 1637" width="21.687" height="21.687" transform="translate(53.507 148.514)" fill="#28a745"/>
    <rect id="Rectangle_1638" data-name="Rectangle 1638" width="6.536" height="21.687" transform="translate(76.977 148.514)" fill="#28a745"/>
    <path id="Path_1515" data-name="Path 1515" d="M361.872,412.842h6.536V412.4a19.111,19.111,0,0,0-6.536-14.407Z" transform="translate(-284.895 -266.111)" fill="#28a745"/>
    <rect id="Rectangle_1639" data-name="Rectangle 1639" width="21.687" height="19.607" transform="translate(53.507 171.983)" fill="#28a745"/>
    <path id="Path_1516" data-name="Path 1516" d="M284.426,503.945H277.89V518.8a4.753,4.753,0,0,0,4.753,4.753h1.783Z" transform="translate(-232.701 -331.962)" fill="#28a745"/>
    <path id="Path_1517" data-name="Path 1517" d="M361.872,503.945v19.607h1.783a4.753,4.753,0,0,0,4.753-4.753V503.945Z" transform="translate(-284.895 -331.962)" fill="#28a745"/>
    <path id="Path_1518" data-name="Path 1518" d="M284.426,412.842V397.989A19.111,19.111,0,0,0,277.89,412.4v.446Z" transform="translate(-232.701 -266.111)" fill="#28a745"/>
    <path id="Path_1519" data-name="Path 1519" d="M299.866,405.036h21.687V388.793a19.069,19.069,0,0,0-10.843-3.365h0a19.07,19.07,0,0,0-10.843,3.365Z" transform="translate(-246.359 -258.304)" fill="#28a745"/>
    <path id="Path_1520" data-name="Path 1520" d="M308.765,551.763H253.508a1.338,1.338,0,0,1-1.337-1.337v-3.565a1.338,1.338,0,0,1,1.337-1.337h55.257a1.338,1.338,0,0,1,1.337,1.337v3.565A1.338,1.338,0,0,1,308.765,551.763Z" transform="translate(-216.717 -357.803)" fill="#28a745"/>
    <rect id="Rectangle_1640" data-name="Rectangle 1640" width="6.536" height="21.687" transform="translate(250.718 148.514)" fill="#28a745"/>
    <rect id="Rectangle_1641" data-name="Rectangle 1641" width="21.687" height="21.687" transform="translate(259.037 148.514)" fill="#28a745"/>
    <rect id="Rectangle_1642" data-name="Rectangle 1642" width="6.536" height="21.687" transform="translate(282.506 148.514)" fill="#28a745"/>
    <path id="Path_1521" data-name="Path 1521" d="M904.872,412.842h6.536V412.4a19.111,19.111,0,0,0-6.536-14.407Z" transform="translate(-622.366 -266.111)" fill="#28a745"/>
    <rect id="Rectangle_1643" data-name="Rectangle 1643" width="21.687" height="19.607" transform="translate(259.037 171.983)" fill="#28a745"/>
    <path id="Path_1522" data-name="Path 1522" d="M827.426,503.945H820.89V518.8a4.753,4.753,0,0,0,4.753,4.753h1.783Z" transform="translate(-570.171 -331.962)" fill="#28a745"/>
    <path id="Path_1523" data-name="Path 1523" d="M904.872,503.945v19.607h1.783a4.753,4.753,0,0,0,4.753-4.753V503.945Z" transform="translate(-622.366 -331.962)" fill="#28a745"/>
    <path id="Path_1524" data-name="Path 1524" d="M827.426,412.842V397.989A19.111,19.111,0,0,0,820.89,412.4v.446Z" transform="translate(-570.171 -266.111)" fill="#28a745"/>
    <path id="Path_1525" data-name="Path 1525" d="M842.866,405.036h21.687V388.793a19.069,19.069,0,0,0-10.843-3.365h0a19.07,19.07,0,0,0-10.844,3.365Z" transform="translate(-583.83 -258.304)" fill="#28a745"/>
    <path id="Path_1526" data-name="Path 1526" d="M851.765,551.763H796.508a1.338,1.338,0,0,1-1.337-1.337v-3.565a1.338,1.338,0,0,1,1.337-1.337h55.257a1.338,1.338,0,0,1,1.337,1.337v3.565A1.338,1.338,0,0,1,851.765,551.763Z" transform="translate(-554.188 -357.803)" fill="#28a745"/>
    <path id="Path_1527" data-name="Path 1527" d="M485.212,398.8H191.491A12.5,12.5,0,0,1,179,386.308V195.919a12.5,12.5,0,0,1,12.491-12.491H485.212A12.5,12.5,0,0,1,497.7,195.919V386.308A12.505,12.505,0,0,1,485.212,398.8ZM191.491,184.185a11.747,11.747,0,0,0-11.734,11.734V386.308a11.747,11.747,0,0,0,11.734,11.734H485.212a11.747,11.747,0,0,0,11.734-11.734V195.919a11.747,11.747,0,0,0-11.734-11.734Z" transform="translate(-171.241 -132.763)" fill="#ccc"/>
    <path id="Path_1528" data-name="Path 1528" d="M171.008,125.132a12.519,12.519,0,0,1-2-24.874L322.509,49.821a18.609,18.609,0,0,1,6.025-.007l153.709,50.452a12.516,12.516,0,1,1-4.05,24.7c-1.656-.237-151.222-21.592-152.586-21.649-1.359.056-151.07,21.433-152.582,21.649a12.544,12.544,0,0,1-2.016.163Z" transform="translate(-158.5 -49.572)" fill="#28a745"/>
    <path id="Path_1529" data-name="Path 1529" d="M763.411,648.318A3.549,3.549,0,0,0,762.237,643l.7-8.08-4.806-1.624-.831,11.425a3.569,3.569,0,0,0,6.109,3.594Z" transform="translate(-530.465 -412.354)" fill="#ffb8b8"/>
    <path id="Path_1530" data-name="Path 1530" d="M668.32,761.974h-4.327l-2.058-16.691h6.387Z" transform="translate(-411.389 -463.188)" fill="#ffb8b8"/>
    <path id="Path_1531" data-name="Path 1531" d="M650.578,786.112h8.345v5.254h-13.6A5.254,5.254,0,0,1,650.578,786.112Z" transform="translate(-401.065 -488.563)" fill="#2f2e41"/>
    <path id="Path_1532" data-name="Path 1532" d="M636.13,733.507l-4.2,1.033-5.983-15.717,6.2-1.524Z" transform="translate(-389.021 -445.796)" fill="#ffb8b8"/>
    <path id="Path_1533" data-name="Path 1533" d="M5.254,0H13.6V5.254H0A5.254,5.254,0,0,1,5.254,0Z" transform="matrix(0.971, -0.239, 0.239, 0.971, 234.506, 289.534)" fill="#2f2e41"/>
    <path id="Path_1534" data-name="Path 1534" d="M788.929,725.1a1.593,1.593,0,0,1-1.588-1.43l-4.979-46.387-4.333,14.185,6.137,22.155a1.6,1.6,0,0,1-.948,1.914l-4.879,1.951a1.6,1.6,0,0,1-2.107-.959l-7.521-21.578a19.536,19.536,0,0,1-1.073-7.341l1.05-23.287,27.647,1.171L795.9,723.1a1.61,1.61,0,0,1-1.481,1.585l-5.369.4C789.011,725.1,788.97,725.1,788.929,725.1Z" transform="translate(-537.063 -431.633)" fill="#2f2e41"/>
    <circle id="Ellipse_342" data-name="Ellipse 342" cx="9.297" cy="9.297" r="9.297" transform="translate(237.991 162.558)" fill="#ffb8b8"/>
    <path id="Path_1535" data-name="Path 1535" d="M790.135,587.044c-2.448,0-5.49-.2-8.636-.407a109.161,109.161,0,0,0-12.065-.383,2.637,2.637,0,0,1-2.359-1.027c-3.421-4.381,1.856-21.464,2.082-22.189l4.295-19.1.185.042-.185-.042a10.264,10.264,0,0,1,7.878-8.088,9.207,9.207,0,0,1,9.481,3.927q.181.254.362.522c7.4,10.96,3.215,38.19,2.934,39.947.391.468,2.5,3.116,1.924,4.955a2.4,2.4,0,0,1-1.908,1.515A17.787,17.787,0,0,1,790.135,587.044Z" transform="translate(-536.011 -351.672)" fill="#ccc"/>
    <path id="Path_1536" data-name="Path 1536" d="M767.529,588.08a9.9,9.9,0,0,1-3.51-.948c-.658-.274-2.661-1.107-.23-22.359,1.195-10.439,2.906-20.805,2.923-20.909l.016-.1.092-.042c.044-.02,4.414-2.023,5.174-4.6q.04-.134.089-.259a2.363,2.363,0,0,1,2.935-1.442,2.483,2.483,0,0,1,1.871,2.834,17.425,17.425,0,0,1-1.51,4.842c-2.057,4.243-3.45,15.491-3.463,15.6-.079.961-1.945,23.722-2.3,25.449a2.312,2.312,0,0,1-1.035,1.7A2.212,2.212,0,0,1,767.529,588.08Z" transform="translate(-533.956 -352.699)" fill="#2f2e41"/>
    <path id="Path_1537" data-name="Path 1537" d="M800.24,588.052a.765.765,0,0,1-.469-.161c-2.735-2.079,1.691-27.272,4.317-35.964.526-1.74.994-3.231,1.391-4.431h0a33.786,33.786,0,0,0,1.51-6.626c.144-1.221.459-1.918.96-2.132a1.22,1.22,0,0,1,1.219.3A14.431,14.431,0,0,1,816.134,541l1.965.981,2.205,39.043c-.062,2.492-4.974,4.251-7.117,4.363-3.44.18-9.617.74-12.339,2.464a1.136,1.136,0,0,1-.607.2Z" transform="translate(-556.512 -353.544)" fill="#2f2e41"/>
    <path id="Path_1538" data-name="Path 1538" d="M760.025,589.2c-.032,0-.065,0-.1,0l-4.454-.274a1.6,1.6,0,0,1-1.485-1.837L756,573.73,759.8,555a3.361,3.361,0,0,1,4.3-2.54h0a3.379,3.379,0,0,1,2.312,3.739L763.4,574.968l-1.784,12.849A1.609,1.609,0,0,1,760.025,589.2Z" transform="translate(-528.581 -362.015)" fill="#2f2e41"/>
    <path id="Path_1539" data-name="Path 1539" d="M792.3,492.236a9.919,9.919,0,1,0-1.859-19.616,11.4,11.4,0,0,0-6.8-1.864,6.669,6.669,0,0,0-5.629,3.846,4.762,4.762,0,0,0,2.281,6.048,8.6,8.6,0,0,0,4.539.065,6.769,6.769,0,0,1,4.488.4c1.319.782,1.912,2.879.731,3.856a4.064,4.064,0,0,0-1.167,4.474A4.446,4.446,0,0,0,792.3,492.236Z" transform="translate(-543.318 -311.314)" fill="#2f2e41"/>
    <path id="Path_1540" data-name="Path 1540" d="M746.864,529.751a9.139,9.139,0,1,0,0,18.279h0a9.139,9.139,0,1,0,0-18.279Z" transform="translate(-518.485 -348)" fill="#28a745"/>
    <path id="Path_395" data-name="Path 395" d="M753.619,550.569a1.11,1.11,0,0,1-.667-.222l-.012-.009-2.513-1.923a1.117,1.117,0,1,1,1.359-1.773l1.628,1.248,3.847-5.019a1.116,1.116,0,0,1,1.565-.207h0l-.024.033.025-.033a1.118,1.118,0,0,1,.207,1.566l-4.525,5.9a1.117,1.117,0,0,1-.888.436Z" transform="translate(-526.107 -355.883)" fill="#fff"/>
    <path id="Path_1541" data-name="Path 1541" d="M754.732,596.706H722.656a3.247,3.247,0,0,0-3.248,3.248V632.03a3.247,3.247,0,0,0,3.248,3.248h32.076a3.247,3.247,0,0,0,3.248-3.248V599.954a3.247,3.247,0,0,0-3.248-3.248Z" transform="translate(-507.101 -389.612)" fill="#28a745"/>
    <path id="Path_1542" data-name="Path 1542" d="M760.12,639.029l-15.145,2.949a3.455,3.455,0,0,1-4.047-2.728l-1.164-5.978a3.455,3.455,0,0,1,2.728-4.047l15.145-2.949A3.455,3.455,0,0,1,761.683,629l1.164,5.978A3.455,3.455,0,0,1,760.12,639.029Z" transform="translate(-519.712 -407.95)" fill="#fff"/>
    <path id="Path_1543" data-name="Path 1543" d="M765.077,638.773l-11.558,2.251a.812.812,0,0,1-.31-1.594l11.558-2.251a.812.812,0,1,1,.31,1.594Z" transform="translate(-527.7 -414.756)" fill="#6c63ff"/>
    <path id="Path_1544" data-name="Path 1544" d="M768.3,647.579l-5.978,1.164a.812.812,0,1,1-.31-1.594l5.978-1.164a.812.812,0,0,1,.31,1.594Z" transform="translate(-533.172 -420.229)" fill="#6c63ff"/>
    <path id="Path_1545" data-name="Path 1545" d="M757.98,599.954v4.263H719.407v-4.263a3.247,3.247,0,0,1,3.248-3.248h32.076a3.247,3.247,0,0,1,3.248,3.248Z" transform="translate(-507.101 -389.612)" fill="#3f3d56"/>
    <path id="Path_1546" data-name="Path 1546" d="M809.281,604.071a3.549,3.549,0,0,1,5.384-.792l7.3-3.528,3.226,3.915L814.811,608.5a3.569,3.569,0,0,1-5.53-4.432Z" transform="translate(-562.621 -391.505)" fill="#ffb8b8"/>
    <path id="Path_1547" data-name="Path 1547" d="M832.6,574.657a1.6,1.6,0,0,1-1.557-1.227l-1.061-4.41a1.6,1.6,0,0,1,.734-1.749l6.4-3.829-3.27-11.974a4.1,4.1,0,0,1,.143-2.574h0a4.07,4.07,0,0,1,7.651.235l3.61,11.024a6.653,6.653,0,0,1-2.43,7.484l-9.28,6.714A1.6,1.6,0,0,1,832.6,574.657Z" transform="translate(-575.792 -358.302)" fill="#2f2e41"/>
    <path id="Path_1548" data-name="Path 1548" d="M800.888,849.185H762.28a.378.378,0,0,1,0-.757h38.608a.378.378,0,0,1,0,.757Z" transform="translate(-533.511 -546.055)" fill="#ccc"/>
  </g>
</svg>
