<svg xmlns="http://www.w3.org/2000/svg" width="22.95" height="22.95" viewBox="0 0 22.95 22.95">
  <g id="noun_Info_1174604" transform="translate(-0.4 -0.4)">
    <g id="Group_76" data-name="Group 76" transform="translate(1 1)">
      <g id="Group_75" data-name="Group 75">
        <g id="Group_74" data-name="Group 74">
          <g id="Group_73" data-name="Group 73">
            <g id="Group_72" data-name="Group 72">
              <circle id="Ellipse_68" data-name="Ellipse 68" cx="10.875" cy="10.875" r="10.875" fill="none" stroke="#28a745" stroke-width="1.2"/>
              <path id="Path_413" data-name="Path 413" d="M20.149,20.1l-.233.647q-1.049.28-1.673.428a6.369,6.369,0,0,1-1.451.147,3.871,3.871,0,0,1-1.975-.42,1.23,1.23,0,0,1-.7-1.067,2.592,2.592,0,0,1,.053-.514,4.474,4.474,0,0,1,.169-.593l.869-2.1q.117-.3.2-.571a1.754,1.754,0,0,0,.079-.492.617.617,0,0,0-.244-.56,1.88,1.88,0,0,0-.932-.158,3.491,3.491,0,0,0-.694.072q-.355.072-.609.137l.233-.647q.858-.237,1.642-.406a7.051,7.051,0,0,1,1.483-.169,3.779,3.779,0,0,1,1.944.413,1.227,1.227,0,0,1,.683,1.074,4.145,4.145,0,0,1-.048.481,2.352,2.352,0,0,1-.175.632l-.869,2.091a4.286,4.286,0,0,0-.191.575,2.121,2.121,0,0,0-.085.489.588.588,0,0,0,.275.568,2.143,2.143,0,0,0,.953.151,3.953,3.953,0,0,0,.72-.075A5.4,5.4,0,0,0,20.149,20.1Zm.222-8.774a1.1,1.1,0,0,1-.609.931,3,3,0,0,1-2.939,0,1.1,1.1,0,0,1-.614-.931,1.109,1.109,0,0,1,.614-.934,2.977,2.977,0,0,1,2.939,0A1.11,1.11,0,0,1,20.372,11.322Z" transform="translate(-6.089 -4.577)" fill="#28a745" fill-rule="evenodd"/>
            </g>
          </g>
        </g>
      </g>
    </g>
  </g>
</svg>
