<svg xmlns="http://www.w3.org/2000/svg" width="33" height="33" viewBox="0 0 33 33">
  <g id="Group_2819" data-name="Group 2819" transform="translate(-6 -958.362)">
    <path id="Path_1907" data-name="Path 1907" d="M22.465,958.362A1.17,1.17,0,0,0,21.35,959.5v10.813l-1.513,1.663c.1-2.506.247-5.014.387-7.532a1.178,1.178,0,0,0-1.4-1.16c-4.987,1.245-8.662,5.6-10.769,10.789a26.69,26.69,0,0,0-1.3,16.459,1.159,1.159,0,0,0,1.079.832A23.047,23.047,0,0,0,14.3,989.3c2.061-1.008,5.355-2.4,5.549-4.744-.169-3.034-.175-6.075-.106-9.126l2.733-3.01,2.792,3.057c.068,3.035.051,6.06-.117,9.079.481,2.641,3.558,3.856,5.549,4.744,2.128.733,4.329,2.037,6.464,2.062a1.16,1.16,0,0,0,1.079-.832,26.691,26.691,0,0,0-1.3-16.459c-2.107-5.187-5.782-9.544-10.769-10.789a1.277,1.277,0,0,0-1.4,1.16c.141,2.538.286,5.065.387,7.591l-1.56-1.722V959.5a1.17,1.17,0,0,0-1.138-1.136Z" transform="translate(0 0)" fill="#28a745"/>
  </g>
</svg>
