<svg xmlns="http://www.w3.org/2000/svg" width="21" height="19.022" viewBox="0 0 21 19.022">
  <path id="Path_421" data-name="Path 421" d="M26.253,28.16a.706.706,0,0,0-.706.706v4.371a.707.707,0,0,1-.706.706H14.953a.707.707,0,0,1-.706-.706V18.453a.707.707,0,0,1,.706-.706h9.888a.707.707,0,0,1,.706.706v4.371a.706.706,0,0,0,1.413,0V18.453a2.121,2.121,0,0,0-2.119-2.119H14.953a2.121,2.121,0,0,0-2.119,2.119V33.237a2.121,2.121,0,0,0,2.119,2.119h9.888a2.121,2.121,0,0,0,2.119-2.119V28.867A.706.706,0,0,0,26.253,28.16Zm7.58-2.321a.727.727,0,0,0-.013-.132c-.005-.024-.014-.046-.02-.069s-.011-.042-.019-.062a.709.709,0,0,0-.042-.081c-.008-.014-.014-.028-.022-.041a.712.712,0,0,0-.091-.111l-4.059-4.06a.706.706,0,1,0-1,1l2.855,2.856h-12.7a.706.706,0,1,0,0,1.413h12.7l-2.856,2.856a.706.706,0,0,0,1,1l4.062-4.062.01-.013a.688.688,0,0,0,.077-.095c.013-.019.022-.04.032-.06s.023-.04.032-.062a.737.737,0,0,0,.023-.076c.006-.019.013-.037.017-.056a.711.711,0,0,0,.014-.138A.03.03,0,0,1,33.833,25.839Z" transform="translate(-12.834 -16.334)" fill="#28a745"/>
</svg>
