<svg xmlns="http://www.w3.org/2000/svg" width="134" height="102.896" viewBox="0 0 134 102.896">
  <g id="Group_2806" data-name="Group 2806" transform="translate(-121 -307.104)">
    <text id="CarePlus" transform="translate(188 403)" fill="#28a745" font-size="32" font-family="Helvetica-Bold, Helvetica" font-weight="700" letter-spacing="-0.022em"><tspan x="-66.878" y="0">CarePlus</tspan></text>
    <path id="Path_1560" data-name="Path 1560" d="M50.292,14.613H39.721V7.6a3.518,3.518,0,0,0-3.5-3.5H22.141a3.518,3.518,0,0,0-3.5,3.5v7.066H8.066A7.012,7.012,0,0,0,1,21.68V49.83A7.1,7.1,0,0,0,8.066,56.9H50.292a7.1,7.1,0,0,0,7.066-7.066V21.68A7.174,7.174,0,0,0,50.292,14.613ZM22.141,7.6H36.216v7.066H22.141ZM43.225,39.259H32.655V49.83H25.646V39.259H15.075V32.25H25.646V21.68h7.066V32.25H43.283v7.009Z" transform="translate(158.321 303.004)" fill="#28a745"/>
  </g>
</svg>
