<svg xmlns="http://www.w3.org/2000/svg" width="20.025" height="18.69" viewBox="0 0 20.025 18.69">
  <g id="_27-message" data-name="27-message" transform="translate(8.338 7)">
    <path id="Path_415" data-name="Path 415" d="M19.022,6.339h-.667V3a2,2,0,0,0-2-2H3A2,2,0,0,0,1,3V14.173a.667.667,0,0,0,1.123.487L4.6,12.347H6.34v2.671a2,2,0,0,0,2,2h9.069l2.474,2.474a.667.667,0,0,0,1.139-.472V8.342A2,2,0,0,0,19.022,6.339ZM4.337,11.012a.667.667,0,0,0-.456.18L2.335,12.636V3A.668.668,0,0,1,3,2.335h13.35A.668.668,0,0,1,17.02,3v7.342a.668.668,0,0,1-.667.667Zm15.352,6.4-1.531-1.53a.667.667,0,0,0-.472-.2H8.342a.668.668,0,0,1-.667-.667V12.347h8.677a2,2,0,0,0,2-2V7.674h.667a.668.668,0,0,1,.667.667Z" transform="translate(-9.338 -8)" fill="#28a745"/>
  </g>
</svg>
