<svg xmlns="http://www.w3.org/2000/svg" xmlns:xlink="http://www.w3.org/1999/xlink" width="332.735" height="242.44" viewBox="0 0 332.735 242.44">
  <defs>
    <linearGradient id="linear-gradient" x1="0.5" y1="1" x2="0.5" gradientUnits="objectBoundingBox">
      <stop offset="0" stop-color="gray" stop-opacity="0.251"/>
      <stop offset="0.54" stop-color="gray" stop-opacity="0.122"/>
      <stop offset="1" stop-color="gray" stop-opacity="0.102"/>
    </linearGradient>
    <linearGradient id="linear-gradient-2" x1="0.5" y1="1" x2="0.5" y2="0" xlink:href="#linear-gradient"/>
  </defs>
  <g id="Group_2814" data-name="Group 2814" transform="translate(-21.265 -190.174)">
    <g id="undraw_medicine_b1ol" transform="translate(21.27 190.18)">
      <ellipse id="Ellipse_348" data-name="Ellipse 348" cx="26.867" cy="4.315" rx="26.867" ry="4.315" transform="translate(82.981 233.682)" fill="#28a745" opacity="0.1"/>
      <ellipse id="Ellipse_349" data-name="Ellipse 349" cx="33.526" cy="4.315" rx="33.526" ry="4.315" transform="translate(241.858 233.803)" fill="#28a745" opacity="0.1"/>
      <path id="Path_1561" data-name="Path 1561" d="M59.574,396.83H87.557v38.142H61.622c-.069.392-.135.786-.207,1.18H87.557v30.76c-.047-.014-.088-.03-.132-.047-.739-.292-1.472-.6-2.206-.932l-.469-.212q-1.1-.521-2.206-1.1c-.256-.135-.513-.276-.767-.419a45.884,45.884,0,0,1-11-8.592c-.094-.091-.182-.187-.276-.276-.447-.485-.885-.976-1.31-1.478l-.469-.551c-.5-.615-.987-1.246-1.459-1.886-.069-.094-.135-.187-.207-.276a41.052,41.052,0,0,1-4.743-8.575c-.039-.091-.072-.19-.108-.276q-.568-1.461-1.006-2.95c-.127-.416-.248-.827-.353-1.26-.039-.127-.072-.251-.1-.375C59.185,431.591,59,425.241,59,418.935v-2.206c0-2.55.03-5.118.074-7.682,0-.665.028-1.326.041-1.994q.058-2.539.165-5.079c.017-.472.039-.94.063-1.409a7.979,7.979,0,0,1,.041-.811C59.452,398.774,59.507,397.8,59.574,396.83Z" transform="translate(-55.41 -286.554)" fill="#6c63ff" opacity="0.1"/>
      <path id="Path_1562" data-name="Path 1562" d="M122.25,191.85H106.9a116.363,116.363,0,0,1,8.164-11.239c2.28-2.8,4.687-5.531,7.185-8.162Z" transform="translate(-90.102 -141.071)" fill="#28a745" opacity="0.1"/>
      <path id="Path_1563" data-name="Path 1563" d="M89.3,247.09V287.2H61.4c0-.116.019-.234.028-.35.025-.317.05-.634.077-.949.03-.37.063-.742.1-1.1s.074-.8.116-1.2.08-.805.127-1.2.088-.8.138-1.2.094-.8.146-1.2c.041-.331.085-.659.13-.99.063-.466.13-.935.2-1.4a1.289,1.289,0,0,1,.03-.207,95.375,95.375,0,0,1,2.054-10.07,74.469,74.469,0,0,1,3.46-10.2A76.585,76.585,0,0,1,73.212,247.1Z" transform="translate(-57.148 -187.26)" fill="#28a745" opacity="0.1"/>
      <path id="Path_1564" data-name="Path 1564" d="M186.8,164.343v43.245h65.988V164.343Zm0,44.579v37.137c.377.081.752.159,1.123.225.505.1,1.008.191,1.522.269.1.016.2.031.3.041.2.034.408.063.609.091.508.072,1.014.131,1.522.178.24.025.484.047.728.066l.588.047h0c.32.025.636.044.95.053.195,0,.39.019.591.025h2.17c.262,0,.524,0,.782-.025h.018a4,4,0,0,0,.545-.025,1.254,1.254,0,0,0,.152,0,3.059,3.059,0,0,0,.451-.022h.107l1.02-.081c.335-.031.673-.072,1.014-.109l.694-.084a59.337,59.337,0,0,0,8.356-1.826c6.155-1.763,12.177-4.229,18.329-6.036,7.954-2.329,16.743-3.473,24.429-.625v-29.3ZM252.788,116.2V58.629a82.72,82.72,0,0,0-21.44,2.582c-16.709,4.311-31.7,13.661-44.548,25.6V116.2h3.312v1.335H186.8v45.477h65.988V117.535H203.71V116.2Zm84.758-19.447a26.8,26.8,0,0,1-11.96-3.57c-7.108-3.97-12.785-10.1-19.129-15.274a86.553,86.553,0,0,0-46.3-18.89V116.2h94.2l.234-.253Zm8.581-1.563,9.1,10.253V92.5a35.379,35.379,0,0,0-9.087,2.676Zm9.1,160.09V208.922H335.838c-.052-.2-.1-.4-.164-.6.058.2.107.4.161.6H260.17v33.526c.718.547,1.428,1.122,2.131,1.707h0c.758.625,1.507,1.285,2.259,1.932l.758.644c.362.313.728.625,1.1.919q1.1.913,2.213,1.8c.368.313.746.594,1.12.888a152.231,152.231,0,0,0,18.761,12.6q2.2,1.25,4.441,2.441c1,.522,2,1.041,3,1.544q2.265,1.135,4.566,2.188h0a164.376,164.376,0,0,0,44.444,13.295q5.111.775,10.262,1.219V255.277h.3ZM260.17,117.535v45.474h95.068V117.535Zm0,46.808v43.245h95.068V164.343Zm102.447-71.9v14.436L374.231,93.8q-5.772-.957-11.613-1.366Zm0,71.913v43.229h92.466V164.343Zm92.128,94.354.326-49.791H362.617v75.2a161.491,161.491,0,0,0,17.869-.219h.1q4.262-.275,8.484-.8h.064a153.013,153.013,0,0,0,43.592-11.944m40.183-99.7c-.347-.841-.709-1.676-1.078-2.5-.688-1.563-1.416-3.082-2.164-4.6h-7.215v43.226H480.7c-.009-12.241-3.026-24.745-7.775-36.139Zm-10.457,37.474v42.826a58.738,58.738,0,0,0,18.225-42.832Zm0-57.18v11.254h6.539a122.681,122.681,0,0,0-6.53-11.269Zm-62.709-50.828c-.481-.188-.962-.378-1.446-.563a129.427,129.427,0,0,0-15.619-4.82l-17.772,20.028h0l-.341.372.228.256h63.251a134.1,134.1,0,0,0-28.292-15.289ZM429.9,117.55H363.914l-1.3,1.219v44.239H455.1V141.58a133.2,133.2,0,0,0-25.184-24.045Z" transform="translate(-147.972 -58.63)" fill="#28a745" opacity="0.1"/>
      <path id="Path_1565" data-name="Path 1565" d="M89.3,320.46v19.877H61.4c0-.116.019-.234.028-.35.025-.317.05-.634.077-.949.03-.369.063-.742.1-1.1s.074-.8.116-1.2.08-.805.127-1.2.088-.8.138-1.2.094-.8.146-1.2c.041-.331.085-.659.13-.99.063-.466.13-.935.2-1.4a1.289,1.289,0,0,1,.03-.207,95.376,95.376,0,0,1,2.054-10.07Z" transform="translate(-57.148 -238.465)" fill="#28a745" opacity="0.1"/>
      <path id="Path_1566" data-name="Path 1566" d="M59.574,396.83H87.557v38.142H61.622c-.069.392-.135.786-.207,1.18H87.557v30.76c-.047-.014-.088-.03-.132-.047-.739-.292-1.472-.6-2.206-.932l-.469-.212q-1.1-.521-2.206-1.1c-.256-.135-.513-.276-.767-.419a45.884,45.884,0,0,1-11-8.592c-.094-.091-.182-.187-.276-.276-.447-.485-.885-.976-1.31-1.478l-.469-.551c-.5-.615-.987-1.246-1.459-1.886-.069-.094-.135-.187-.207-.276a41.052,41.052,0,0,1-4.743-8.575c-.039-.091-.072-.19-.108-.276q-.568-1.461-1.006-2.95c-.127-.416-.248-.827-.353-1.26-.039-.127-.072-.251-.1-.375C59.185,431.591,59,425.241,59,418.935v-2.206c0-2.55.03-5.118.074-7.682,0-.665.028-1.326.041-1.994q.058-2.539.165-5.079c.017-.472.039-.94.063-1.409a7.979,7.979,0,0,1,.041-.811C59.452,398.774,59.507,397.8,59.574,396.83Z" transform="translate(-55.41 -286.554)" fill="#28a745" opacity="0.1"/>
      <path id="Path_1567" data-name="Path 1567" d="M160.6,178.716v34.367H139.56V178.716h3V167.08h12.314v11.636Z" transform="translate(-100.732 -113.796)" fill="#28a745" opacity="0.1"/>
      <rect id="Rectangle_1662" data-name="Rectangle 1662" width="21.038" height="38.142" transform="translate(38.831 107.211)" fill="#28a745" opacity="0.1"/>
      <path id="Path_1568" data-name="Path 1568" d="M186.8,539.44h21.041v31.709a54.909,54.909,0,0,1-7.569,1.607l-.629.077c-.309.036-.615.066-.918.1s-.618.052-.924.072h-.1c-.132,0-.276.017-.405.019h-.141c-.165,0-.331.017-.5.022h0c-.234.014-.469.017-.709.019H194l-.532-.019c-.276,0-.574-.03-.86-.05h0l-.529-.039-.659-.061c-.463-.041-.924-.094-1.379-.157l-.551-.077-.276-.039c-.46-.072-.915-.149-1.379-.237-.339-.058-.676-.13-1.017-.2Z" transform="translate(-147.972 -387.507)" fill="#28a745" opacity="0.1"/>
      <rect id="Rectangle_1663" data-name="Rectangle 1663" width="17.349" height="38.423" transform="translate(190.782 61.689)" fill="#28a745" opacity="0.1"/>
      <path id="Path_1569" data-name="Path 1569" d="M466.693,338.19v38.144H380.58V359.882h45.868v9.706h22.894v-31.4Z" transform="translate(-262.009 -230.978)" fill="#28a745" opacity="0.1"/>
      <path id="Path_1570" data-name="Path 1570" d="M514.206,578.953h-.276v25.022q-4.66-.394-9.292-1.073a151.89,151.89,0,0,1-40.273-11.752q-5.55-2.5-10.875-5.454a138.762,138.762,0,0,1-17-11.115q-2.029-1.555-4.006-3.182c-.913-.753-1.82-1.525-2.738-2.275-.637-.516-1.279-1.023-1.93-1.508V538.057h68.533c-.047-.176-.094-.353-.143-.527.052.174.1.35.149.527H513.93v40.88C514.024,578.939,514.115,578.947,514.206,578.953Z" transform="translate(-309.232 -378.875)" fill="#28a745" opacity="0.1"/>
      <path id="Path_1571" data-name="Path 1571" d="M874.525,206.1h-11.3v-3.513h5.068V192.12q.659.24,1.313.494v9.97h4.925Z" transform="translate(-616.648 -150.464)" fill="#28a745" opacity="0.1"/>
      <path id="Path_1572" data-name="Path 1572" d="M830.16,287.2h-55.5l.019.014-.025-.014h-10.3V248.775h2.917v28.4h13.332V260.355h11.013V247.09h11.3v13.276h11.013v16.819H830.16Z" transform="translate(-538.588 -187.26)" fill="#28a745" opacity="0.1"/>
      <path id="Path_1573" data-name="Path 1573" d="M764.36,396.82v38.144h65.8V396.82Zm83.662,83.044.091-30.192H830.16V436.161h-65.8v66.313a150.2,150.2,0,0,0,16.185-.193h.094q3.86-.243,7.685-.706h.058a141.517,141.517,0,0,0,39.484-10.536" transform="translate(-538.588 -276.962)" fill="#28a745" opacity="0.1"/>
      <path id="Path_1574" data-name="Path 1574" d="M1093.528,539.44h15.35a53.106,53.106,0,0,1-5.093,22.378,54.132,54.132,0,0,1-11.415,15.4V552.953h1.158Z" transform="translate(-776.156 -387.055)" fill="#28a745" opacity="0.1"/>
      <path id="Path_1575" data-name="Path 1575" d="M1111.928,451.427H1096.57V419.55h8.31C1109.182,429.6,1111.914,440.629,1111.928,451.427Z" transform="translate(-779.198 -305.64)" fill="#28a745" opacity="0.1"/>
      <rect id="Rectangle_1664" data-name="Rectangle 1664" width="9.295" height="12.047" transform="translate(199.138 72.724)" fill="#6c63ff" opacity="0.1"/>
      <rect id="Rectangle_1665" data-name="Rectangle 1665" width="9.295" height="2.774" transform="translate(199.138 100.448)" fill="#28a745" opacity="0.1"/>
      <rect id="Rectangle_1666" data-name="Rectangle 1666" width="9.295" height="8.093" transform="translate(199.138 105.191)" fill="#28a745" opacity="0.1"/>
      <rect id="Rectangle_1667" data-name="Rectangle 1667" width="9.295" height="12.047" transform="translate(199.138 129.187)" fill="#28a745" opacity="0.1"/>
      <rect id="Rectangle_1668" data-name="Rectangle 1668" width="9.295" height="12.047" transform="translate(199.138 157.418)" fill="#28a745" opacity="0.1"/>
      <path id="Path_1576" data-name="Path 1576" d="M715.712,663.415a1.529,1.529,0,0,1,.276.017h-.276v2.8H706.42V654.17h9.292Z" transform="translate(-507.266 -468.52)" fill="#28a745" opacity="0.1"/>
      <path id="Path_1577" data-name="Path 1577" d="M715.712,744.71v9.306q-4.66-.394-9.292-1.073V744.71Z" transform="translate(-507.282 -528.929)" fill="#28a745" opacity="0.1"/>
      <rect id="Rectangle_1669" data-name="Rectangle 1669" width="39.835" height="0.885" transform="translate(116.249 146.663)" fill="#6c63ff" opacity="0.1"/>
      <rect id="Rectangle_1670" data-name="Rectangle 1670" width="39.835" height="3.391" transform="translate(116.249 149.174)" fill="#28a745" opacity="0.1"/>
      <rect id="Rectangle_1671" data-name="Rectangle 1671" width="39.835" height="5.454" transform="translate(116.249 165.682)" fill="#28a745" opacity="0.1"/>
      <path id="Path_1578" data-name="Path 1578" d="M472.715,652.15V657.6H441.557q-2.029-1.55-4.009-3.182c-.913-.753-1.817-1.525-2.738-2.272Z" transform="translate(-316.513 -467.801)" fill="#28a745" opacity="0.1"/>
      <path id="Path_1579" data-name="Path 1579" d="M535.081,712.218v5.448h-3.289q-5.545-2.5-10.872-5.457Z" transform="translate(-377.522 -505.39)" fill="#28a745" opacity="0.1"/>
      <rect id="Rectangle_1672" data-name="Rectangle 1672" width="7.842" height="7.842" transform="translate(234.22 109.347)" fill="#28a745" opacity="0.1"/>
      <rect id="Rectangle_1673" data-name="Rectangle 1673" width="7.842" height="7.842" transform="translate(44.478 68.135)" fill="#28a745" opacity="0.1"/>
      <rect id="Rectangle_1674" data-name="Rectangle 1674" width="7.842" height="7.842" transform="translate(44.478 88.68)" fill="#28a745" opacity="0.1"/>
      <rect id="Rectangle_1675" data-name="Rectangle 1675" width="7.842" height="7.842" transform="translate(44.478 109.226)" fill="#28a745" opacity="0.1"/>
      <rect id="Rectangle_1676" data-name="Rectangle 1676" width="7.842" height="7.842" transform="translate(44.478 129.768)" fill="#28a745" opacity="0.1"/>
      <rect id="Rectangle_1677" data-name="Rectangle 1677" width="7.842" height="7.842" transform="translate(44.478 150.314)" fill="#6c63ff" opacity="0.1"/>
      <rect id="Rectangle_1678" data-name="Rectangle 1678" width="7.842" height="7.842" transform="translate(44.478 170.859)" fill="#28a745" opacity="0.1"/>
      <rect id="Rectangle_1679" data-name="Rectangle 1679" width="7.842" height="7.842" transform="translate(271.896 109.347)" fill="#6c63ff" opacity="0.1"/>
      <rect id="Rectangle_1680" data-name="Rectangle 1680" width="7.842" height="7.842" transform="translate(234.22 131.165)" fill="#28a745" opacity="0.1"/>
      <rect id="Rectangle_1681" data-name="Rectangle 1681" width="7.842" height="7.842" transform="translate(271.896 131.165)" fill="#6c63ff" opacity="0.1"/>
      <rect id="Rectangle_1682" data-name="Rectangle 1682" width="7.842" height="7.842" transform="translate(234.22 152.979)" fill="#28a745" opacity="0.1"/>
      <rect id="Rectangle_1683" data-name="Rectangle 1683" width="7.842" height="7.842" transform="translate(271.896 152.979)" fill="#6c63ff" opacity="0.1"/>
      <rect id="Rectangle_1684" data-name="Rectangle 1684" width="7.842" height="7.842" transform="translate(234.22 174.796)" fill="#28a745" opacity="0.1"/>
      <rect id="Rectangle_1685" data-name="Rectangle 1685" width="7.842" height="7.842" transform="translate(271.896 174.796)" fill="#6c63ff" opacity="0.1"/>
      <rect id="Rectangle_1686" data-name="Rectangle 1686" width="7.842" height="7.842" transform="translate(234.22 200.922)" fill="#28a745" opacity="0.1"/>
      <rect id="Rectangle_1687" data-name="Rectangle 1687" width="7.842" height="7.842" transform="translate(271.896 200.922)" fill="#28a745" opacity="0.1"/>
      <path id="Path_1580" data-name="Path 1580" d="M775.83,707.387V702.33h7.839v4.337Z" transform="translate(-541.61 -482.068)" fill="#28a745" opacity="0.1"/>
      <path id="Path_1581" data-name="Path 1581" d="M65.24,357v4.486H92.077V357Zm2.675,4.2H65.725v-3.929h2.206Zm2.672,0H68.381v-3.929h2.206Zm2.666,0H71.047v-3.929h2.206Zm2.672,0h-2.2v-3.929h2.206Zm2.669,0H76.388v-3.929h2.206Zm2.672,0H79.06v-3.929h2.206Zm2.672,0H81.731v-3.929h2.206Zm2.669,0H84.4v-3.929h2.206Zm2.669,0H87.07v-3.929h2.206Zm2.669,0H89.739v-3.929h2.206Z" transform="translate(-59.929 -264.375)" fill="#6c63ff" opacity="0.1"/>
      <path id="Path_1582" data-name="Path 1582" d="M65.24,404.34v4.486H92.077V404.34Zm2.675,4.2H65.725v-3.918h2.206Zm2.672,0H68.381v-3.918h2.206Zm2.666,0H71.047v-3.918h2.206Zm2.672,0h-2.2v-3.918h2.206Zm2.669,0H76.388v-3.918h2.206Zm2.672,0H79.06v-3.918h2.206Zm2.672,0H81.731v-3.918h2.206Zm2.669,0H84.4v-3.918h2.206Zm2.669,0H87.07v-3.918h2.206Zm2.669,0H89.739v-3.918h2.206Z" transform="translate(-59.929 -297.018)" fill="#6c63ff" opacity="0.1"/>
      <path id="Path_1583" data-name="Path 1583" d="M65.24,451.7v4.494H92.077V451.7Zm2.675,4.2H65.725v-3.921h2.206Zm2.672,0H68.381v-3.921h2.206Zm2.666,0H71.047v-3.921h2.206Zm2.672,0h-2.2v-3.921h2.206Zm2.669,0H76.388v-3.921h2.206Zm2.672,0H79.06v-3.921h2.206Zm2.672,0H81.731v-3.921h2.206Zm2.669,0H84.4v-3.921h2.206Zm2.669,0H87.07v-3.921h2.206Zm2.669,0H89.739v-3.921h2.206Z" transform="translate(-59.929 -329.675)" fill="#28a745" opacity="0.1"/>
      <path id="Path_1584" data-name="Path 1584" d="M65.24,499.06v4.481H92.077V499.06Zm2.675,4.2H65.725v-3.924h2.206Zm2.672,0H68.381v-3.924h2.206Zm2.666,0H71.047v-3.924h2.206Zm2.672,0h-2.2v-3.924h2.206Zm2.669,0H76.388v-3.924h2.206Zm2.672,0H79.06v-3.924h2.206Zm2.672,0H81.731v-3.924h2.206Zm2.669,0H84.4v-3.924h2.206Zm2.669,0H87.07v-3.924h2.206Zm2.669,0H89.739v-3.924h2.206Z" transform="translate(-59.929 -362.333)" fill="#6c63ff" opacity="0.1"/>
      <path id="Path_1585" data-name="Path 1585" d="M65.66,546.41c.108.422.229.844.356,1.26v-.979h2.206v3.921h-1.18c.036.091.072.19.108.276H92.381V546.41Zm5.239,4.2H68.693v-3.921H70.9Zm2.666,0H71.359v-3.921h2.206Zm2.672,0H74.026v-3.921h2.206Zm2.669,0H76.7v-3.921h2.206Zm2.672,0H79.372v-3.921h2.206Zm2.672,0H82.044v-3.921H84.25Zm2.669,0H84.713v-3.921h2.206Zm2.669,0H87.382v-3.921h2.206Zm2.669,0H90.051v-3.921h2.206Z" transform="translate(-60.233 -394.983)" fill="#6c63ff" opacity="0.1"/>
      <path id="Path_1586" data-name="Path 1586" d="M88.26,593.77c.069.088.135.187.207.276h1.459v1.883c.157.188.312.375.471.552v-2.446H92.6v3.935h-.893c.088.091.174.188.276.276h16.773V593.77Zm7.006,4.2H93.06v-3.918h2.206Zm2.672,0H95.732v-3.918h2.206Zm2.672,0H98.4v-3.918h2.206Zm2.669,0h-2.206v-3.918h2.206Zm2.669,0h-2.206v-3.918h2.206Zm2.669,0h-2.206v-3.918h2.206Z" transform="translate(-76.602 -427.641)" fill="#6c63ff" opacity="0.1"/>
      <path id="Path_1587" data-name="Path 1587" d="M141.65,641.12c.251.143.507.276.767.419V641.4h2.206v1.241l.469.218V641.4H147.3v2.385a.684.684,0,0,0,.132.05V641.12Z" transform="translate(-115.271 -460.458)" fill="#6c63ff" opacity="0.1"/>
      <path id="Path_1588" data-name="Path 1588" d="M364.261,284.076Zm-16.985,81.379Zm-17.721-41.406c.052.177.1.353.146.527h0C329.657,324.4,329.61,324.225,329.555,324.049Zm34.706-39.981ZM197.72,242.78v1.177h12.317V242.78ZM347.276,365.455Zm-17.721-41.406c.052.177.1.353.146.527h0C329.657,324.4,329.61,324.225,329.555,324.049Zm34.706-39.981Zm-16.985,81.379Zm-17.721-41.4c.052.177.1.353.146.527h0C329.657,324.4,329.61,324.225,329.555,324.049Z" transform="translate(-155.881 -177.502)" fill="#6c63ff" opacity="0.1"/>
      <path id="Path_1589" data-name="Path 1589" d="M354.411,278.858s-1.086-.152-1.086-1.734a24.8,24.8,0,0,0-.778-4.538h0c0-.014-.673-5.148-1.6-5.964s-2.123-5.608-2.123-5.608a11.305,11.305,0,0,0-.62-3.16,26.851,26.851,0,0,1-1.809-3.885c-.83-1.955-4.29-3.309-4.29-3.309s-6.256-3.629-8.029-4.811h0a2.719,2.719,0,0,1-.449-.339c-.309-.405-1.654-.414-1.654-.414a27.111,27.111,0,0,1-.32-2.832,2.162,2.162,0,0,0-.014-.3,9.541,9.541,0,0,0,4.194-5.189c.033-.1.061-.215.091-.32a.9.9,0,0,0,.538-.485,10.111,10.111,0,0,1,.361-1.1,4.152,4.152,0,0,1,1.02-.9,3.861,3.861,0,0,0,1.062-3.141c-.028-.924-.176-1.856-.119-2.774l.017-.232c.017-.138.036-.276.061-.408.135-.684.43-1.329.6-2.007a2.583,2.583,0,0,0-.2-2.027c-.565-.858-1.743-1.028-2.777-1.117-1.172-.1-2.22.03-2.97-.943a10.584,10.584,0,0,0-1.18-1.426c-.154-.143-1.654-1.059-1.654-1.119a6.7,6.7,0,0,0-4.674-.358c-.778.226-1.511.6-2.3.78-1.7.4-3.659-.033-5.1.94a6,6,0,0,0-1.74,2.283q-.552,1.056-1.12,2.109a13.665,13.665,0,0,0-1.486,3.609,5.739,5.739,0,0,0-.1.844h0v.449a1.483,1.483,0,0,0,.017.276c.017.085.014.113.022.171s.022.188.039.276.05.243.083.364c.014.052.033.1.05.152.028.094.061.185.1.276.019.047.039.1.061.143a2.563,2.563,0,0,0,.141.276c.022.039.039.074.061.11a3.652,3.652,0,0,0,.254.369c.59.736,1.459,1.2,2.1,1.894v.309a9.438,9.438,0,0,0,4.3,7.707c0,.1.014.212.019.317a15.774,15.774,0,0,1-.03,2.457,1.158,1.158,0,0,0-.915-.408,1.321,1.321,0,0,0-.353.03l-.025-.019h0v.025c-.607.149-1.354.78-2.068,2.575,0,0-2.173,2.448-3.827,2.346s-5.843,2.548-5.843,2.548-4.086,2.653-4.963,5.355a37.739,37.739,0,0,1-1.759,4.489l-5.051,10.409h0l-.932,8.258a38.327,38.327,0,0,1,.414,4.232c-.1.56,2.12,5.608,2.12,5.608s7.343,12.9,10.343,13.563l.215-.152a1.761,1.761,0,0,0,.405.152l.618-.436a6.726,6.726,0,0,1-.047,1.456c-.414,1.274.154,9.587.877,11.217s.466,23,.466,23l-.1,1.886a.8.8,0,0,0,.025.165l-.025.447.074.039a5.309,5.309,0,0,1-.074,1.795,19.964,19.964,0,0,0-.364,3.165s-2.065,13.2-1.086,15.854,1.812,5.559,1.812,5.559,1.034,3.309.05,3.874-3.783,1.514-3.207,2.892c.524,1.274,2.512,4.687,2.807,5.187l-.025.262-.405,4.392a5.514,5.514,0,0,0,.466,1.676,2.889,2.889,0,0,0,2.948,1.842c.276-.019.6-.052.9-.094a39.084,39.084,0,0,0,6.7-1.743,2.735,2.735,0,0,1-.524-.433h0a1.514,1.514,0,0,1-.461-1.1c.044-.8-1.453-4.61-1.825-5.548-.058-.135-.088-.212-.088-.212s3.413-3.568,2.846-6.731c0,0-3.778-2.206-2.534-3.416a38.514,38.514,0,0,0,3.466-4.687s.1-13,0-14.942a16.074,16.074,0,0,1,.19-4.034c.041-.2.091-.4.143-.59a36,36,0,0,0,5.195.394c.634,0,1.279,0,1.93-.039q0,.276.025.6c.143,3.221.411,8.867.629,10.966.309,3.008,2.016,11.115,2.016,11.115s-3.256,2.09.568,7.241a6.981,6.981,0,0,1-.254,2.137h0a23.372,23.372,0,0,0-.653,2.691,4.744,4.744,0,0,0,.033,2.462c.62,1.219,4.343,1.119,4.343,1.119h0l.091-.017a5.336,5.336,0,0,1,3.94,1.188c1.414,1.136,6.783.637,9.689.276,1.139-.143,1.9-.276,1.9-.276a1.1,1.1,0,0,0,.039-.4h0c-.03-.714-.59-2.28-4.384-3.678,0,0-3.568-2.4-3.518-4.489h-.488a3.882,3.882,0,0,1,.494,0s-1.4-5.1-.827-5.515-1.139-6.066-1.139-6.066-.979-9.485-1.031-10.15a5.79,5.79,0,0,1,.256-1.682l-.256-5.2s-.05-1.729,0-2.291a11.451,11.451,0,0,0-.119-1.459c-.025-.193-.05-.394-.077-.593,1.337-.339,2.206-.653,2.206-.653l-.154-18.1c1.136-2.206,1.346-7.045,1.34-10.478,0-2.206-.1-3.838-.1-3.838l1.552-2.534s.358-3.033-.21-3.7a.637.637,0,0,1,.069-.869,2.887,2.887,0,0,1,.339-.232s-.017-.025-.036-.061a2.741,2.741,0,0,1,.345-.245s-.552-.855-.058-1.216c.463.314.877.551,1.191.744-.022.2-.044.317-.044.317l.132-.276.488.276s2.432-4.845,2.38-5.559,1.654-3.722,1.654-3.722a3.724,3.724,0,0,1,1.139-2.242c.932-.662.722-5.457.722-5.457a11.754,11.754,0,0,1,.88-3.518C355.6,280.234,354.411,278.858,354.411,278.858Zm-46.532-2.126.047,1.155-.474-.764Z" transform="translate(-219.061 -147.563)" fill="url(#linear-gradient)"/>
      <path id="Path_1590" data-name="Path 1590" d="M469.94,494.67l-.6,2.537s-4.77-2.435-5.63-5.528a3.5,3.5,0,0,1,1.439-4.268l4.445,1.883Z" transform="translate(-337.743 -353.915)" fill="#fff"/>
      <path id="Path_1591" data-name="Path 1591" d="M469.94,494.67l-.6,2.537s-4.77-2.435-5.63-5.528a3.5,3.5,0,0,1,1.439-4.268l4.445,1.883Z" transform="translate(-337.743 -353.915)" opacity="0.1"/>
      <path id="Path_1592" data-name="Path 1592" d="M361.362,800.465a34.282,34.282,0,0,1-7.445,1.825,2.833,2.833,0,0,1-2.892-1.831,5.54,5.54,0,0,1-.455-1.668l.394-4.37.21-2.327,6.444-1.674.913,2.79.085.212c.367.932,1.836,4.723,1.792,5.515a1.505,1.505,0,0,0,.452,1.089A2.62,2.62,0,0,0,361.362,800.465Z" transform="translate(-258.713 -562.035)" fill="#fff"/>
      <path id="Path_1593" data-name="Path 1593" d="M446.979,797.482a1.1,1.1,0,0,1-.039.394s-9.435,1.574-11.366,0a5.112,5.112,0,0,0-3.971-1.164s-3.651.1-4.26-1.1a4.787,4.787,0,0,1-.03-2.448,23.345,23.345,0,0,1,.64-2.677l.146-.116.869-.7,10.169-.3h.077c-.05,2.079,3.452,4.464,3.452,4.464C446.387,795.213,446.935,796.771,446.979,797.482Z" transform="translate(-311.893 -561.275)" fill="#fff"/>
      <path id="Path_1594" data-name="Path 1594" d="M446.983,807.441a1.125,1.125,0,0,1-.041.394s-9.433,1.574-11.363,0a5.112,5.112,0,0,0-3.968-1.164s-3.653.1-4.26-1.1a4.783,4.783,0,0,1-.033-2.449c1.406.141,3.626.491,4.5,1.326a9.985,9.985,0,0,0,4.922,2.639C437.81,807.154,444.226,807.358,446.983,807.441Z" transform="translate(-311.896 -571.233)" opacity="0.1"/>
      <path id="Path_1595" data-name="Path 1595" d="M362.564,825.735a34.279,34.279,0,0,1-7.445,1.825,2.825,2.825,0,0,1-2.89-1.834c1.122.378,2.68.775,3.5.411.971-.43,4.412-.709,6.342-.827A2.715,2.715,0,0,0,362.564,825.735Z" transform="translate(-259.885 -587.305)" opacity="0.1"/>
      <path id="Path_1596" data-name="Path 1596" d="M394.182,309.544c-3.64-1.414-8.322-6.088-7.152-8.272a4.886,4.886,0,0,0,.455-1.754,16.018,16.018,0,0,0,.033-2.482A33.99,33.99,0,0,0,387.03,293s11.363.256,10.7,1.93a6.257,6.257,0,0,0-.171,2.3c.052.954.19,2.032.334,2.945.2,1.252.4,2.206.4,2.206s-.695.973-1.1,1.026S399.4,311.559,394.182,309.544Z" transform="translate(-284.025 -219.738)" fill="#cf6f80"/>
      <path id="Path_1597" data-name="Path 1597" d="M359.621,793.423l-.086.094c-3.4-4.108-7.505,1.012-7.505,1.012l-.061-.108.21-2.327,6.444-1.674.913,2.79Z" transform="translate(-259.775 -562.035)" opacity="0.1"/>
      <path id="Path_1598" data-name="Path 1598" d="M441.277,789.63a6.526,6.526,0,0,0-3.805,1.117c-1.323,1.169-7.72.254-7.445,0a.907.907,0,0,0,.143-.419l.869-.7,10.169-.3C441.247,789.515,441.277,789.63,441.277,789.63Z" transform="translate(-314.175 -561.246)" opacity="0.1"/>
      <path id="Path_1599" data-name="Path 1599" d="M356.476,659.106a7.676,7.676,0,0,0-.419,1.415,16.187,16.187,0,0,0-.19,4.015c.1,1.93,0,14.865,0,14.865a39.569,39.569,0,0,1-3.4,4.665c-1.216,1.216,2.482,3.4,2.482,3.4.551,3.143-2.79,6.695-2.79,6.695-3.4-4.108-7.505,1.015-7.505,1.015s-2.233-3.86-2.79-5.239,2.181-2.333,3.143-2.892-.047-3.86-.047-3.86-.813-2.892-1.778-5.531,1.064-15.775,1.064-15.775a20.359,20.359,0,0,1,.356-3.146,5.26,5.26,0,0,0,.074-1.787c-.017-.2-.036-.37-.05-.483s-.025-.166-.025-.166l.039-.066,1.379-2.57S357.138,657.487,356.476,659.106Z" transform="translate(-252.48 -462.984)" fill="#28a745"/>
      <path id="Path_1600" data-name="Path 1600" d="M433.449,698.149a6.583,6.583,0,0,0-3.805,1.1c-1.323,1.155-7.72.254-7.445,0s.254-2.131.254-2.131c-3.753-5.123-.551-7.2-.551-7.2s-1.676-8.065-1.98-11.057c-.212-2.09-.474-7.707-.615-10.913-.061-1.379-.1-2.327-.1-2.327l3.066-.618.394-.08,7.4-1.483s.2,1.379.342,2.506a11.731,11.731,0,0,1,.116,1.453c-.05.551,0,2.278,0,2.278l.251,5.175a5.878,5.878,0,0,0-.251,1.674c.05.659,1.012,10.094,1.012,10.094s1.674,5.63,1.1,6.036S433.449,698.149,433.449,698.149Z" transform="translate(-306.528 -470.067)" fill="#28a745"/>
      <path id="Path_1601" data-name="Path 1601" d="M398.211,294.93a6.256,6.256,0,0,0-.171,2.3A9.444,9.444,0,0,1,388,297.039,33.986,33.986,0,0,0,387.51,293S398.873,293.251,398.211,294.93Z" transform="translate(-284.51 -220.202)" opacity="0.1"/>
      <path id="Path_1602" data-name="Path 1602" d="M392.7,253.115a9.339,9.339,0,0,1-.463,2.926,9.435,9.435,0,0,1-18.4-2.7v-.226a9.435,9.435,0,1,1,18.87,0Z" transform="translate(-274.716 -185.766)" fill="#cf6f80"/>
      <path id="Path_1603" data-name="Path 1603" d="M394.182,326.666c-3.64-1.414-8.322-6.088-7.152-8.272a4.886,4.886,0,0,0,.455-1.754l4.982,4.095,3.083,2.528,2.344-5.967c.2,1.252.4,2.206.4,2.206s-.695.973-1.1,1.026S399.4,328.681,394.182,326.666Z" transform="translate(-284.025 -236.289)" opacity="0.1"/>
      <path id="Path_1604" data-name="Path 1604" d="M350.848,284.98l-4.161,69.9-5.426.356L327.21,314.7l2.305-48.118L330,256.42l6.248,5.131,3.085,2.528,2.413-6.141,4.486,3.91Z" transform="translate(-227.76 -169.641)" fill="#28a745"/>
      <path id="Path_1605" data-name="Path 1605" d="M363.87,659.163a7.671,7.671,0,0,0-.419,1.415,39.982,39.982,0,0,1-11.377-3.554l-.074-.039.025-.444.014-.232,1.379-2.57S364.532,657.545,363.87,659.163Z" transform="translate(-259.682 -468.759)" opacity="0.1"/>
      <path id="Path_1606" data-name="Path 1606" d="M422.3,671.757a27.922,27.922,0,0,1-3.05.347c-.061-1.379-.1-2.327-.1-2.327l3.066-.618Z" transform="translate(-306.846 -479.778)" opacity="0.1"/>
      <path id="Path_1607" data-name="Path 1607" d="M439.437,666a21.4,21.4,0,0,1-7.7.725l-.039-1.748,7.4-1.483S439.3,664.855,439.437,666Z" transform="translate(-315.467 -475.828)" opacity="0.1"/>
      <path id="Path_1608" data-name="Path 1608" d="M337.751,414.643c-11.3,1.93-21.659-3.6-21.659-3.6l.1-1.875s.256-21.256-.455-22.886-1.266-9.893-.863-11.161-1.47-20.288-1.47-20.288l-.3-7.72-11.1-4.5,4.963-10.345a37.343,37.343,0,0,0,1.726-4.467c.863-2.686,4.869-5.324,4.869-5.324s4.108-2.636,5.732-2.537,3.753-2.333,3.753-2.333c1.572-4.006,2.994-2.192,2.994-2.192a3.58,3.58,0,0,1-.077.593c-.551,4.4,8.917,18.295,9.052,18.54h0l.9,21.965.913,27.8Z" transform="translate(-224.184 -228.069)" opacity="0.1"/>
      <path id="Path_1609" data-name="Path 1609" d="M336.629,414.6c-11.3,1.93-21.661-3.6-21.661-3.6l.1-1.875s.256-21.256-.458-22.886-1.266-9.893-.86-11.162-1.47-20.288-1.47-20.288l-.306-7.72-11.106-4.514,4.963-10.345a37.929,37.929,0,0,0,1.726-4.467c.86-2.686,4.869-5.324,4.869-5.324s4.108-2.636,5.73-2.537,3.753-2.333,3.753-2.333c1.574-4.006,3.309-2.192,3.309-2.192,0,.19-.165.276-.077.593,1.213,4.266,8.614,18.295,8.749,18.54h0l.913,21.965.913,27.8Z" transform="translate(-223.398 -228.027)" fill="#fff"/>
      <path id="Path_1610" data-name="Path 1610" d="M392.154,336.79c-1.216-.507-7.657-7.861-7.657-7.861v-1.674c-.234-.552-1.627-.215-2.757.171l.485-10.166.551.458C383.984,321.98,392.014,336.544,392.154,336.79Z" transform="translate(-280.49 -236.284)" opacity="0.1"/>
      <path id="Path_1611" data-name="Path 1611" d="M393.257,334.58c-1.219-.507-7.66-7.861-7.66-7.861v-1.674c-.234-.551-1.627-.215-2.757.171l.488-10.166.551.458C385.09,319.77,393.122,334.337,393.257,334.58Z" transform="translate(-281.258 -234.766)" fill="#fff"/>
      <path id="Path_1612" data-name="Path 1612" d="M351.48,516.761c.152,0,7.861-.811,7.861-.811s4.668,9.179,4.362,11.412-.86,4.21-2.738,3.86-10.106.276-10.106.276Z" transform="translate(-258.86 -373.102)" opacity="0.1"/>
      <path id="Path_1613" data-name="Path 1613" d="M350.37,514.551c.152,0,7.861-.811,7.861-.811s4.665,9.182,4.362,11.412-.863,4.21-2.738,3.86-10.105.276-10.105.276Z" transform="translate(-258.085 -371.582)" fill="#fff"/>
      <path id="Path_1614" data-name="Path 1614" d="M362,501.05s7.075,3.8,7.227,4.963-3.6-.507-4.412-.709a10.092,10.092,0,0,0-1.624-.254l-5.407.146Z" transform="translate(-263.73 -363.64)" fill="#cf6f80"/>
      <circle id="Ellipse_350" data-name="Ellipse 350" cx="0.744" cy="0.744" r="0.744" transform="translate(109.394 100.976)" opacity="0.1"/>
      <circle id="Ellipse_351" data-name="Ellipse 351" cx="0.744" cy="0.744" r="0.744" transform="translate(109.394 100.635)" fill="#3f3d56"/>
      <circle id="Ellipse_352" data-name="Ellipse 352" cx="0.744" cy="0.744" r="0.744" transform="translate(110.889 137.205)" opacity="0.1"/>
      <circle id="Ellipse_353" data-name="Ellipse 353" cx="0.744" cy="0.744" r="0.744" transform="translate(110.889 136.861)" fill="#3f3d56"/>
      <circle id="Ellipse_354" data-name="Ellipse 354" cx="0.744" cy="0.744" r="0.744" transform="translate(110.203 119.091)" opacity="0.1"/>
      <circle id="Ellipse_355" data-name="Ellipse 355" cx="0.744" cy="0.744" r="0.744" transform="translate(110.203 118.75)" fill="#3f3d56"/>
      <path id="Path_1615" data-name="Path 1615" d="M440.791,372.94s.507.761,0,1.117.05,1.216.05,1.216-1.266.742-.709,1.409.2,3.681.2,3.681l-1.522,2.52s.091,1.624.1,3.819c0,3.425-.2,8.239-1.315,10.434l.154,18.008s-5.33,1.947-9.791,1.354l-.662-28.9s.965-16.387,1.321-19.53a32.73,32.73,0,0,0,.254-4.922,54.983,54.983,0,0,0-.662-7.2s-.551-9.89-.607-12.628c-.025-1.31.044-5.131.121-8.765.086-3.973.182-7.72.182-7.72L426.9,318.87s1.006-.1,1.31.3a2.908,2.908,0,0,0,.441.339h0c1.737,1.175,7.875,4.787,7.875,4.787s3.4,1.351,4.21,3.287a28.645,28.645,0,0,0,1.773,3.86,11.915,11.915,0,0,1,.609,3.143s1.169,4.77,2.082,5.578,1.58,5.947,1.58,5.947l-8.065,6.342s-.709,10.549-.86,10.957S440.791,372.94,440.791,372.94Z" transform="translate(-311.698 -230.937)" fill="#fff"/>
      <path id="Path_1616" data-name="Path 1616" d="M441.047,372.71s.5.761,0,1.117.047,1.216.047,1.216-1.257.75-.706,1.417.2,3.681.2,3.681l-1.522,2.52s.091,1.624.1,3.819c0,3.425-.2,8.239-1.315,10.434l.152,18.008s-5.338,1.947-9.794,1.354l-.659-28.9s.965-16.387,1.321-19.53a32.419,32.419,0,0,0,.251-4.922,55.33,55.33,0,0,0-.659-7.2s-.552-9.89-.609-12.628c-.025-1.31.047-5.131.121-8.765.085-3.973.182-7.72.182-7.72l-1.329-8.071s1.329,0,1.635.411a2.618,2.618,0,0,0,.441.339h0c1.737,1.175,7.878,4.787,7.878,4.787s3.394,1.351,4.208,3.287a28.189,28.189,0,0,0,1.776,3.86,11.775,11.775,0,0,1,.607,3.143s1.169,4.77,2.082,5.578,1.572,5.936,1.572,5.936l-8.065,6.342s-.709,10.549-.863,10.958S441.047,372.71,441.047,372.71Z" transform="translate(-311.638 -230.713)" fill="#fff"/>
      <path id="Path_1617" data-name="Path 1617" d="M432.192,330.538l.728,2.123-3.833,3.86c.086-3.971.182-7.72.182-7.72l-1.329-8.071s1.329,0,1.635.411a2.517,2.517,0,0,0,.441.336h0l3.259,9.4Z" transform="translate(-312.919 -238.851)" opacity="0.1"/>
      <path id="Path_1618" data-name="Path 1618" d="M431.082,328.328l.731,2.123-3.833,3.86c.086-3.973.182-7.72.182-7.72l-1.332-8.071s1.332,0,1.635.411a2.759,2.759,0,0,0,.441.339h0l3.262,9.4Z" transform="translate(-312.144 -237.331)" fill="#fff"/>
      <path id="Path_1619" data-name="Path 1619" d="M392.7,253.115a9.339,9.339,0,0,1-.463,2.926.394.394,0,0,1-.3-.074,12.172,12.172,0,0,0-2.8-6.794,7.137,7.137,0,0,0-1.517-1.572,2.967,2.967,0,0,0-2.057-.582c-.827.113-1.558.676-2.393.747-1.1.091-2.09-.673-3.185-.711a3.13,3.13,0,0,0-2.341,1.086,6.422,6.422,0,0,0-1.255,2.327,13.616,13.616,0,0,0-.7,4.015c-.014.772-.088,1.74-.805,2.021a4.119,4.119,0,0,0-1.04-3.146l-.017-.017v-.226a9.435,9.435,0,1,1,18.87,0Z" transform="translate(-274.716 -185.971)" opacity="0.1"/>
      <path id="Path_1620" data-name="Path 1620" d="M379.6,221.947a6.5,6.5,0,0,0-4.583-.358c-.764.226-1.483.593-2.258.778-1.654.4-3.584-.033-5,.935a5.985,5.985,0,0,0-1.7,2.269l-1.1,2.1a13.632,13.632,0,0,0-1.459,3.585,4.576,4.576,0,0,0,.7,3.7c.585.742,1.448,1.208,2.082,1.905A4.136,4.136,0,0,1,367.311,240c.72-.276.789-1.246.805-2.018a13.615,13.615,0,0,1,.7-4.015,6.4,6.4,0,0,1,1.255-2.327,3.135,3.135,0,0,1,2.341-1.086c1.1.039,2.093.8,3.185.709.827-.069,1.561-.634,2.393-.744a2.956,2.956,0,0,1,2.057.582,7.064,7.064,0,0,1,1.514,1.572,12.14,12.14,0,0,1,2.8,6.794c.312.229.761-.069.915-.422a10.074,10.074,0,0,1,.356-1.1,4.067,4.067,0,0,1,1-.888,3.9,3.9,0,0,0,1.042-3.124,15.564,15.564,0,0,1-.039-3.4c.13-.684.422-1.324.582-2a2.614,2.614,0,0,0-.2-2.016,3.4,3.4,0,0,0-2.724-1.1c-1.15-.1-2.178.028-2.912-.94a10.561,10.561,0,0,0-1.158-1.417C381.075,222.918,379.6,222.008,379.6,221.947Z" transform="translate(-267.242 -170.417)" fill="#512e4e"/>
      <path id="Path_1621" data-name="Path 1621" d="M303.554,420.457l-2.881-5.327-.913,8.219a38.106,38.106,0,0,1,.405,4.21c-.1.56,2.079,5.578,2.079,5.578s7.2,12.832,10.147,13.494l9.94-7.1-2.636-3.347s-.913-.356-1.142,0c0,0-4.894-8.421-5.4-9.03a3.041,3.041,0,0,1-.408-1.825s-.761-.811-.507-1.572-1.47-3.4-1.47-3.4l1.572-1.47Z" transform="translate(-222.96 -302.644)" opacity="0.1"/>
      <path id="Path_1622" data-name="Path 1622" d="M299.224,412.93l-.761.607-.913,8.219a38.093,38.093,0,0,1,.405,4.21c-.1.56,2.082,5.578,2.082,5.578s7.2,12.832,10.144,13.494l9.943-7.1-2.639-3.347s-.913-.356-1.141,0c0,0-4.894-8.421-5.4-9.03a3.032,3.032,0,0,1-.405-1.825s-.761-.811-.507-1.572-1.472-3.4-1.472-3.4l1.572-1.47Z" transform="translate(-221.419 -301.092)" fill="#fff"/>
      <path id="Path_1623" data-name="Path 1623" d="M459.78,516.811c.551.67.2,3.678.2,3.678l-1.522,2.52s.091,1.627.1,3.819l-2.559.8a1.519,1.519,0,0,1-1.971-1.5l.441-14.23,5.97,2.283c-.507.353.05,1.219.05,1.219S459.223,516.141,459.78,516.811Z" transform="translate(-331.109 -370.296)" opacity="0.1"/>
      <path id="Path_1624" data-name="Path 1624" d="M460.883,515.708c.552.67.2,3.681.2,3.681l-1.522,2.52s.091,1.624.1,3.819l-2.606.813a1.489,1.489,0,0,1-1.93-1.467l.444-14.274,5.972,2.283c-.51.353.047,1.216.047,1.216S460.331,515.041,460.883,515.708Z" transform="translate(-331.877 -369.539)" fill="#fff"/>
      <path id="Path_1625" data-name="Path 1625" d="M470.626,498.168s-.405,2.589-1.42,2.741-1.47,4.188-2.482,4.045-.342-3.753-.306-4.453-1.1-3.6-.251-4.26,3.549,0,3.549,0Z" transform="translate(-339.429 -359.854)" fill="#cf6f80"/>
      <path id="Path_1626" data-name="Path 1626" d="M470.05,421.55l1.914-3.86a25.062,25.062,0,0,1,.761,4.514c0,1.572,1.064,1.726,1.064,1.726s1.166,1.379.551,2.382a11.564,11.564,0,0,0-.863,3.5s.2,4.767-.711,5.426a3.693,3.693,0,0,0-1.1,2.233s-1.676,2.992-1.624,3.7-2.333,5.528-2.333,5.528,1.166-5.986-5.63-8.572c0,0-.052-2.032.455-2.589s1.3-.811.8-3.626a32.885,32.885,0,0,1-.143-6.855,43.17,43.17,0,0,1,1.522-4.889Z" transform="translate(-336.513 -304.587)" opacity="0.1"/>
      <path id="Path_1627" data-name="Path 1627" d="M472.391,415.69l1.671.551a24.978,24.978,0,0,1,.764,4.514c0,1.572,1.064,1.726,1.064,1.726s1.166,1.379.551,2.382a11.534,11.534,0,0,0-.86,3.5s.2,4.767-.711,5.426a3.743,3.743,0,0,0-1.117,2.233s-1.674,2.992-1.621,3.7-2.335,5.528-2.335,5.528,1.169-5.986-5.63-8.572c0,0-.05-2.032.458-2.589s1.3-.811.8-3.626a32.882,32.882,0,0,1-.143-6.855,43.164,43.164,0,0,1,1.522-4.889Z" transform="translate(-337.973 -303.175)" fill="#fff"/>
      <path id="Path_1628" data-name="Path 1628" d="M360.15,776.194s2.664-1.674,4.412-.458S360.15,776.194,360.15,776.194Z" transform="translate(-265.567 -551.08)" opacity="0.1"/>
      <path id="Path_1629" data-name="Path 1629" d="M435.21,759.751a5.392,5.392,0,0,1,4.337,1.828C441.527,763.71,435.21,759.751,435.21,759.751Z" transform="translate(-318.019 -539.812)" opacity="0.1"/>
      <g id="Group_2807" data-name="Group 2807" transform="translate(96.138 57.583)" opacity="0.1">
        <path id="Path_1630" data-name="Path 1630" d="M396.992,258.988a4.09,4.09,0,0,0-1,.891,10.09,10.09,0,0,0-.353,1.1c-.154.358-.6.651-.915.425a12.192,12.192,0,0,0-2.8-6.8,7.064,7.064,0,0,0-1.514-1.572,2.964,2.964,0,0,0-2.06-.582c-.827.113-1.555.676-2.391.744-1.1.094-2.093-.67-3.187-.709a3.121,3.121,0,0,0-2.338,1.089,6.385,6.385,0,0,0-1.255,2.324,13.63,13.63,0,0,0-.7,4.015c-.017.769-.088,1.729-.8,2.016a3.775,3.775,0,0,1,0,.612c.717-.276.789-1.246.805-2.018a13.616,13.616,0,0,1,.7-4.015,6.4,6.4,0,0,1,1.255-2.327,3.13,3.13,0,0,1,2.338-1.086c1.1.039,2.1.8,3.187.709.827-.069,1.561-.634,2.391-.744a2.964,2.964,0,0,1,2.06.582,7.065,7.065,0,0,1,1.514,1.572,12.16,12.16,0,0,1,2.8,6.794c.312.229.761-.069.915-.422a10.7,10.7,0,0,1,.353-1.1,4.08,4.08,0,0,1,1-.888,3.9,3.9,0,0,0,1.042-3.124v-.1A3.62,3.62,0,0,1,396.992,258.988Z" transform="translate(-373.738 -249.922)"/>
        <path id="Path_1631" data-name="Path 1631" d="M366.284,264.541c-.634-.7-1.5-1.164-2.082-1.9a4.037,4.037,0,0,1-.8-2.258,4.246,4.246,0,0,0,.8,2.865c.582.742,1.448,1.208,2.082,1.905a4.136,4.136,0,0,1,1.04,2.46,4.136,4.136,0,0,0-1.039-3.069Z" transform="translate(-363.385 -255.671)"/>
        <path id="Path_1632" data-name="Path 1632" d="M451.692,243.846c-.163.676-.452,1.318-.585,2a6.368,6.368,0,0,0-.085,1.379,5.354,5.354,0,0,1,.085-.783c.132-.684.422-1.324.585-2a3.4,3.4,0,0,0,.091-1.142A3.843,3.843,0,0,1,451.692,243.846Z" transform="translate(-426.853 -243.3)"/>
      </g>
      <ellipse id="Ellipse_356" data-name="Ellipse 356" cx="26.867" cy="4.315" rx="26.867" ry="4.315" transform="translate(10.078 227.695)" fill="#28a745" opacity="0.1"/>
      <rect id="Rectangle_1688" data-name="Rectangle 1688" width="1.729" height="38.925" transform="translate(36.082 141.199)" fill="#535461"/>
      <path id="Path_1633" data-name="Path 1633" d="M160.9,637.571l-.108,1.754-.154,2.482-.063,1.031-.152,2.482-.066,1.031-.154,2.482-1.743,28.144a4.77,4.77,0,0,1-4.759,4.472h-9.06a4.767,4.767,0,0,1-4.756-4.472l-1.734-28.163L138,646.331l-.063-1.031-.154-2.482-.063-1.031-.154-2.482-.11-1.754a2.482,2.482,0,0,1,2.482-2.622h18.532a2.465,2.465,0,0,1,2.437,2.641Z" transform="translate(-112.226 -449.418)" fill="#3f3d56"/>
      <path id="Path_1634" data-name="Path 1634" d="M113.824,592.24l-.154,2.473H90.734l-.154-2.473Z" transform="translate(-65.257 -408.577)" fill="#9d9cb5"/>
      <path id="Path_1635" data-name="Path 1635" d="M114.178,604.95l-.152,2.476h-22.5l-.154-2.476Z" transform="translate(-65.829 -417.345)" fill="#9d9cb5"/>
      <path id="Path_1636" data-name="Path 1636" d="M114.533,617.68l-.152,2.473H92.314l-.154-2.473Z" transform="translate(-66.401 -426.127)" fill="#9d9cb5"/>
      <path id="Path_1637" data-name="Path 1637" d="M69.946,536.458c10.067,7.285,14.269,18.678,14.269,18.678s-12.132-.416-22.2-7.7S47.75,528.76,47.75,528.76,59.877,529.174,69.946,536.458Z" transform="translate(-47.262 -380.926)" fill="#28a745"/>
      <path id="Path_1638" data-name="Path 1638" d="M47.72,528.76s12.6,6.99,16.635,12.777,19.839,13.6,19.839,13.6" transform="translate(-47.24 -380.926)" fill="none" stroke="#535461" stroke-miterlimit="10" stroke-width="2"/>
      <path id="Path_1639" data-name="Path 1639" d="M120.082,492.451a24.481,24.481,0,0,1,7.77,10.163A22.191,22.191,0,0,1,108,488.26,24.413,24.413,0,0,1,120.082,492.451Z" transform="translate(-90.899 -354.155)" fill="#28a745"/>
      <path id="Path_1640" data-name="Path 1640" d="M108,488.26s6.855,3.805,9.052,6.954,10.8,7.4,10.8,7.4" transform="translate(-90.899 -354.155)" fill="none" stroke="#535461" stroke-miterlimit="10" stroke-width="2"/>
      <path id="Path_1641" data-name="Path 1641" d="M188.817,515.279a33.768,33.768,0,0,0-7.627,15.959,30.691,30.691,0,0,0,22.792-25.058A33.8,33.8,0,0,0,188.817,515.279Z" transform="translate(-143.908 -365.566)" fill="#28a745"/>
      <path id="Path_1642" data-name="Path 1642" d="M203.987,506.19s-8.2,7.092-10.285,11.978-12.513,13.078-12.513,13.078" transform="translate(-143.908 -365.573)" fill="none" stroke="#535461" stroke-miterlimit="10" stroke-width="2"/>
      <path id="Path_1643" data-name="Path 1643" d="M884.355,337.217s-4.552-22.648-2.81-25.466c0,0,.063-2.619-.041-5.958v-.383a8.474,8.474,0,0,0,.957.551,7.742,7.742,0,0,0,5.211.673l-1.379-1.536a2.546,2.546,0,0,1-.747-1.249,2.617,2.617,0,0,1,.3-1.351c1.31-3.309,1.379-7.469-1.144-10-2.131-2.123-2.65-4.864-4.963-6.8a14.337,14.337,0,0,1-3.5-5.515,31.01,31.01,0,0,1-1.914-5.22c-.331-1.409-.463-2.868-.918-4.243a5.4,5.4,0,0,0-2.639-3.328,9.954,9.954,0,0,1-1.434-.631,6.194,6.194,0,0,1-1.321-1.552c-2.087-2.757-9.077-1.133-12.386-.014a6.968,6.968,0,0,0-2.448,1.357l.03-.05c.025-.041.055-.083.083-.124a4.349,4.349,0,0,0-.926,1.034,24.775,24.775,0,0,0-1.086,2.482c-.485.979-3.185,3.711-2.024,4.811a.979.979,0,0,0,.276.176,2.384,2.384,0,0,0,1.379.138l-.05.119a8.059,8.059,0,0,0-.6,3.058,8.276,8.276,0,0,0,8.349,8.2,8.429,8.429,0,0,0,2.556-.394c.019.1.036.21.055.314a.946.946,0,0,0,.019.124h0l-.146.2a.285.285,0,0,0-.025-.036l-4.329,6.05c-.662.466-4.472,3.223-4.687,5.291-.226,2.264-.452,4.914-.452,4.914l-.03.568a1.7,1.7,0,0,1-1.379.372c-1.351-.221-1.351,4.963-1.351,4.963s-.9.827-1.516.11-2.25,1.712-2.25,1.712l-10.229.441h0l-.234.014-.552-1.707a.72.72,0,0,0-.9-.46.825.825,0,0,0-.124.052l-.039.022-.072.05-.036.033a.558.558,0,0,0-.055.058l-.033.039-.017.017h0a.7.7,0,0,0-.1.618l.474,1.464c-1.974.4-3.993,1.517-2.346,4.6l-8.344-1.541,2.7,2.266,13.935,2.876c-.185.331-.063.811.513,1.486,2.482,2.914,7,3.706,8.823,3.91a15.665,15.665,0,0,0,1.79,3.033l-.157,2.9s-4.607,22.13-5.451,23.252a13.124,13.124,0,0,0,1.166-1.536c-1.337,4.547-3.207,10.77-3.7,11.7-.789,1.489-1.519,7.514-.62,7.9a7.564,7.564,0,0,0,2.189-.025v.5l-.05,18.912s.226,11.6-.394,12.706a10.816,10.816,0,0,0-.786,3.425s-2.482,4.574-4.448,6.413a.29.29,0,0,1-.044.039l-.061-.43s-2.363,2.983-7.591,2.815c0,0-3.146,2.046,1.519,2.156s10.624-.165,10.624-.165,4.161-6.342,7.646-5.515v4.806h1.067v-4.883a4.376,4.376,0,0,0,1.9-2.876,3.5,3.5,0,0,0-1.246-3.234,2.067,2.067,0,0,1-.681-1.511l-.039.033a2.926,2.926,0,0,0-.036-.3c-.306-2.482-.689-7.6.664-11.39,1.856-5.195,2.418-12.43,1.067-16.737a38.515,38.515,0,0,1-1.073-4.194c-.033-.179-.063-.35-.091-.51a21.737,21.737,0,0,1,2.738.551c3.13.863,9.976,1.023,15.821.976.014.16.03.328.05.5a18.06,18.06,0,0,0,.651,3.452c.733,2.206,1.07,11.931,1.07,11.931s.946,8,.43,11.25c-.276,1.809-.551,3.626-.709,5.451v.036s-1.55,4.412-2.683,6.808c-.027.061-.058.121-.085.179a3.583,3.583,0,0,0-.885.2s-1.519,3.033-3.033,3.535-1.012,2.153,2.415,1.547,8.6-1.1,8.6-1.1l.223-3.094,1.053-1.318-.276,3.085,1.122-.221-.149-3.753,1.723-2.156s2.082-1.853-1.012-5.5v.08c-.033-.052-.063-.107-.1-.16v-.017c-.513-.794-.921-2.275-.174-4.9,1.351-4.748,2.137-9.058,2.137-9.058s3.016-11.545-.609-17.007h.16a9.188,9.188,0,0,1-.78-2.426q-.027-.149-.05-.306a19.9,19.9,0,0,0,7.464-1.687C886.718,368.976,885.424,341.579,884.355,337.217Zm-34.061-19.108v.055l-.552.028Zm-1.892.262a.61.61,0,0,0-.248.119,2.449,2.449,0,0,0-.433,1.133l-.86-.193s-.6-.13-1.472-.276l-.411-.414C846.108,318.647,847.283,318.509,848.4,318.371Z" transform="translate(-580.675 -180.542)" fill="url(#linear-gradient-2)"/>
      <path id="Path_1644" data-name="Path 1644" d="M971.648,742.081l-.328,3.907,1.1-.221-.165-4.238Z" transform="translate(-675.458 -510.46)" fill="#1d2366"/>
      <path id="Path_1645" data-name="Path 1645" d="M889.315,673.44c-1.326,3.777-.951,8.876-.654,11.352.11.915.212,1.472.212,1.472s-1.983,4.516-2.148,4.687-5.834,3.631-5.834,3.631l-3.962,2.313s-4.02-1.762-2.093-2.369a2.925,2.925,0,0,0,1.04-.709c1.93-1.834,4.354-6.391,4.354-6.391a10.989,10.989,0,0,1,.772-3.414c.607-1.1.386-12.661.386-12.661l.047-18.846V650.05l7.541.055a17.052,17.052,0,0,0,.325,2.482,37.957,37.957,0,0,0,1.051,4.18C891.681,661.065,891.129,668.265,889.315,673.44Z" transform="translate(-623.985 -460.369)" fill="#ffb0b1"/>
      <path id="Path_1646" data-name="Path 1646" d="M888.874,777.537s-1.983,4.516-2.148,4.687-5.834,3.631-5.834,3.631l-3.962,2.313s-4.02-1.762-2.093-2.369a2.925,2.925,0,0,0,1.04-.709l.171,1.2,1.321-.055,11.3-10.172C888.772,776.98,888.874,777.537,888.874,777.537Z" transform="translate(-624.152 -551.642)" opacity="0.1"/>
      <path id="Path_1647" data-name="Path 1647" d="M870.338,777,858.97,787.241l-1.321.055-.276-1.93s-2.311,2.972-7.445,2.807c0,0-3.083,2.038,1.486,2.148s10.4-.165,10.4-.165,4.075-6.342,7.486-5.515v4.789h1.048V784.6a4.354,4.354,0,0,0,1.858-2.868,3.513,3.513,0,0,0-1.216-3.22,2.076,2.076,0,0,1-.656-1.508Z" transform="translate(-605.765 -552.315)" fill="#1d2366"/>
      <path id="Path_1648" data-name="Path 1648" d="M996.654,678.79c-.733,2.619-.334,4.095.168,4.886v.016a9.029,9.029,0,0,1,1.318,3.218l.044.248-5.173,7.541-2.807,1.1s-4.514-1.541-3.689-1.983a4.225,4.225,0,0,0,.9-1.472c1.1-2.385,2.625-6.786,2.625-6.786v-.036c.16-1.817.414-3.629.695-5.432.5-3.245-.422-11.211-.422-11.211s-.331-9.686-1.048-11.89a18.181,18.181,0,0,1-.642-3.43c-.149-1.379-.182-2.515-.182-2.515s2.972-4.136,8.421.331A5.991,5.991,0,0,1,998,652.615c3.764,5.355.733,17.15.733,17.15S997.975,674.056,996.654,678.79Z" transform="translate(-699.416 -459.83)" fill="#ffb0b1"/>
      <path id="Path_1649" data-name="Path 1649" d="M998.215,777.269l-5.173,7.541-2.807,1.1s-4.514-1.541-3.689-1.982a4.226,4.226,0,0,0,.9-1.472,3.568,3.568,0,0,1,2.9,1.8l2.421-.386s3.193-6.276,3.91-6.659.11-2.865.11-2.865v-.631c.019.022.036.047.058.069v.017a9.029,9.029,0,0,1,1.318,3.218Z" transform="translate(-699.438 -549.94)" opacity="0.1"/>
      <path id="Path_1650" data-name="Path 1650" d="M980.736,784.844a3.37,3.37,0,0,0-4.02-1.6s-1.486,3.033-2.972,3.524-.99,2.145,2.368,1.541,8.421-1.1,8.421-1.1l.22-3.085,3.414-4.348s2.035-1.845-.993-5.476v.631s.607,2.482-.11,2.865-3.9,6.662-3.9,6.662Z" transform="translate(-689.663 -550.36)" fill="#1d2366"/>
      <path id="Path_1651" data-name="Path 1651" d="M907.689,650.085a17.05,17.05,0,0,0,.325,2.482,34.59,34.59,0,0,0-7.875-.08V650.03Z" transform="translate(-642.684 -466.621)" opacity="0.1"/>
      <path id="Path_1652" data-name="Path 1652" d="M1003.655,653.295s-4.412.215-9.673.259c-.149-1.379-.182-2.515-.182-2.515s2.972-4.136,8.421.331a6,6,0,0,1,1.139,1.235A6.736,6.736,0,0,0,1003.655,653.295Z" transform="translate(-704.765 -465.949)" opacity="0.1"/>
      <path id="Path_1653" data-name="Path 1653" d="M929.134,525.931s-19.323.935-25.213-.717-11.727-.221-12.606-.6-.166-6.386.607-7.872,5.007-16.516,5.007-16.516L901,478.975l4.293-1.183.3-.085,7.481-2.062,5.482-1.514s10.9,42.553,9.965,45.691a8.035,8.035,0,0,0-.16,3.692A9.216,9.216,0,0,0,929.134,525.931Z" transform="translate(-630.244 -340.95)" fill="#1d2366"/>
      <path id="Path_1654" data-name="Path 1654" d="M870.664,439s-3.86,4.136-.937,6.441,4.845.221,4.845.221Z" transform="translate(-620.812 -320.725)" fill="#c7daf5"/>
      <path id="Path_1655" data-name="Path 1655" d="M870.664,439s-3.86,4.136-.937,6.441,4.845.221,4.845.221Z" transform="translate(-620.812 -320.725)" opacity="0.1"/>
      <path id="Path_1656" data-name="Path 1656" d="M967.418,320.577s-.452.43-1.133,1.064c-.971.907-2.407,2.233-3.681,3.345-1.765,1.536-3.221,2.664-2.7,1.7s.422-2.639.163-4.208c-.019-.1-.036-.21-.055-.312a28.906,28.906,0,0,0-.852-3.408,58.964,58.964,0,0,1,4.428-5.137c.587-.551,1-.778,1.023-.394a12.807,12.807,0,0,0,.893,2.862c.014.039.028.074.044.113.32.827.681,1.676,1,2.41C967.032,319.739,967.418,320.577,967.418,320.577Z" transform="translate(-679.676 -233.645)" fill="#ffb0b1"/>
      <path id="Path_1657" data-name="Path 1657" d="M965.549,316.213a8.184,8.184,0,0,1-5.482,6.276,28.728,28.728,0,0,0-.907-3.72s5.368-6.935,5.451-5.531A13.115,13.115,0,0,0,965.549,316.213Z" transform="translate(-679.676 -233.857)" opacity="0.1"/>
      <path id="Path_1658" data-name="Path 1658" d="M933.393,351.429l.695-.979s.46,2.807,2.153,1.569,1.776,9.317,1.776,9.317L936.2,388.5l-13.13-.786.372-13.128,1.486-6.617,3.676-9.62,2.187-3.179Z" transform="translate(-658.151 -257.945)" opacity="0.1"/>
      <path id="Path_1659" data-name="Path 1659" d="M938.039,361.91l-1.654,24.565-.174,2.6-7.321-.438-.276-.017-5.515-.331.372-13.13,1.486-6.617,3.676-9.62,2.187-3.179,2.6-3.758.695-.976s.46,2.807,2.153,1.569l.036-.025h0C937.962,351.506,938.039,361.91,938.039,361.91Z" transform="translate(-658.172 -258.327)" fill="#1d2366"/>
      <path id="Path_1660" data-name="Path 1660" d="M885.815,406.26a2.009,2.009,0,0,1-1.983,1.155c-1.323-.223-1.321,4.963-1.321,4.963s-.88.827-1.486.11-2.206,1.707-2.206,1.707l-10.02.441s4.458,2.038,3.584,8.2c0,0,15.138-.937,15.634-2.368S885.815,406.26,885.815,406.26Z" transform="translate(-619.947 -297.61)" fill="#fff"/>
      <path id="Path_1661" data-name="Path 1661" d="M885.815,406.26a2.009,2.009,0,0,1-1.983,1.155c-1.323-.223-1.321,4.963-1.321,4.963s-.88.827-1.486.11-2.206,1.707-2.206,1.707l-10.02.441s4.458,2.038,3.584,8.2c0,0,15.138-.937,15.634-2.368S885.815,406.26,885.815,406.26Z" transform="translate(-619.947 -297.61)" opacity="0.03"/>
      <path id="Path_1662" data-name="Path 1662" d="M777.66,389.76l2.641,2.255,21.744,4.569-2.7-2.752Z" transform="translate(-541.707 -268.612)" fill="#fff"/>
      <path id="Path_1663" data-name="Path 1663" d="M919.311,350.378a55.6,55.6,0,0,0-2.258,5.84c-.72,2.054-1.321,3.86-1.321,3.86s-1.4,9.138-2.12,10.789-.328,8.093-.328,8.093l-2.672,15.907s-1.211,8.2-3.08,13.1a23.859,23.859,0,0,1-3.962,7.155c.827-1.12,5.335-23.161,5.335-23.161l1.489-27.8s.218-2.642.438-4.9,4.687-5.341,4.687-5.341l4.307-6.124C920.26,348.379,919.97,349.388,919.311,350.378Z" transform="translate(-644.423 -253.783)" fill="#fff"/>
      <path id="Path_1664" data-name="Path 1664" d="M893.685,470.7s-6.342-.276-9.413-3.965,7.1-1.472,7.1-1.472l2.644.607Z" transform="translate(-631.016 -338.465)" fill="#ffb0b1"/>
      <path id="Path_1665" data-name="Path 1665" d="M966.32,434.58a8.035,8.035,0,0,0-.16,3.692,52.56,52.56,0,0,1-14.319-1.379,32.169,32.169,0,0,1-5.01,3.138l-1.98-24.54c-1.266-3.309-1.762-20.644-1.762-20.644s.113-.907.276-2.267a.261.261,0,0,1,.014-.1c.494-3.8,1.472-10.924,1.952-11.887.662-1.323-2.035-4.845-2.035-4.845l1.227-10.464.149-1.263c2.586-1.155,4.569-4.845,4.569-4.845l1.522-2.666h0c1.654-1.062,1.74,9.342,1.74,9.342l-1.654,24.565,5.482-1.514S967.255,431.442,966.32,434.58Z" transform="translate(-668.037 -257.798)" opacity="0.1"/>
      <path id="Path_1666" data-name="Path 1666" d="M974.289,419.014c-7.541,3.744-21.248.276-21.248.276a32.166,32.166,0,0,1-5.01,3.138l-1.982-24.54c-1.263-3.309-1.759-20.644-1.759-20.644s1.594-12.935,2.255-14.255a2.124,2.124,0,0,0-.13-1.577,19.956,19.956,0,0,1-1.208-9.234l.529-4.5.146-1.26c2.589-1.158,4.572-4.847,4.572-4.847l1.379-2.415,2.537-4.45,1.2-2.107.2.185,1.558,1.412,1.654,1.379c2.159,1.82,5.89,5.024,7.814,6.984,1.693,1.726,2.228,8.44,2.382,13.494.1,3.328.041,5.936.041,5.936-1.707,2.81,2.757,25.367,2.757,25.367C973.024,391.716,974.289,419.014,974.289,419.014Z" transform="translate(-668.906 -241.107)" fill="#fff"/>
      <path id="Path_1667" data-name="Path 1667" d="M939.637,363.918s-5.176,9.852-4.574,13.6,2.311,7.982,1.486,8.972a3.047,3.047,0,0,1-2.424,1.21,7.968,7.968,0,0,0-3.033,1.762c0,.165-2.038.165-3.86.937a24.035,24.035,0,0,1-4.514,1.21s-5.239-.165-5.727.331-.99,3.466.055,5.834,2.206,4.136,3.083,4.459,6.441-1.541,10.955-1.983,9.414-4.017,9.414-4.017,5.4-1.93,6.342-5.175-1.155-21.082-1.155-21.082S944.1,361.66,939.637,363.918Z" transform="translate(-648.73 -266.83)" opacity="0.03"/>
      <path id="Path_1668" data-name="Path 1668" d="M937.258,360.92s-5.176,9.855-4.569,13.6,2.311,7.982,1.483,8.975a3.033,3.033,0,0,1-2.421,1.21,7.966,7.966,0,0,0-3.033,1.762c0,.165-2.038.165-3.86.935a24.276,24.276,0,0,1-4.514,1.21s-5.239-.165-5.724.331-.993,3.469.055,5.834,2.206,4.136,3.083,4.459,6.441-1.541,10.955-1.98,9.413-4.02,9.413-4.02,5.393-1.93,6.328-5.173-1.155-21.085-1.155-21.085S941.717,358.665,937.258,360.92Z" transform="translate(-647.013 -264.783)" opacity="0.03"/>
      <path id="Path_1669" data-name="Path 1669" d="M939.062,362.128s-5.175,9.855-4.569,13.6,2.311,7.982,1.486,8.972a3.033,3.033,0,0,1-2.424,1.213,8,8,0,0,0-3.033,1.759,28.366,28.366,0,0,0-3.86.937,24.086,24.086,0,0,1-4.514,1.21s-5.239-.165-5.727.331-.99,3.469.055,5.834,2.206,4.136,3.083,4.459,6.441-1.541,10.955-1.982,9.413-4.017,9.413-4.017,5.4-1.93,6.342-5.175-1.141-21.082-1.141-21.082S943.518,359.884,939.062,362.128Z" transform="translate(-648.317 -265.61)" fill="#fff"/>
      <path id="Path_1670" data-name="Path 1670" d="M991.708,458.354s-4.136-.827-2.7.551,1.431,2.586,3.193,2.531S991.708,458.354,991.708,458.354Z" transform="translate(-701.076 -334.169)" opacity="0.1"/>
      <path id="Path_1671" data-name="Path 1671" d="M1023.657,566.58s-1.87,1.266,1.707,4.183S1023.657,566.58,1023.657,566.58Z" transform="translate(-726.035 -408.857)" opacity="0.1"/>
      <path id="Path_1672" data-name="Path 1672" d="M1011.789,604.31c0,.166-.662,6.066,1.814,7.541S1011.789,604.31,1011.789,604.31Z" transform="translate(-717.735 -434.614)" opacity="0.1"/>
      <path id="Path_1673" data-name="Path 1673" d="M857.076,436.59c-2,.069-6.309.678-4.073,4.85,1.977,3.692,5.3,1.224,7.169-.648A7.045,7.045,0,0,0,857.076,436.59Z" transform="translate(-609.324 -319.113)" fill="#ffb0b1"/>
      <path id="Path_1674" data-name="Path 1674" d="M881.39,451Z" transform="translate(-630.141 -329.476)" fill="#ffb0b1"/>
      <path id="Path_1675" data-name="Path 1675" d="M880.74,451.485l.083-.085Z" transform="translate(-629.681 -329.747)" fill="#ffb0b1"/>
      <path id="Path_1676" data-name="Path 1676" d="M962.792,336.171c-2.118,1.448-3.893,2.669-4.241,2.923-.949.7-2.757,4.831-3.924,6.937-.929,1.7-3.948,2.131-5.087,2.239l.146-1.26c2.589-1.158,4.572-4.847,4.572-4.847l5.118-8.972,1.762,1.6Z" transform="translate(-672.708 -247.454)" opacity="0.1"/>
      <path id="Path_1677" data-name="Path 1677" d="M962.792,335.571c-2.118,1.448-3.893,2.669-4.241,2.925-.949.7-2.757,4.828-3.924,6.935-.929,1.7-3.948,2.131-5.087,2.239l.146-1.26c2.589-1.158,4.572-4.847,4.572-4.847l5.118-8.972,1.762,1.6S961.8,334.732,962.792,335.571Z" transform="translate(-672.708 -247.041)" fill="#dce7ff"/>
      <path id="Path_1678" data-name="Path 1678" d="M939.853,296.44a8.178,8.178,0,1,1-6.952-8.084A8.163,8.163,0,0,1,939.853,296.44Z" transform="translate(-658.335 -216.503)" fill="#ffb0b1"/>
      <path id="Path_1679" data-name="Path 1679" d="M955.685,323.944a7.269,7.269,0,0,1-2.639-2.834,7.464,7.464,0,0,0-1.552-2.606,6.894,6.894,0,0,0-2.537-.979A7.436,7.436,0,0,1,943.534,311c-.044-1.423.4-2.843.2-4.252a4.709,4.709,0,0,0-.921-2.192,7.55,7.55,0,0,0-.8-.857c-.386-.364-.791-.717-1.144-1.1a4.287,4.287,0,0,1-.579-.786,3.786,3.786,0,0,1-.317-.731c-.552-1.687-.05-3.689-.656-5.4l-.033-.094a1.755,1.755,0,0,0-1.343-1.26c-.648-.047-1.2.491-1.82.731-1.293.5-2.688-.353-3.766-1.224s-2.294-1.867-3.664-1.674a11.837,11.837,0,0,0-2.459,1.067,3.443,3.443,0,0,1-.582.168,8.175,8.175,0,0,1,15.763,3.047,8.094,8.094,0,0,1-.179,1.707c.014.039.028.074.044.113.32.827.681,1.676,1,2.41l1.558,1.412,1.654,1.379c2.159,1.82,5.89,5.024,7.814,6.984C955,312.178,955.525,318.889,955.685,323.944Z" transform="translate(-655.406 -215.596)" opacity="0.1"/>
      <path id="Path_1680" data-name="Path 1680" d="M921.465,271.706c.394-.8.59-1.7,1.062-2.462a5.866,5.866,0,0,1,3.141-2.236c3.24-1.117,10.086-2.738,12.132,0a5.97,5.97,0,0,0,1.293,1.544,9.605,9.605,0,0,0,1.4.631,5.363,5.363,0,0,1,2.581,3.309c.444,1.362.576,2.823.9,4.227a31.089,31.089,0,0,0,1.875,5.2,14.329,14.329,0,0,0,3.422,5.493c2.258,1.93,2.757,4.663,4.853,6.78,2.482,2.515,2.4,6.664,1.122,9.959a2.734,2.734,0,0,0-.292,1.346,2.638,2.638,0,0,0,.731,1.246l1.357,1.53a7.628,7.628,0,0,1-8.335-3.844,7.453,7.453,0,0,0-1.555-2.606,6.876,6.876,0,0,0-2.534-.976,7.446,7.446,0,0,1-5.424-6.532c-.044-1.42.4-2.84.2-4.246a4.69,4.69,0,0,0-.924-2.206c-.758-.99-1.9-1.654-2.52-2.757-1.045-1.845-.251-4.241-1-6.22a1.759,1.759,0,0,0-1.343-1.26c-.648-.047-1.2.491-1.823.731-1.29.5-2.686-.35-3.764-1.224s-2.294-1.867-3.667-1.671a11.528,11.528,0,0,0-2.457,1.067c-.618.237-1.869.449-2.41-.072C918.344,275.409,920.988,272.688,921.465,271.706Z" transform="translate(-650.736 -199.685)" fill="#591d4b"/>
      <path id="Path_1681" data-name="Path 1681" d="M949.32,310.567a7.462,7.462,0,0,0-1.555-2.6,6.877,6.877,0,0,0-2.537-.979,7.447,7.447,0,0,1-5.424-6.529c-.044-1.42.4-2.843.2-4.249a4.716,4.716,0,0,0-.924-2.192c-.761-.99-1.905-1.654-2.52-2.757-1.045-1.842-.251-4.238-1.006-6.22a1.765,1.765,0,0,0-1.34-1.26c-.645-.05-1.2.494-1.823.733-1.29.5-2.688-.353-3.764-1.224s-2.3-1.867-3.667-1.674a11.752,11.752,0,0,0-2.457,1.067c-.618.237-1.872.452-2.413-.069-1.136-1.1,1.508-3.819,1.982-4.795a26.409,26.409,0,0,1,1.064-2.462c.025-.041.052-.083.08-.124a4.376,4.376,0,0,0-.907,1.031c-.472.761-.667,1.654-1.062,2.462-.477.976-3.121,3.7-1.982,4.795.552.524,1.792.309,2.41.072a11.346,11.346,0,0,1,2.457-1.067c1.379-.2,2.592.8,3.667,1.671s2.482,1.726,3.766,1.224c.618-.24,1.158-.78,1.82-.731a1.756,1.756,0,0,1,1.343,1.26c.753,1.98-.041,4.376,1,6.22.618,1.084,1.762,1.762,2.52,2.757a4.686,4.686,0,0,1,.924,2.206c.2,1.406-.243,2.826-.2,4.246a7.434,7.434,0,0,0,5.424,6.532,6.913,6.913,0,0,1,2.534.976,7.293,7.293,0,0,1,1.555,2.606,7.628,7.628,0,0,0,8.335,3.844l-.64-.722A7.711,7.711,0,0,1,949.32,310.567Z" transform="translate(-650.579 -206.456)" opacity="0.1"/>
      <path id="Path_1682" data-name="Path 1682" d="M950.08,350.906a55.616,55.616,0,0,0-2.258,5.84c-.808-.314-1.541-2.319-1.541-2.319l4.307-6.127C951.028,348.907,950.738,349.913,950.08,350.906Z" transform="translate(-670.347 -258.184)" opacity="0.1"/>
      <path id="Path_1683" data-name="Path 1683" d="M950.68,350.313a55.6,55.6,0,0,0-2.258,5.84c-.808-.312-1.541-2.319-1.541-2.319l4.307-6.124C951.628,348.314,951.339,349.323,950.68,350.313Z" transform="translate(-670.782 -257.778)" fill="#dce7ff"/>
      <path id="Path_1684" data-name="Path 1684" d="M863.48,437.121l-2.388-7.53a.7.7,0,0,1,.458-.885h0a.706.706,0,0,1,.882.458l2.388,7.522-.237,1.574Z" transform="translate(-615.67 -313.479)" fill="#be8b87"/>
      <path id="Path_1685" data-name="Path 1685" d="M861.616,428.958h0a.706.706,0,0,1,.885.458l2.388,7.522-.179,1.18.174.182.237-1.574-2.4-7.522a.706.706,0,0,0-.882-.458h0a.706.706,0,0,0-.367.276A.956.956,0,0,1,861.616,428.958Z" transform="translate(-615.965 -313.507)" fill="#fff" opacity="0.1"/>
      <path id="Path_1686" data-name="Path 1686" d="M822.6,399.565l1.34-.425-.2,1.29-.041.284-.392-.408Z" transform="translate(-574.734 -275.419)" fill="#efc8c4"/>
      <path id="Path_1687" data-name="Path 1687" d="M872.42,461.762a.275.275,0,0,1,.085-.072.121.121,0,0,1,.13,0,.343.343,0,0,1,.047.074.237.237,0,0,0,.171.113l-.041.276Z" transform="translate(-623.84 -336.812)" fill="#727a9c"/>
      <path id="Path_1688" data-name="Path 1688" d="M861.13,441.7s4.789-.028,3.662,2.01a4.308,4.308,0,0,1-2.89,2.283Z" transform="translate(-615.715 -322.792)" fill="#ffb0b1"/>
      <path id="Path_1689" data-name="Path 1689" d="M587.6,110.05h-.207a23.584,23.584,0,0,0-19.69,10.778,23.584,23.584,0,0,0-19.69-10.778H547.8a23.437,23.437,0,0,0-23.214,23.423c0,7.668,3.358,18.548,9.907,27.5,12.477,17.059,33.2,31.985,33.2,31.985s20.727-14.922,33.2-31.985c6.551-8.953,9.907-19.833,9.907-27.5A23.437,23.437,0,0,0,587.6,110.05Zm-2.959,52.237a4.646,4.646,0,0,1-4.321-2.983H575.4a1.555,1.555,0,0,1-1.464-1.059l-1.511-4.552L567.642,170.4a1.547,1.547,0,0,1-1.483,1.117h-.1a1.527,1.527,0,0,1-1.434-1.279L559.7,140.6l-3.6,17.536a1.536,1.536,0,0,1-1.492,1.166H547.68a1.541,1.541,0,1,1,0-3.08H553.4l5.1-23.578a1.547,1.547,0,0,1,3.033.127L566.562,163l4.285-14.947a1.517,1.517,0,0,1,1.442-1.1h.03a1.539,1.539,0,0,1,1.461,1.059l2.732,8.219h3.744a4.621,4.621,0,1,1,4.39,6.066Z" transform="translate(-375.946 -95.877)" fill="#28a745"/>
    </g>
  </g>
</svg>
