<svg xmlns="http://www.w3.org/2000/svg" xmlns:xlink="http://www.w3.org/1999/xlink" width="332.5" height="265.144" viewBox="0 0 332.5 265.144">
  <defs>
    <linearGradient id="linear-gradient" x1="0.5" y1="1" x2="0.5" gradientUnits="objectBoundingBox">
      <stop offset="0" stop-color="gray" stop-opacity="0.251"/>
      <stop offset="0.54" stop-color="gray" stop-opacity="0.122"/>
      <stop offset="1" stop-color="gray" stop-opacity="0.102"/>
    </linearGradient>
    <linearGradient id="linear-gradient-2" x1="0.5" y1="1" x2="0.5" y2="0" xlink:href="#linear-gradient"/>
  </defs>
  <g id="Group_2825" data-name="Group 2825" transform="translate(-21.5 -164)">
    <g id="Group_2813" data-name="Group 2813" transform="translate(0 31.114)">
      <path id="Path_1690" data-name="Path 1690" d="M250.128,114.449c-21.316-.759-41.634-7.814-61.006-15.531s-38.573-16.269-59.39-20.358c-13.384-2.633-28.691-3-39.473,4.353-10.378,7.077-13.73,19.294-15.533,30.629-1.356,8.53-2.143,17.505,1.564,25.492,2.581,5.542,7.16,10.2,10.329,15.512,11.021,18.475,3.23,41.259-8.716,59.313-5.6,8.473-12.1,16.535-16.424,25.545s-6.325,19.332-2.541,28.52c3.75,9.1,12.683,15.949,22.363,20.76,19.66,9.763,42.825,12.556,65.415,14.157,50,3.505,100.277,1.987,150.413.468,18.555-.565,37.192-1.133,55.444-4.08,10.136-1.635,20.6-4.227,27.962-10.485,9.34-7.946,11.658-21.4,5.4-31.361-10.5-16.708-39.531-20.86-46.872-38.792-4.038-9.87.11-20.866,5.982-30.021,12.591-19.636,33.7-36.865,34.814-59.313.765-15.418-9.383-30.855-25.075-38.152-16.446-7.654-39.253-6.688-51.385,5.963C290.9,110.1,268.946,115.117,250.128,114.449Z" transform="translate(-35.439 93.05)" fill="#28a745" opacity="0.1"/>
    </g>
    <path id="Path_1691" data-name="Path 1691" d="M215.8,667.862s-17.825-13.476-21.192-30.617a33.88,33.88,0,0,0-10.439-18.7,57.044,57.044,0,0,0-8.352-6.222" transform="translate(-115.792 -276.351)" fill="none" stroke="#535461" stroke-miterlimit="10" stroke-width="2"/>
    <path id="Path_1692" data-name="Path 1692" d="M151.186,574.983c1.562,2.113,2.269,11.068,2.269,11.068s-8.352-3.289-9.917-5.4a4.76,4.76,0,1,1,7.648-5.668Z" transform="translate(-93.34 -247.52)" fill="#28a745"/>
    <path id="Path_1693" data-name="Path 1693" d="M195.479,591.379c.162,2.622-4.106,10.523-4.106,10.523s-5.228-7.3-5.393-9.927a4.757,4.757,0,1,1,9.5-.6Z" transform="translate(-122.653 -257.073)" fill="#28a745"/>
    <path id="Path_1694" data-name="Path 1694" d="M241.059,648.615c-1.18,2.346-8.857,7.013-8.857,7.013s-.82-8.945.36-11.291a4.757,4.757,0,1,1,8.5,4.278Z" transform="translate(-153.01 -294.64)" fill="#28a745"/>
    <path id="Path_1695" data-name="Path 1695" d="M264.1,704.93c-.768,2.512-7.545,8.407-7.545,8.407s-2.324-8.676-1.556-11.191a4.758,4.758,0,0,1,9.1,2.784Z" transform="translate(-172.854 -334.79)" fill="#28a745"/>
    <path id="Path_1696" data-name="Path 1696" d="M170.2,632.991c2.593.35,10.789-3.351,10.789-3.351s-6.916-5.73-9.522-6.08a4.758,4.758,0,1,0-1.267,9.431Z" transform="translate(-109.203 -282.052)" fill="#28a745"/>
    <path id="Path_1697" data-name="Path 1697" d="M195.25,696.822c2.593-.444,9.292-6.423,9.292-6.423s-8.316-3.4-10.906-2.952a4.758,4.758,0,1,0,1.62,9.376Z" transform="translate(-125.166 -327.833)" fill="#28a745"/>
    <path id="Path_1698" data-name="Path 1698" d="M232.671,754.805c2.628,0,10.244-4.761,10.244-4.761s-7.619-4.754-10.248-4.754a4.758,4.758,0,1,0,0,9.515Z" transform="translate(-154.207 -366.227)" fill="#28a745"/>
    <path id="Path_1699" data-name="Path 1699" d="M833.49,326.015s10.987-19.461,27.547-25.068a33.877,33.877,0,0,0,17.151-12.831A56.824,56.824,0,0,0,883.241,279" transform="translate(-580.537 -46.173)" fill="none" stroke="#535461" stroke-miterlimit="10" stroke-width="2"/>
    <path id="Path_1700" data-name="Path 1700" d="M996.836,250.957c-1.886,1.828-10.666,3.721-10.666,3.721s2.155-8.718,4.041-10.549a4.757,4.757,0,1,1,6.625,6.829Z" transform="translate(-683.018 -20.958)" fill="#28a745"/>
    <path id="Path_1701" data-name="Path 1701" d="M980.867,296.935c-2.593.512-10.977-2.67-10.977-2.67s6.547-6.158,9.123-6.66a4.758,4.758,0,1,1,1.854,9.331Z" transform="translate(-672.014 -51.6)" fill="#28a745"/>
    <path id="Path_1702" data-name="Path 1702" d="M931.055,350.114c-2.483-.859-8.125-7.846-8.125-7.846s8.75-2,11.239-1.144a4.757,4.757,0,1,1-3.115,8.991Z" transform="translate(-636.985 -88.235)" fill="#28a745"/>
    <path id="Path_1703" data-name="Path 1703" d="M877.321,379.985c-2.593-.428-9.321-6.375-9.321-6.375s8.293-3.455,10.883-3.027a4.762,4.762,0,0,1-1.546,9.4Z" transform="translate(-598.849 -108.562)" fill="#6c63ff"/>
    <path id="Path_1704" data-name="Path 1704" d="M947.3,277.2c0,2.628,4.764,10.254,4.764,10.254s4.761-7.616,4.761-10.241a4.758,4.758,0,1,0-9.512,0Z" transform="translate(-656.744 -41.256)" fill="#28a745"/>
    <path id="Path_1705" data-name="Path 1705" d="M887.527,311.069c.784,2.508,7.6,8.358,7.6,8.358s2.269-8.692,1.478-11.2a4.758,4.758,0,0,0-9.074,2.842Z" transform="translate(-612.052 -63.693)" fill="#6c63ff"/>
    <path id="Path_1706" data-name="Path 1706" d="M834.877,355.311c.35,2.593,6.08,9.518,6.08,9.518s3.7-8.183,3.348-10.786a4.758,4.758,0,1,0-9.428,1.267Z" transform="translate(-575.57 -94.404)" fill="#6c63ff"/>
    <path id="Path_1707" data-name="Path 1707" d="M996.836,250.957c-1.886,1.828-10.666,3.721-10.666,3.721s2.155-8.718,4.041-10.549a4.757,4.757,0,1,1,6.625,6.829Z" transform="translate(-683.018 -20.958)" fill="#28a745" opacity="0.25"/>
    <path id="Path_1708" data-name="Path 1708" d="M980.867,296.935c-2.593.512-10.977-2.67-10.977-2.67s6.547-6.158,9.123-6.66a4.758,4.758,0,1,1,1.854,9.331Z" transform="translate(-672.014 -51.6)" fill="#28a745" opacity="0.25"/>
    <path id="Path_1709" data-name="Path 1709" d="M931.055,350.114c-2.483-.859-8.125-7.846-8.125-7.846s8.75-2,11.239-1.144a4.757,4.757,0,1,1-3.115,8.991Z" transform="translate(-636.985 -88.235)" fill="#28a745" opacity="0.25"/>
    <path id="Path_1710" data-name="Path 1710" d="M877.321,379.985c-2.593-.428-9.321-6.375-9.321-6.375s8.293-3.455,10.883-3.027a4.762,4.762,0,0,1-1.546,9.4Z" transform="translate(-598.849 -108.562)" opacity="0.25"/>
    <path id="Path_1711" data-name="Path 1711" d="M947.3,277.2c0,2.628,4.764,10.254,4.764,10.254s4.761-7.616,4.761-10.241a4.758,4.758,0,1,0-9.512,0Z" transform="translate(-656.744 -41.256)" fill="#28a745" opacity="0.25"/>
    <path id="Path_1712" data-name="Path 1712" d="M887.527,311.069c.784,2.508,7.6,8.358,7.6,8.358s2.269-8.692,1.478-11.2a4.758,4.758,0,0,0-9.074,2.842Z" transform="translate(-612.052 -63.693)" opacity="0.25"/>
    <path id="Path_1713" data-name="Path 1713" d="M834.877,355.311c.35,2.593,6.08,9.518,6.08,9.518s3.7-8.183,3.348-10.786a4.758,4.758,0,1,0-9.428,1.267Z" transform="translate(-575.57 -94.404)" opacity="0.25"/>
    <path id="Path_1714" data-name="Path 1714" d="M835.44,291.226s2.158-22.245,15.012-34.075a33.89,33.89,0,0,0,10.481-18.68,56.8,56.8,0,0,0,.937-10.371" transform="translate(-576.749 -11.341)" fill="none" stroke="#535461" stroke-miterlimit="10" stroke-width="2"/>
    <path id="Path_1715" data-name="Path 1715" d="M922.769,191.315c-.972,2.437-8.245,7.726-8.245,7.726s-1.562-8.844-.58-11.282a4.759,4.759,0,1,1,8.825,3.565Z" transform="translate(-630.287 18.814)" fill="#28a745"/>
    <path id="Path_1716" data-name="Path 1716" d="M924.376,237.453c-2.149,1.51-11.116,2.006-11.116,2.006s3.494-8.277,5.642-9.787a4.758,4.758,0,1,1,5.474,7.778Z" transform="translate(-630.212 -11.305)" fill="#28a745"/>
    <path id="Path_1717" data-name="Path 1717" d="M895.771,306.614c-2.619.22-10.611-3.889-10.611-3.889s7.195-5.38,9.813-5.6a4.758,4.758,0,0,1,.8,9.483Z" transform="translate(-610.773 -58.196)" fill="#28a745"/>
    <path id="Path_1718" data-name="Path 1718" d="M860.213,355.4c-2.544.648-11.113-2.032-11.113-2.032s6.18-6.517,8.724-7.179a4.758,4.758,0,0,1,2.389,9.211Z" transform="translate(-585.711 -91.751)" fill="#6c63ff"/>
    <path id="Path_1719" data-name="Path 1719" d="M883.332,238.077c1.063,2.4,8.5,7.454,8.5,7.454s1.264-8.893.2-11.294a4.758,4.758,0,0,0-8.7,3.85Z" transform="translate(-609.003 -13.238)" fill="#28a745"/>
    <path id="Path_1720" data-name="Path 1720" d="M841.983,292.531c1.734,1.974,10.335,4.56,10.335,4.56s-1.452-8.864-3.186-10.837a4.757,4.757,0,1,0-7.15,6.278Z" transform="translate(-579.81 -49.669)" fill="#6c63ff"/>
    <path id="Path_1721" data-name="Path 1721" d="M812.274,355.055c1.374,2.236,9.415,6.239,9.415,6.239s.068-8.98-1.3-11.22a4.758,4.758,0,0,0-8.1,4.981Z" transform="translate(-559.51 -93.095)" fill="#6c63ff"/>
    <path id="Path_1722" data-name="Path 1722" d="M784.44,141.647c.538-1.974,1.186-3.957,1.64-5.957C785.535,137.69,784.884,139.68,784.44,141.647Z" transform="translate(-540.288 53.27)" fill="url(#linear-gradient)"/>
    <path id="Path_1723" data-name="Path 1723" d="M420.619,107.134c-.045-.075-.078-.151-.113-.22h0c0-.031-.032-.057-.045-.088a2.065,2.065,0,0,1-.217.085c-.143.053-.288.1-.437.145s-.211.063-.324.088a1.934,1.934,0,0,1-.288.072l.026.057c.12-.025.237-.047.356-.079l.032.39c.136,0,.263-.019.386-.019a1.645,1.645,0,0,1,.175,0h.648C420.748,107.423,420.677,107.275,420.619,107.134Zm65.79,101.642c-1.523-1.991-4.563-23.362-4.563-23.362s-5.979-15.2-4.349-21.261-4.453-21.582-4.453-21.582-4.019-1.7-4.236-4.212c0,0-16.409-5.033-17.177-8.808-.622-3.1-10.8-5.316-14.454-6.017-1.115-4.366-2.236-8.44-3.063-10.663-.224-.692-.434-1.29-.629-1.761-1.4-3.46-5.714-3.775-8.844-3.5a4.612,4.612,0,0,0-.742-1.645.9.9,0,0,0-.295-.437,1.728,1.728,0,0,0-.214-.151,1,1,0,0,0-.22-.271,1.558,1.558,0,0,0-.292-.2,1.976,1.976,0,0,0-.233-.1,3.189,3.189,0,0,0-.58-.154,4.914,4.914,0,0,0-.7-.088,4.257,4.257,0,0,0,1.494-1.06,3,3,0,0,0,.613-1.095,3.132,3.132,0,0,0,.136-1.032,2.665,2.665,0,0,1-.292.406c.136-1.393-.622-2.809-1.057-4.2a12.063,12.063,0,0,1-.285-5.552h0c.434-2.787,1.51-5.605,2.239-8.443a.2.2,0,0,0,0-.047,21.327,21.327,0,0,0,.707-4.306,18.533,18.533,0,0,0-1.893-8.537c-1.105-2.369-2.735-4.7-5.231-5.662-1.854-.727-3.931-.61-5.928-.73-4.479-.271-8.75-1.8-13.009-3.19s-8.64-2.655-13.122-2.413-9.094,2.34-11.139,6.19a38.28,38.28,0,0,1-1.8,3.668c-1.452,2.13-4.051,3.2-6.219,4.665a12,12,0,0,0-4.861,6.043,7.834,7.834,0,0,0-.175,4.136h0a7.244,7.244,0,0,0,.272.912,6.435,6.435,0,0,0,1.41,2.237,6.852,6.852,0,0,0,1.6,1.2h0a9.594,9.594,0,0,0,2.366.893c-.029.094-.058.2-.091.293-.052.16-.1.315-.146.488-.107.387-.207.78-.292,1.176a.358.358,0,0,0,0,.085,24.964,24.964,0,0,0-.6,5.445,24.41,24.41,0,0,0,.136,2.592h0c1.3,12.765,12.153,22.834,25.567,23.488.46.022.924.035,1.394.035h.648c.211.271.418.547.616.818s.379.547.551.818l-.47-.472h0l-.47-.418a3.744,3.744,0,0,1-.425.475,8.07,8.07,0,0,0-.937-.258h0a12.359,12.359,0,0,0-6.09.393,26.866,26.866,0,0,0-9.055,5.017L360.26,138.693l-9.347,5.517-3.367,7.99s-2.531,9.493-5.347,20.371c-.11.031-.217.063-.324.1a6.339,6.339,0,0,0-7.013,5.848c-5.6,6.606-5.918,13.211-4.6,16.244h0a4.288,4.288,0,0,0,.447.808,75.6,75.6,0,0,1,4.106,7.641c-.042.274-.068.5-.081.676a1.626,1.626,0,0,0,0,.17s.972,14.253-2.269,18.339c-.71.89-.6,2.06,0,3.356h0c2.171,4.662,10.756,10.887,10.756,10.887s10.3-.053,16.033-.661c-.016.56-.029,1.117-.042,1.661-.13,5.5-.13,10.107-.13,10.107l-.214,5.766s-1.945,12.151-2.917,15.5c-.613,2.1.094,21.557.71,35.859H458.106c1.193-8.462-.489-34.17-.489-34.17a65.685,65.685,0,0,1-1.656-12.441.046.046,0,0,1,0-.041c0-.506,0-1,.019-1.485l.736-.025,1.322-.044h.12s.032-.12.107-.315h0a5.944,5.944,0,0,1,.71-1.375,3.526,3.526,0,0,1,2.771-1.655,7.611,7.611,0,0,0,3.147-1.453.059.059,0,0,0,.026,0c3.445-2.262,8-6.436,9.1-7.122,1.52-.944,8.8-7.235,8.8-7.235s1.086-1.334,2.243-2.941l.042-.057c1.439-2.013,2.969-4.419,2.593-5.178-.648-1.359.434-4.608.434-4.608C491.513,218.726,487.932,210.767,486.408,208.776ZM423.74,112.025a1.227,1.227,0,0,1,.058.289c-.081-.1-.162-.214-.243-.315l-.078-.1-.055-.076.123-.164v.022h0a1.083,1.083,0,0,1,.194.343Zm-1.089-2.787c-.353.069-.632.132-.813.179-.23-.4-.451-.793-.648-1.2A9.4,9.4,0,0,1,422.651,109.238Zm-.609.5a.065.065,0,0,1,0-.019l.026.019h0c.133.085.262.167.382.252h0c.107.075.2.148.3.223a3,3,0,0,1-.207.315c-.113-.173-.22-.34-.324-.513A1.128,1.128,0,0,1,422.041,109.735Zm-1.945-3.882a9.879,9.879,0,0,1,1.883,0h0a1.468,1.468,0,0,1,.243.028h0a2.759,2.759,0,0,1,.515.129,3.591,3.591,0,0,1,.684,1.765l-.175.025-.172.031c-.324.053-.648.107-.9.157l-.324.066c-.431.091-.681.16-.69.164-.042-.085-.084-.164-.13-.245-.071-.135-.146-.274-.211-.409s-.149-.289-.217-.431c-.045-.075-.078-.151-.113-.22h0c0-.031-.032-.057-.045-.088a.743.743,0,0,1-.049-.1c-.2-.39-.379-.78-.554-1.164-.019-.038-.036-.079-.052-.116l.246-.016v.082ZM342.773,300.985a75.8,75.8,0,0,0-1.348-14.507c-.415-2.023-.843-4.045-1.277-6.033-.11-.5-.217-.988-.324-1.478l-1,.129h-.091c-2.722-12.46-5.568-23.438-5.568-23.438s-5.652-20.946-5-22.617a3.936,3.936,0,0,0-.262-1.661c-1.368-4.762-7.078-17.886-9.074-22.371h0a.173.173,0,0,0-.023-.057h0c-.324-.752-.557-1.258-.629-1.406l.47-6.694.026-.4.062-.856-.026-.022.026-.4a47.713,47.713,0,0,0-13.288-6.76c-.324-.113-.668-.223-1.008-.33.418-2.708.972-5.766,1.695-8.745.068-.3.143-.588.22-.881h0c.068-.293.146-.576.224-.862.123-.466.256-.925.392-1.378.45-.138.894-.293,1.332-.456l.168-.063a23.075,23.075,0,0,0,14.584-27.052h0a22.8,22.8,0,0,0-4.174-8.54h0c-.149-.2-.308-.39-.467-.582s-.35-.406-.528-.6c.937-2.067,2.042-4.033,2.132-6.043a6,6,0,0,0,0-.764h0v-.031a6.391,6.391,0,0,0-2.084-3.976,14.113,14.113,0,0,0-7.717-3.529c-2.855-.491-5.766-.5-8.637-.834-4.761-.554-9.4-1.979-14.159-2.416a34.546,34.546,0,0,0-17.122,2.831c-3.542,1.573-7.13,4.322-7.344,8.094-.175,3.117,2.061,6.106,1.5,9.185-.561,3.026-3.737,5.407-3.458,8.468a6,6,0,0,0,1.53,3.218h0c.272.315.561.629.859.944a13.677,13.677,0,0,1,3.069,3.819c.026.063.052.126.075.189a3.482,3.482,0,0,1-1.053,4.187.047.047,0,0,1,.016.022h0c.019.025.039.044.055.069a.021.021,0,0,0,0-.016,3.562,3.562,0,0,0,1.851,1.12l.275.082c-.224.236-.434.481-.648.739l-.139.179a13.055,13.055,0,0,0-.972,1.463c-.165.283-.324.566-.457.849a10.457,10.457,0,0,0-.956,2.727c-.347,2.082.143,4.253-.382,6.291-.648,2.516-2.7,4.448-3.857,6.785-2.191,4.4-.95,9.572-.509,14.435.6,6.606-.373,13.24-1.342,19.8q-.771,5.234-1.543,10.478l-3.889,26.322c-.473,3.215-1.034,6.606-3.241,9.088h.023a.028.028,0,0,1-.023.025,6.938,6.938,0,0,0,2.087.522h0c2.881.28,5.934-1.073,8.527-2.551a40.328,40.328,0,0,0,5.811-3.96q-.4,1.416-.856,3.08a.169.169,0,0,1,0,.031h0c-3.659,13.526-9.544,38.322-9.544,38.322s-.535,1.079-1.228,2.686h91.393c-1.069-1.258-2.064-2.463-2.842-3.435ZM275.1,175.918c.023-.038.039-.072.062-.107v.683h0a2.264,2.264,0,0,1-.052.387v.028l.324.116.376.151h0q3.332,1.277,6.748,2.312c.233.072.47.142.706.208l.049.39c.058.4.113.805.165,1.211v.031c.146,1.123.288,2.243.415,3.337,0,0-5.95-2.2-5.876,1.142a1.583,1.583,0,0,0,0,.179,1.447,1.447,0,0,0,0,.239,16.256,16.256,0,0,0,1.063,4.942.222.222,0,0,1-.052.088,1.675,1.675,0,0,0-.143.972,9.283,9.283,0,0,0,.136,1.68c-.175.1-.347.208-.519.315h0c-.13.079-.253.167-.379.255a45.891,45.891,0,0,0-3.108-7.776c-.891-1.78-1.893-3.636-1.883-5.59a3.065,3.065,0,0,1,.016-.384,6.433,6.433,0,0,1,.331-1.664c.075-.2.156-.406.246-.6a14.655,14.655,0,0,1,.71-1.378h0c.169-.3.347-.588.519-.884.055-.088.107-.179.159-.267Zm145.516-68.784c-.045-.075-.078-.151-.113-.22h0c0-.031-.032-.057-.045-.088a2.065,2.065,0,0,1-.217.085c-.143.053-.288.1-.437.145s-.211.063-.324.088l-.288.072.026.057c.12-.025.237-.047.356-.079l.032.39c.136,0,.263-.019.386-.019h.823C420.748,107.423,420.677,107.275,420.619,107.134Z" transform="translate(-189.211 105.325)" fill="url(#linear-gradient-2)"/>
    <path id="Path_1724" data-name="Path 1724" d="M528.01,356.014l-1.945.859s-12.675,49.242-12.675,53.222,26.877,26.125,26.877,26.125l4.194-28.306S538.439,343,528.01,356.014Z" transform="translate(-352.948 -98.647)" fill="#e8f5ff"/>
    <path id="Path_1725" data-name="Path 1725" d="M694.639,230.86,683.409,225a22.5,22.5,0,0,0-3.293-7.5,16.715,16.715,0,0,0-6.55-5.918c-6.88-3.085,29.1-19.28,29.1-19.28a58.578,58.578,0,0,0,2,5.736c1.854,4.576,4.929,10.494,8.893,12.179C720.3,213.084,694.639,230.86,694.639,230.86Z" transform="translate(-464.187 13.504)" fill="#ffc1c7"/>
    <path id="Path_1726" data-name="Path 1726" d="M704.669,198.036A26.828,26.828,0,0,1,680.116,217.5a16.715,16.715,0,0,0-6.55-5.918c-6.88-3.085,29.1-19.28,29.1-19.28a58.528,58.528,0,0,0,2,5.736Z" transform="translate(-463.793 13.592)" opacity="0.1"/>
    <path id="Path_1727" data-name="Path 1727" d="M662.644,128.865a26.685,26.685,0,1,1-7.817-18.991,26.813,26.813,0,0,1,7.817,18.991Z" transform="translate(-420.291 76.001)" fill="#ffc1c7"/>
    <path id="Path_1728" data-name="Path 1728" d="M645.167,231.834l-7.311,17.06-6.449,11.324H610.762l-6.022-15.482,2.44-16.055h15.767l10.18-.574,3.439-1.147,2.217,1.257Z" transform="translate(-399.517 8.101)" fill="#575a89"/>
    <path id="Path_1729" data-name="Path 1729" d="M741.745,230.465s4.56.972.476,4.32-18.172,13.994-18.172,13.994,4.949,4.408,3.925,9.57l16.4-9.139,2.917-14.623S747.614,230.192,741.745,230.465Z" transform="translate(-499.171 -12.621)" opacity="0.1"/>
    <path id="Path_1730" data-name="Path 1730" d="M705.449,287l-10.429,1.721s2.152,7.956,1.076,10.215a1.512,1.512,0,0,0-.081.217l-4.255,11.5,3.189,9.032,11.038-15.054-3.763-5.7s3.977-5.27,6.342-7.1S705.449,287,705.449,287Z" transform="translate(-476.512 -51.501)" opacity="0.1"/>
    <path id="Path_1731" data-name="Path 1731" d="M705.449,285.63l-10.429,1.718s2.152,7.956,1.076,10.215a1.513,1.513,0,0,0-.081.217l-4.255,11.5,3.189,9.032,11.038-15.064-3.763-5.7s3.977-5.27,6.342-7.1S705.449,285.63,705.449,285.63Z" transform="translate(-476.512 -50.56)" fill="#dce6f2"/>
    <path id="Path_1732" data-name="Path 1732" d="M742.183,227.815s4.56.972.473,4.32-18.606,14.853-18.606,14.853,5.377,3.549,4.356,8.708l16.4-9.136,2.917-14.623S748.042,227.542,742.183,227.815Z" transform="translate(-499.188 -10.802)" fill="#575a89"/>
    <path id="Path_1733" data-name="Path 1733" d="M672.713,273.18s.995,1.86,5.386,5.215c0,0-7.311,3.889-4.515,9.356L662.4,284.834l-1.721-5.377Z" transform="translate(-454.918 -41.831)" opacity="0.1"/>
    <path id="Path_1734" data-name="Path 1734" d="M671.39,271.86s.995,1.86,5.386,5.215c0,0-7.311,3.87-4.515,9.353l-11.181-2.917-1.721-5.373Z" transform="translate(-454.002 -40.925)" fill="#575a89"/>
    <path id="Path_1735" data-name="Path 1735" d="M702.107,293.117l-7.311,17.06L688.359,321.5H667.7l-6.022-15.482,2.437-16.055H668.5c-.071,3.746,1.3,8.148,1.209,9.784-.149,2.69,4.012,17.2,4.012,17.2s8.708-14.085,12.147-15.339c2.162-.788,6.741-7.341,9.849-12.111Z" transform="translate(-456.457 -53.21)" opacity="0.1"/>
    <path id="Path_1736" data-name="Path 1736" d="M657.16,369.536l-.742.933s5.377,26.987,3.889,33.115a17.4,17.4,0,0,0-.431,3.364V407c-.263,6.235,1.62,14.328,1.62,14.328s1.5,23.853.648,33.663H561.476c-.59-14.506-1.225-33.3-.648-35.384.972-3.439,2.917-15.913,2.917-15.913l.214-5.911s0-5.714.175-12.079c.075-2.862.185-5.866.344-8.53a45.041,45.041,0,0,1,.882-7.561,16.671,16.671,0,0,0,.415-3.2,1.658,1.658,0,0,1,.019-.308c0-.324.032-.674.045-1.034v-.324c.062-2.087.039-4.563-.029-7.13v-.425c-.055-1.925-.136-3.889-.227-5.756-.282-5.834-.648-10.766-.648-10.766L552.57,299.7,555.9,291.5l9.246-5.665,17.1-10.322c8.339-6.854,13.829-6.031,15.922-5.279a5.553,5.553,0,0,1,.6.243c.065.032.117.058.165.087a1.381,1.381,0,0,1,.191.11h0a3.948,3.948,0,0,0-1.452,1.2,5.29,5.29,0,0,0-.9,1.945,9.054,9.054,0,0,0-.23,1.326c-.042.47-.058.956-.058,1.445a25.076,25.076,0,0,0,.275,3.205v.071c.107.758.24,1.5.37,2.2a.145.145,0,0,0,0,.036c.149.813.3,1.565.4,2.214.019.117.036.224.052.324a7.408,7.408,0,0,1,.1,1.3,15.752,15.752,0,0,0,.421,3.111c.084.428.181.885.288,1.361.146.648.3,1.355.476,2.074.094.4.194.8.3,1.209.039.162.081.324.12.489l.065.256c.69,2.745,1.439,5.477,1.9,7.13.272.972.444,1.572.444,1.572a121,121,0,0,1,8.776-12.383c.058-.065.11-.126.165-.185.386-.444.765-.849,1.128-1.206a6.662,6.662,0,0,1,2.081-1.562,2.263,2.263,0,0,0,.353-.165c1.595-.9,4.168-4.187,6.576-7.626.237-.324.467-.677.7-1.011.535-.771,1.053-1.546,1.543-2.288.376-.567.736-1.118,1.076-1.643,1.62-2.521,2.761-4.4,2.761-4.4l2.249-.1.392-.019h.263l10.212-.473s.441.075,1.167.22a.208.208,0,0,1,.12.026c3.623.719,13.69,3,14.305,6.158.752,3.87,16.989,9.032,16.989,9.032.214,2.593,4.19,4.3,4.19,4.3s6.022,15.913,4.411,22.148c-1.591,6.158,4.142,21.39,4.294,21.818h0l-1.1,1.387Z" transform="translate(-384.736 -44.796)" fill="#e8f5ff"/>
    <path id="Path_1737" data-name="Path 1737" d="M750.177,225.572s9.94-2.82,12.2,2.985,7.311,29.246,7.311,29.246-13.119,2.473-16.558,0a9.907,9.907,0,0,0-6.991-1.828l-7.418,5.053-2.191-.648s11.868-17.643,14.448-23.639S754.429,228.064,750.177,225.572Z" transform="translate(-508.253 -8.868)" opacity="0.1"/>
    <path id="Path_1738" data-name="Path 1738" d="M748.874,221.572s9.946-2.82,12.215,2.985S768.4,253.8,768.4,253.8s-13.116,2.473-16.558,0a9.9,9.9,0,0,0-6.987-1.828l-7.425,5.053-2.191-.648s11.868-17.643,14.448-23.639S753.126,224.071,748.874,221.572Z" transform="translate(-507.355 -6.119)" fill="#e8f5ff"/>
    <path id="Path_1739" data-name="Path 1739" d="M571.2,511.55s7.418,1.828,8.818,6.022-5.484,4.3-5.484,4.3S570.339,514.454,571.2,511.55Z" transform="translate(-392.431 -205.278)" opacity="0.1"/>
    <path id="Path_1740" data-name="Path 1740" d="M626.244,607.09s-18.168,37.2-13.975,40.751S626.244,607.09,626.244,607.09Z" transform="translate(-420.759 -272.816)" opacity="0.1"/>
    <path id="Path_1741" data-name="Path 1741" d="M734,522.5s14.516,36.136,11.612,41.717,6.235,0,6.235,0Z" transform="translate(-505.878 -213.534)" opacity="0.1"/>
    <path id="Path_1742" data-name="Path 1742" d="M718.492,632.64s-49.028,2.366-34.726,17.634,43.651.648,43.651.648Z" transform="translate(-470.255 -288.683)" fill="#ffc1c7"/>
    <path id="Path_1743" data-name="Path 1743" d="M664.516,128.872a26.687,26.687,0,0,1-2.032,10.248c-.45.052-.9.084-1.335.1-.648-1.423-.3-3.066-.288-4.631s-.564-3.406-2.071-3.827c-3-.846-5.078,4.771-8.041,3.756-2.269-.771-1.676-4.213-2.982-6.2-1.034-1.572-3.1-2.016-4.716-3-3.426-2.1-3.322-5.467-4.913-8.65-1.666-3.335-5.185-2.35-8.242-.382-2.32,1.5-4.323,3.5-6.806,4.7a16.837,16.837,0,0,1-6.945,1.468,15.262,15.262,0,0,1-4.356-.46,26.812,26.812,0,0,1,52.723,6.88Z" transform="translate(-422.187 75.994)" opacity="0.1"/>
    <path id="Path_1744" data-name="Path 1744" d="M618.343,91.119c-2.324,1.5-4.323,3.5-6.806,4.7a16.885,16.885,0,0,1-6.945,1.465c-2.917.065-6.057-.447-8.05-2.554a7.766,7.766,0,0,1-1.494-7.486,12.159,12.159,0,0,1,4.813-6.2c2.181-1.533,4.712-2.593,6.158-4.787a38.712,38.712,0,0,0,1.77-3.763c2.032-3.951,6.6-6.09,11.019-6.355s8.8,1.05,13,2.476,8.446,2.995,12.886,3.289c1.977.123,4.032,0,5.866.749,2.466,1,4.083,3.4,5.185,5.834a19.5,19.5,0,0,1,1.873,8.75c-.272,6.407-4.5,12.695-2.645,18.833.493,1.637,1.416,3.315.924,4.952-.719,2.389-3.8,2.933-6.294,3.046-.648-1.423-.3-3.069-.288-4.631s-.564-3.406-2.068-3.827c-3.008-.839-5.082,4.767-8.037,3.756-2.252-.775-1.669-4.213-2.978-6.2-1.034-1.575-3.108-2.016-4.716-3-3.426-2.1-3.322-5.467-4.913-8.65C624.925,88.163,621.4,89.148,618.343,91.119Z" transform="translate(-410.663 100.304)" fill="#99607e"/>
    <path id="Path_1745" data-name="Path 1745" d="M510.089,513.938l-2.473.862s.972,14.623-2.269,18.817,10.643,14.62,10.643,14.62,19.03-.107,19.568-1.62-.972-27.094-.972-27.094-10.215-3.98-9.356-10.322c0,0-3.118,14.944-7.739,14.3S507.622,518.994,510.089,513.938Z" transform="translate(-347.006 -204.266)" fill="#e8f5ff"/>
    <ellipse id="Ellipse_357" data-name="Ellipse 357" cx="6.524" cy="5.966" rx="6.524" ry="5.966" transform="translate(164.869 312.181)" opacity="0.1"/>
    <path id="Path_1746" data-name="Path 1746" d="M520.678,458.348s-1.3-39.565-12.581-30.749-11.395,19.358-9.246,22.472,9.039,18.706,9.039,18.706h0a7.885,7.885,0,0,0,11.667-5.185Z" transform="translate(-341.866 -147.399)" fill="#ffc1c7"/>
    <path id="Path_1747" data-name="Path 1747" d="M602.755,213.765a.953.953,0,0,0-.292-.447c-.557-.509-1.757-.687-3.565-.532l.075.856c2.411-.207,2.888.272,2.949.353v.081l.075.107a3.617,3.617,0,0,1,.648,2.852c-.528,2.641-3.772,4.745-3.8,4.767l-.078.045-.049.075c-1.4,2.077-9.318,7.94-11.388,9.457l-.182-.207c-.927.8-9.074,7.937-9.515,10.669-.285,1.714-2.217,2.379-2.917,2.564a18.314,18.314,0,0,1-4.385-4.609c-1.17-2.013,3.539-5.941,3.954-7.473l-.648-.664c-.068.246-6.116,5.9-4.434,8.786a19.238,19.238,0,0,0,4.673,4.955c-.276,2.5-1.99,17.193-4.625,20.674-3.273,4.327-6.025,26.131-5.72,33.744.269,6.764-1.5,19.539-7.4,25.026a9.454,9.454,0,0,1-7.8,2.593h-.143a23.018,23.018,0,0,1-15.828-5.185c-5.882-4.949-9.214-13.025-9.907-24.012h-.143l-.058-3.2a6.239,6.239,0,1,0-.93.075h.071l.058,3.179-.285.019c.713,11.343,4.213,19.734,10.371,24.916a23.982,23.982,0,0,0,16.726,5.474,12.046,12.046,0,0,0,1.3.071,10.63,10.63,0,0,0,7.454-3c6.213-5.785,8.1-19.03,7.807-26.024-.324-8.067,2.564-29.087,5.461-32.914,2.839-3.756,4.56-18.392,4.861-21.228,1.027-.288,3.351-1.2,3.746-3.565.285-1.711,5.727-6.984,9.074-9.9l-.1-.117a126.129,126.129,0,0,0,10.183-8.128c.862-.826,1.718-1.653,2.612-2.44a8.363,8.363,0,0,0,2.8-4.255A4.424,4.424,0,0,0,602.755,213.765Z" transform="translate(-356.07 -1.511)" opacity="0.1"/>
    <path id="Path_1748" data-name="Path 1748" d="M685.207,283.768a19.832,19.832,0,0,1-4.981-5.185c-1.679-2.888,4.369-8.536,4.433-8.783l.648.664c-.412,1.53-5.121,5.461-3.951,7.47a18.836,18.836,0,0,0,4.612,4.78Z" transform="translate(-467.908 -39.507)" fill="#353146"/>
    <path id="Path_1749" data-name="Path 1749" d="M735.706,231.109l-.506-.7c.1-.075,10.283-7.438,11.888-9.82l.052-.071.074-.049c.032-.023,3.277-2.123,3.8-4.767a3.594,3.594,0,0,0-.648-2.849l-.074-.11v-.078c-.065-.084-.541-.561-2.953-.353l-.074-.859c1.812-.156,3.008.023,3.565.532a.972.972,0,0,1,.295.45,4.427,4.427,0,0,1,.732,3.439,8.315,8.315,0,0,1-2.8,4.255c-.891.788-1.75,1.62-2.609,2.44A136.173,136.173,0,0,1,735.706,231.109Z" transform="translate(-506.67 0.517)" fill="#e8f5ff"/>
    <rect id="Rectangle_1689" data-name="Rectangle 1689" width="0.859" height="5.221" transform="translate(167.315 291.187) rotate(-1.05)" fill="#e8f5ff"/>
    <circle id="Ellipse_358" data-name="Ellipse 358" cx="6.271" cy="6.271" r="6.271" transform="translate(161.045 279.664)" fill="#28a745"/>
    <circle id="Ellipse_359" data-name="Ellipse 359" cx="5.208" cy="5.208" r="5.208" transform="translate(162.101 280.727)" fill="#e8f5ff"/>
    <path id="Path_1750" data-name="Path 1750" d="M561.053,365.922a12.037,12.037,0,0,1-1.3-.068,24.018,24.018,0,0,1-16.726-5.474c-6.158-5.185-9.651-13.566-10.371-24.919l1.3-.081c.694,10.987,4.025,19.066,9.911,24.012a23.108,23.108,0,0,0,15.825,5.185h.143a9.473,9.473,0,0,0,7.8-2.593c5.9-5.487,7.661-18.262,7.392-25.026-.324-7.619,2.427-29.424,5.7-33.747,2.868-3.789,4.647-20.865,4.667-21.037l.049-.486.48-.084c.029,0,2.829-.531,3.179-2.625.454-2.729,8.588-9.862,9.512-10.669l.846.972c-3.361,2.917-8.8,8.193-9.074,9.907-.4,2.372-2.719,3.28-3.743,3.565-.324,2.839-2.032,17.472-4.861,21.228-2.9,3.827-5.785,24.848-5.461,32.914.279,6.994-1.591,20.243-7.8,26.024A10.634,10.634,0,0,1,561.053,365.922Z" transform="translate(-367.526 -39.618)" fill="#353146"/>
    <g id="Group_2808" data-name="Group 2808" transform="translate(184.301 187.09)" opacity="0.1">
      <path id="Path_1751" data-name="Path 1751" d="M783,148.761c.532-1.964,1.173-3.941,1.62-5.931C784.086,144.83,783.441,146.8,783,148.761Z" transform="translate(-722.245 -138.646)"/>
      <path id="Path_1752" data-name="Path 1752" d="M650.869,155.468c-.648-1.423-.3-3.069-.288-4.631s-.564-3.39-2.068-3.827c-3.008-.839-5.082,4.771-8.037,3.756-2.269-.775-1.669-4.213-2.978-6.2-1.034-1.575-3.1-2.016-4.712-3-3.429-2.1-3.325-5.467-4.913-8.65-1.669-3.338-5.185-2.353-8.245-.382-2.324,1.5-4.323,3.5-6.806,4.7a16.885,16.885,0,0,1-6.945,1.465c-2.9.068-6.057-.447-8.05-2.554a7.525,7.525,0,0,1-1.773-6.222c-.055.152-.1.3-.152.457a7.787,7.787,0,0,0,1.494,7.486c1.993,2.107,5.15,2.619,8.05,2.554a16.9,16.9,0,0,0,6.948-1.465c2.489-1.2,4.489-3.2,6.806-4.7,3.059-1.97,6.579-2.956,8.245.382,1.588,3.183,1.488,6.547,4.913,8.65,1.62.972,3.678,1.426,4.716,3,1.3,1.993.723,5.425,2.978,6.2,2.953,1.011,5.027-4.6,8.034-3.756,1.5.421,2.084,2.269,2.068,3.827s-.353,3.208.288,4.631c2.492-.113,5.574-.648,6.3-3.046a3.491,3.491,0,0,0,.136-1.06C655.821,154.9,653.111,155.367,650.869,155.468Z" transform="translate(-595.536 -129.92)"/>
    </g>
    <path id="Path_1753" data-name="Path 1753" d="M835.562,379.008l3.763,3.98s3.011,21.931,4.515,23.983,5.056,10.212,1.721,16.341c0,0-1.076,3.335-.431,4.732s-4.835,8.387-4.835,8.387-7.2,6.449-8.712,7.418-9.46,8.708-12.147,8.815-3.565,3.442-3.565,3.442l-15.161.538s-8.374-.437-10.2.745c0,0,.972-12.795-8.384-21.182l11.933-4.3s4.518-1.945,5.915-3.977a7.3,7.3,0,0,1,3.565-2.687s3.332-2.366,3.439-3.656,4.074-2.871,4.074-2.871l-2.246-19.17,1.183-31.825s3.763-26.666,11.719-25.159S835.562,379.008,835.562,379.008Z" transform="translate(-545.887 -91.461)" opacity="0.1"/>
    <path id="Path_1754" data-name="Path 1754" d="M839.562,379.008l3.763,3.98s3.011,21.931,4.515,23.983,5.056,10.212,1.721,16.341c0,0-1.073,3.335-.428,4.732s-4.839,8.387-4.839,8.387-7.2,6.449-8.712,7.418-9.46,8.708-12.147,8.815-3.565,3.442-3.565,3.442l-15.161.538s-8.381-.437-10.2.745c0,0,.972-12.795-8.384-21.182l11.933-4.3s4.518-1.945,5.915-3.977a7.3,7.3,0,0,1,3.565-2.687s3.332-2.366,3.439-3.656,4.074-2.871,4.074-2.871l-2.246-19.17,1.183-31.825s3.763-26.666,11.719-25.159S839.562,379.008,839.562,379.008Z" transform="translate(-548.57 -91.461)" fill="#e8f5ff"/>
    <path id="Path_1755" data-name="Path 1755" d="M907.84,552.006s11.074-2.917,13.978.648S907.84,552.006,907.84,552.006Z" transform="translate(-626.498 -232.116)" opacity="0.1"/>
    <path id="Path_1756" data-name="Path 1756" d="M899.88,569.44c3.763,2.635,15.375,2.742,15.375,2.742Z" transform="translate(-621.018 -244.829)" opacity="0.1"/>
    <path id="Path_1757" data-name="Path 1757" d="M917.46,610.08c.324.107,7.982,8.28,11.2,5.808S917.46,610.08,917.46,610.08Z" transform="translate(-633.055 -272.766)" opacity="0.1"/>
    <path id="Path_1758" data-name="Path 1758" d="M599.22,398.42s2.249,15.485,1.141,21.792,2.936,14.121,2.936,14.121Z" transform="translate(-411.823 -128.085)" opacity="0.1"/>
    <path id="Path_1759" data-name="Path 1759" d="M381.449,411.7c-2.593,2.032-4.485,6.842-5.856,12.127a130.459,130.459,0,0,0-3.173,19.912s-20.644-4.732-19.141-6.88c.946-1.351-.324-11.534-1.384-18.917-.632-4.362-1.2-7.749-1.2-7.749S388.547,406.109,381.449,411.7Z" transform="translate(-239.791 -135.169)" fill="#ffccd0"/>
    <path id="Path_1760" data-name="Path 1760" d="M381.449,410.376c-2.593,2.035-4.485,6.841-5.856,12.127a23.821,23.821,0,0,1-23.7-5.882c-.632-4.365-1.2-7.752-1.2-7.752S388.547,404.785,381.449,410.376Z" transform="translate(-239.791 -133.952)" opacity="0.1"/>
    <path id="Path_1761" data-name="Path 1761" d="M380.211,330.995a23.879,23.879,0,1,1-5.253-14.934A23.879,23.879,0,0,1,380.211,330.995Z" transform="translate(-227.383 -65.522)" fill="#ffccd0"/>
    <path id="Path_1762" data-name="Path 1762" d="M521.259,788.849h-6.806l-.574-12.02-.6-12.442s1.546-.23,4.009-.574l.995-.133h.081c.538,2.525,1.069,5.117,1.582,7.707a79.2,79.2,0,0,1,1.326,13.936c0,.324,0,.648,0,.953C521.291,787.141,521.272,788.006,521.259,788.849Z" transform="translate(-352.27 -378.657)" opacity="0.1"/>
    <path id="Path_1763" data-name="Path 1763" d="M355.862,603.181H270.51c.369-.839.616-1.348.616-1.348s6.829-29.874,10.3-42.514a.17.17,0,0,0,0-.032,50.553,50.553,0,0,1,1.569-5.072h0a1.74,1.74,0,0,1,.152-.324c1.718-2.794,3.87-5.8.859-10.105s-1.945-23.224-1.945-23.224,3.656-16.13,7.525-24.731a11.57,11.57,0,0,1,2.457-3.565,10.039,10.039,0,0,1,1.076-.914h0a9.46,9.46,0,0,1,.9-.6l.062-.039a13,13,0,0,1,5.292-1.643,15.1,15.1,0,0,1,3.97.11,59.257,59.257,0,0,1,15.29,4.213c10.821,4.754,14.1,11.126,14.163,11.259h0l.026.055c.434,1.014,6.786,15.845,9.074,22.764a9.7,9.7,0,0,1,.788,3.416c-.648,1.718,4.946,23.221,4.946,23.221s2.593,10.371,5.185,22.527c.113.506.22,1.011.324,1.523.463,2.207.924,4.456,1.368,6.7a78.786,78.786,0,0,1,1.326,14.033Q355.9,601.094,355.862,603.181Z" transform="translate(-184.856 -192.989)" fill="#ff748e"/>
    <path id="Path_1764" data-name="Path 1764" d="M345.866,464.89s-5.889-2.269-5.817,1.173,1.436,5.088,1,5.591.214,3.513.214,3.513,7.956,0,11.612,1.646,17.131,4.946,18.852,5.95,8.1,5.509,8.1,5.509l.574-8.53a48.662,48.662,0,0,0-17.417-8.242A69.46,69.46,0,0,1,345.866,464.89Z" transform="translate(-232.537 -173.016)" opacity="0.1"/>
    <path id="Path_1765" data-name="Path 1765" d="M345.866,463.56s-5.889-2.269-5.817,1.173,1.436,5.088,1,5.591.214,3.513.214,3.513,7.956,0,11.612,1.65,17.131,4.946,18.852,5.947,8.1,5.509,8.1,5.509l.58-8.5A48.663,48.663,0,0,0,363,470.2,68.913,68.913,0,0,1,345.866,463.56Z" transform="translate(-232.537 -172.103)" fill="#ff748e"/>
    <path id="Path_1766" data-name="Path 1766" d="M412.85,528.43s11.252,12.182,10.679,15.556S412.85,528.43,412.85,528.43Z" transform="translate(-282.594 -216.966)" opacity="0.1"/>
    <path id="Path_1767" data-name="Path 1767" d="M435.512,741.85s-4.372,8.89-2.006,8.316S435.512,741.85,435.512,741.85Z" transform="translate(-296.291 -363.902)" fill="none"/>
    <path id="Path_1768" data-name="Path 1768" d="M332.681,664.22s-8.248,7.6-10.679,8.031,1.863,1.864,4.657.719,8.75-4.155,8.75-4.155Z" transform="translate(-219.058 -309.959)" opacity="0.1"/>
    <path id="Path_1769" data-name="Path 1769" d="M474.6,787.254H455.363c-2.69-2.333-5.234-4.5-6.854-5.795a22.371,22.371,0,0,1-5.655-7.606c-.269-.561-.5-1.086-.7-1.562a26.06,26.06,0,0,1-.933-2.512l14.244-8.459a22.27,22.27,0,0,1,2.214,2.165l.172.2a5.849,5.849,0,0,1,1.549,2.862c.071,1.011,2.884,4.923,5.759,8.679,2.917,3.821,5.9,7.473,6.1,7.72h0s.493.671,1.3,1.7C473.123,785.39,473.823,786.285,474.6,787.254Z" transform="translate(-302.801 -377.062)" fill="#ffccd0"/>
    <path id="Path_1770" data-name="Path 1770" d="M374.982,316.086a13.894,13.894,0,0,0-1.387,4.861c-.256,4.959.159,16.046-5.331,18.535-2.719,1.225-5.629-1.465-8.611-1.53a7,7,0,0,0-5.422,3.017,32.647,32.647,0,0,0-3.072,5.646,38.561,38.561,0,0,1-2.978,5.023,12.638,12.638,0,0,1-1.1,1.39,23.872,23.872,0,1,1,27.9-36.93Z" transform="translate(-227.311 -65.521)" opacity="0.1"/>
    <path id="Path_1771" data-name="Path 1771" d="M320.121,299.431c-.259,4.959.159,16.046-5.335,18.531-2.719,1.225-5.629-1.462-8.611-1.526a7,7,0,0,0-5.422,3.014,32.435,32.435,0,0,0-3.072,5.649,38.641,38.641,0,0,1-2.978,5.023,7.293,7.293,0,0,1-2.434,2.427c-1.789.933-3.957.408-5.876-.191q-3.734-1.176-7.357-2.651a7.42,7.42,0,0,0,.084-1.1c-.071.136-.149.263-.227.4l-.152.266c-.275.486-.544.972-.791,1.471-.094.191-.185.389-.266.587a7.454,7.454,0,0,0-.606,2.32c-.165,2.162.9,4.213,1.847,6.158,3.64,7.522,5.889,16.318,3.15,24.209-1.186,3.432-3.241,6.482-4.741,9.8a31.654,31.654,0,0,0-2.214,18.726c.749,3.928,2.249,7.817,1.88,11.8-.648,6.854-6.56,11.956-12.481,15.462-3.2,1.886-7.114,3.565-10.51,2.074,2.165-2.528,2.722-6.025,3.189-9.324q1.915-13.5,3.84-27.01.768-5.377,1.533-10.753c.953-6.735,1.919-13.544,1.322-20.32-.434-4.994-1.659-10.3.506-14.817,1.144-2.4,3.183-4.378,3.818-6.958.522-2.1.036-4.327.379-6.462a11,11,0,0,1,.946-2.8,13.758,13.758,0,0,1,2.171-3.312,3.708,3.708,0,0,1-2.171-1.326c1.394-.907,1.6-2.952.972-4.489a13.8,13.8,0,0,0-3.033-3.918,7.566,7.566,0,0,1-2.376-4.278c-.275-3.147,2.868-5.584,3.422-8.689.561-3.16-1.656-6.232-1.478-9.431.207-3.866,3.759-6.676,7.266-8.306a33.057,33.057,0,0,1,16.943-2.917c4.725.447,9.3,1.909,14.01,2.476,2.842.324,5.723.356,8.546.856a13.729,13.729,0,0,1,7.639,3.623C326.693,289.181,320.419,293.676,320.121,299.431Z" transform="translate(-173.051 -51.073)" fill="#ffe0d0"/>
    <path id="Path_1772" data-name="Path 1772" d="M363.431,628.139c-1.653-.716-4.66-.288-9.823-1.86s-6.158-8.676-6.158-8.676v-.023h0c-.062-.162-.541-1.219-3.789-4.92-3.588-4.087-11.343-24.728-11.343-24.728s-6.877-7.386-6.66-10.108-1.222-9.966-1.079-18.068,15.482-13.476,15.482-13.476c29.534-5.234,22.579,28.815,21.792,31.394s3.3,9.548,3.3,9.548c-.577,3.033,2.366,7.729,2.366,7.729s.713,4.155.859,5.733a.972.972,0,0,0,.049.214c.473,1.488,4.33,2.836,5.9,3.656,1.65.862,6.955,8.387,6.955,8.387C382.422,618.468,365.077,628.865,363.431,628.139Z" transform="translate(-222.063 -231.345)" opacity="0.1"/>
    <path id="Path_1773" data-name="Path 1773" d="M366.088,624.173c-1.65-.719-4.66-.288-9.82-1.864s-6.158-8.673-6.158-8.673v-.023h0c-.058-.165-.541-1.219-3.789-4.92-3.588-4.087-11.343-24.731-11.343-24.731s-6.877-7.383-6.663-10.105-1.219-9.966-1.076-18.061,15.472-13.466,15.472-13.466c29.534-5.234,22.579,28.815,21.792,31.394s3.3,9.548,3.3,9.548c-.577,3.033,2.366,7.729,2.366,7.729s.713,4.155.862,5.733a.813.813,0,0,0,.045.214c.473,1.488,4.33,2.836,5.9,3.656,1.646.859,6.955,8.387,6.955,8.387C385.082,614.509,367.737,624.905,366.088,624.173Z" transform="translate(-223.917 -228.675)" fill="#ff748e"/>
    <path id="Path_1774" data-name="Path 1774" d="M376.8,598.32s12.9,13.612,16.269,13.612S376.8,598.32,376.8,598.32Z" transform="translate(-257.665 -264.863)" opacity="0.1"/>
    <path id="Path_1775" data-name="Path 1775" d="M413.808,739.2c-1.65-.719-4.66-.288-9.82-1.863s-6.158-8.673-6.158-8.673v-.023h0c3.419-2.269,12.079-8.676,15.491-11.019a23.907,23.907,0,0,0,5.51-5.659c.473,1.488,4.33,2.836,5.9,3.656,1.646.859,6.955,8.387,6.955,8.387C432.8,729.532,415.457,739.929,413.808,739.2Z" transform="translate(-272.624 -343.699)" fill="#ff748e"/>
    <g id="Group_2809" data-name="Group 2809" transform="translate(80.959 231.878)" opacity="0.1">
      <path id="Path_1776" data-name="Path 1776" d="M302,406.248c.016.026.039.049.058.075.1-.123.2-.246.3-.363a2.414,2.414,0,0,1-.36.288Z" transform="translate(-286.447 -370.271)"/>
      <path id="Path_1777" data-name="Path 1777" d="M277.082,438.59a12.226,12.226,0,0,1,2-4.965c-.59-.227-1.18-.457-1.763-.7a7.345,7.345,0,0,0,.084-1.1,12.6,12.6,0,0,0-2.042,5.04c-.165,2.165.9,4.213,1.847,6.158,3.643,7.519,5.889,16.315,3.15,24.209-1.189,3.429-3.241,6.482-4.741,9.8a31.641,31.641,0,0,0-2.21,18.723c.742,3.931,2.246,7.817,1.876,11.8-.648,6.854-6.556,11.956-12.481,15.459-2.421,1.432-5.25,2.745-7.956,2.651a9.807,9.807,0,0,1-.836,1.151c3.4,1.5,7.311-.188,10.51-2.081,5.928-3.5,11.849-8.588,12.5-15.456.369-3.983-1.134-7.869-1.88-11.8a31.667,31.667,0,0,1,2.2-18.723c1.491-3.312,3.565-6.368,4.741-9.8,2.739-7.895.489-16.691-3.15-24.209C277.989,442.794,276.917,440.755,277.082,438.59Z" transform="translate(-254.01 -387.757)"/>
      <path id="Path_1778" data-name="Path 1778" d="M373.643,296.747a9.355,9.355,0,0,0-1.024-.907c3.928,5.095-1.744,9.424-2.026,14.908-.253,4.959.162,16.049-5.331,18.531-2.716,1.228-5.629-1.462-8.608-1.526a7.016,7.016,0,0,0-5.425,3.017,32.3,32.3,0,0,0-3.069,5.646,38.81,38.81,0,0,1-2.982,5.023,7.11,7.11,0,0,1-2.437,2.431c-1.782.93-3.951.408-5.872-.194q-2.8-.882-5.555-1.945a7.012,7.012,0,0,1-.084,1.008q3.627,1.478,7.36,2.651c1.919.6,4.087,1.125,5.872.194a7.292,7.292,0,0,0,2.437-2.434,38.183,38.183,0,0,0,2.978-5.02,32.34,32.34,0,0,1,3.072-5.649,7.017,7.017,0,0,1,5.422-3.014c2.982.065,5.9,2.755,8.611,1.526,5.493-2.482,5.075-13.573,5.331-18.531C372.613,306.7,378.887,302.205,373.643,296.747Z" transform="translate(-306.204 -295.84)"/>
    </g>
    <path id="Path_1779" data-name="Path 1779" d="M311.148,421.783c-.275.486-.544.972-.791,1.471-.094.191-.185.389-.266.587-1.7-1.711-5.834-5.778-8.141-7.039a13.823,13.823,0,0,1,2.171-3.312S309.621,416.4,311.148,421.783Z" transform="translate(-205.562 -138.024)" opacity="0.1"/>
    <path id="Path_1780" data-name="Path 1780" d="M311.3,419.726c-1.274-5.766-7.179-8.886-7.179-8.886a13.757,13.757,0,0,0-2.171,3.312c2.434,1.332,6.919,5.8,8.407,7.311Z" transform="translate(-205.563 -136.211)" fill="#ff748e"/>
  </g>
</svg>
