<svg xmlns="http://www.w3.org/2000/svg" xmlns:xlink="http://www.w3.org/1999/xlink" width="333.84" height="267" viewBox="0 0 333.84 267">
  <defs>
    <linearGradient id="linear-gradient" x1="0.5" y1="1" x2="0.5" gradientUnits="objectBoundingBox">
      <stop offset="0" stop-color="gray" stop-opacity="0.251"/>
      <stop offset="0.54" stop-color="gray" stop-opacity="0.122"/>
      <stop offset="1" stop-color="gray" stop-opacity="0.102"/>
    </linearGradient>
    <linearGradient id="linear-gradient-2" x1="0.5" y1="1" x2="0.5" y2="0" xlink:href="#linear-gradient"/>
  </defs>
  <g id="undraw_doctors_hwty" transform="translate(-0.005 -0.003)">
    <path id="Path_1781" data-name="Path 1781" d="M90.875,356.76h29.233v39.848h-27.1c-.069.412-.138.821-.216,1.233h27.312v32.131a.413.413,0,0,1-.135-.052q-1.152-.458-2.3-.971c-.164-.075-.326-.153-.493-.225q-1.152-.544-2.3-1.152c-.268-.141-.536-.288-.8-.438a47.942,47.942,0,0,1-11.494-8.947c-.1-.1-.193-.2-.288-.288-.467-.507-.925-1.02-1.368-1.544-.167-.193-.328-.389-.493-.576-.524-.64-1.031-1.3-1.521-1.968-.075-.1-.144-.2-.216-.288a42.552,42.552,0,0,1-4.955-8.959c-.04-.1-.078-.2-.115-.288-.4-1.008-.758-2.031-1.069-3.074-.133-.435-.262-.864-.372-1.316-.04-.13-.072-.262-.107-.392-1.619-6.381-1.806-13.012-1.806-19.612v-2.3q.035-4.042.1-8.075.023-1.037.043-2.083.06-2.647.173-5.306c.017-.49.04-.982.066-1.469q.017-.424.043-.847Q90.768,358.269,90.875,356.76Z" transform="translate(-68.512 -249.09)" fill="#6c63ff" opacity="0.1"/>
    <path id="Path_1782" data-name="Path 1782" d="M154.217,152.663H138.18a122.071,122.071,0,0,1,8.53-11.736c2.385-2.927,4.9-5.779,7.507-8.527Z" transform="translate(-102.621 -99.604)" fill="#28a745" opacity="0.1"/>
    <path id="Path_1783" data-name="Path 1783" d="M121.831,207v41.908H92.69c0-.121.017-.245.029-.366.026-.331.052-.66.081-.991.029-.386.066-.772.1-1.152s.075-.841.121-1.259.084-.841.13-1.259.092-.835.144-1.25.1-.835.156-1.25c.043-.343.086-.688.135-1.034.066-.487.135-.974.207-1.458a1.388,1.388,0,0,1,.035-.219,100.518,100.518,0,0,1,2.143-10.52,77.894,77.894,0,0,1,3.615-10.658A80.049,80.049,0,0,1,105.028,207Z" transform="translate(-70.235 -147.872)" fill="#28a745" opacity="0.1"/>
    <path id="Path_1784" data-name="Path 1784" d="M218.09,130.613v45.831h66.194V130.613Zm0,47.249v39.36c.379.083.751.166,1.127.235.5.106,1.011.2,1.527.285l.305.046c.2.036.406.066.611.093.51.08,1.02.139,1.527.192.238.027.486.046.727.07l.589.046h0c.321.027.638.046.956.06.2,0,.391.017.589.023s.305,0,.464,0h1.7a7.73,7.73,0,0,0,.785-.027h.015a4.316,4.316,0,0,0,.547-.023,1.227,1.227,0,0,0,.156,0,3.39,3.39,0,0,0,.452-.02.6.6,0,0,1,.1,0c.339-.023.681-.053,1.026-.086s.672-.073,1.017-.113l.693-.093a56.716,56.716,0,0,0,8.383-1.935c6.178-1.869,12.215-4.483,18.39-6.394,7.977-2.468,16.8-3.684,24.5-.679V177.862Zm66.194-98.278V18.569a78.736,78.736,0,0,0-21.5,2.733c-16.762,4.569-31.815,14.479-44.689,27.135V79.581h3.332V81H218.09v48.2h66.194V81H235.051V79.577Zm85.042-20.611a25.829,25.829,0,0,1-12-3.784c-7.128-4.2-12.826-10.7-19.19-16.185A84.38,84.38,0,0,0,291.69,18.98v60.6h94.488l.235-.268Zm8.609-1.657,9.128,10.871V54.457a34.379,34.379,0,0,0-9.128,2.846ZM387.063,227V177.862H367.6c-.049-.209-.1-.421-.165-.633.058.212.11.424.162.633H291.69v35.53c.721.58,1.432,1.193,2.138,1.809h0q1.142,1.014,2.269,2.051l.757.679c.363.331.733.663,1.1.977q1.1.964,2.22,1.908.559.477,1.124.938a152.734,152.734,0,0,0,18.824,13.355c1.472.891,2.959,1.749,4.456,2.588q1.493.835,3.008,1.637,2.272,1.2,4.581,2.319h0a158.319,158.319,0,0,0,44.586,14.088q5.124.818,10.294,1.292V226.99h.305ZM291.69,81v48.2h95.373V81Zm0,49.611v45.838h95.373V130.613ZM394.466,54.391v15.34l11.647-13.872A113.045,113.045,0,0,0,394.466,54.391Zm0,76.223v45.831h92.759V130.613ZM486.9,230.631l.327-52.769H394.466v79.7a154.074,154.074,0,0,0,17.926-.235h.1q4.275-.3,8.511-.848h.064a146.928,146.928,0,0,0,43.74-12.676m40.31-105.667q-.528-1.325-1.084-2.651c-.69-1.657-1.417-3.267-2.168-4.874h-7.237v45.828h18.3c-.015-12.981-3.045-26.234-7.806-38.3Zm-10.49,39.721v45.39a64.872,64.872,0,0,0,12.643-18.5,68.208,68.208,0,0,0,5.64-26.893Zm0-60.6v11.927h6.56A132.372,132.372,0,0,0,494.631,117.258ZM431.722,63.386c-.483-.2-.968-.4-1.454-.6A124.345,124.345,0,0,0,414.6,57.681L396.774,78.9h0l-.348.408.229.268h63.452a132.245,132.245,0,0,0-28.385-16.195ZM461.97,81h-66.2l-1.3,1.289V129.2h92.759V106.467A137.025,137.025,0,0,0,461.97,81Z" transform="translate(-179.081 -18.56)" fill="#28a745" opacity="0.1"/>
    <path id="Path_1785" data-name="Path 1785" d="M121.831,280.39v20.767H92.69c0-.121.017-.245.029-.366.026-.331.052-.66.081-.991.029-.386.066-.772.1-1.152s.075-.841.121-1.259.084-.841.13-1.259.092-.835.144-1.25.1-.835.156-1.25c.043-.343.086-.688.135-1.034.066-.487.135-.974.207-1.458a1.387,1.387,0,0,1,.035-.219,100.522,100.522,0,0,1,2.143-10.52Z" transform="translate(-70.235 -198.859)" fill="#28a745" opacity="0.1"/>
    <path id="Path_1786" data-name="Path 1786" d="M90.875,356.76h29.233v39.848h-27.1c-.069.412-.138.821-.216,1.233h27.312v32.131a.413.413,0,0,1-.135-.052q-1.152-.458-2.3-.971c-.164-.075-.326-.153-.493-.225q-1.152-.544-2.3-1.152c-.268-.141-.536-.288-.8-.438a47.942,47.942,0,0,1-11.494-8.947c-.1-.1-.193-.2-.288-.288-.467-.507-.925-1.02-1.368-1.544-.167-.193-.328-.389-.493-.576-.524-.64-1.031-1.3-1.521-1.968-.075-.1-.144-.2-.216-.288a42.552,42.552,0,0,1-4.955-8.959c-.04-.1-.078-.2-.115-.288-.4-1.008-.758-2.031-1.069-3.074-.133-.435-.262-.864-.372-1.316-.04-.13-.072-.262-.107-.392-1.619-6.381-1.806-13.012-1.806-19.612v-2.3q.035-4.042.1-8.075.023-1.037.043-2.083.06-2.647.173-5.306c.017-.49.04-.982.066-1.469q.017-.424.043-.847Q90.768,358.269,90.875,356.76Z" transform="translate(-68.512 -249.09)" fill="#28a745" opacity="0.1"/>
    <path id="Path_1787" data-name="Path 1787" d="M224.112,179.236v35.9H202.13v-35.9h3.134V167.08h12.865v12.156Z" transform="translate(-144.082 -114.522)" fill="#28a745" opacity="0.1"/>
    <rect id="Rectangle_1690" data-name="Rectangle 1690" width="21.98" height="39.848" transform="translate(58.048 106.029)" fill="#28a745" opacity="0.1"/>
    <path id="Path_1788" data-name="Path 1788" d="M218.09,499.37h21.98V532.5a56.947,56.947,0,0,1-7.907,1.68c-.219.032-.435.057-.654.081-.323.037-.642.072-.962.1l-.965.078h-.1l-.426.023h-.147c-.173,0-.343.02-.516.023h-.014c-.248,0-.493.017-.74.023H225.6a4.54,4.54,0,0,1-.559-.023q-.444-.017-.9-.052h0l-.556-.04c-.23-.017-.461-.04-.688-.063q-.726-.064-1.44-.164l-.576-.081-.288-.04c-.481-.072-.959-.153-1.44-.245-.357-.063-.709-.135-1.063-.21Z" transform="translate(-160.039 -348.898)" fill="#28a745" opacity="0.1"/>
    <rect id="Rectangle_1691" data-name="Rectangle 1691" width="18.125" height="40.142" transform="translate(198.055 61.006)" fill="#28a745" opacity="0.1"/>
    <path id="Path_1789" data-name="Path 1789" d="M533.116,338.19v39.851H443.15V360.852h47.92v10.14h23.918v-32.8Z" transform="translate(-316.622 -232.161)" fill="#28a745" opacity="0.1"/>
    <path id="Path_1790" data-name="Path 1790" d="M549.351,540.739a1.618,1.618,0,0,1-.288-.017v26.142q-4.871-.4-9.708-1.121A158.823,158.823,0,0,1,497.28,553.5q-5.8-2.616-11.361-5.7a145.162,145.162,0,0,1-17.754-11.612q-2.126-1.625-4.189-3.321c-.954-.789-1.9-1.6-2.86-2.377-.663-.539-1.334-1.072-2.016-1.579v-30.9h71.6c-.052-.184-.1-.366-.15-.55.055.184.107.366.153.55h18.362v42.709C549.161,540.722,549.256,540.731,549.351,540.739Z" transform="translate(-332.574 -345.306)" fill="#28a745" opacity="0.1"/>
    <path id="Path_1791" data-name="Path 1791" d="M906.321,166.652H894.51v-3.67H899.8V152.05q.688.254,1.371.519v10.414h5.145Z" transform="translate(-643.302 -110.564)" fill="#28a745" opacity="0.1"/>
    <path id="Path_1792" data-name="Path 1792" d="M864.4,248.908H806.409a.038.038,0,0,0,.017,0H795.65V208.766H798.7v29.671h13.925V220.865h11.508V207h11.811v13.873h11.5v17.572H864.4Z" transform="translate(-573.549 -147.872)" fill="#28a745" opacity="0.1"/>
    <path id="Path_1793" data-name="Path 1793" d="M795.65,356.76v39.848H864.4V356.76Zm87.4,86.751.1-31.543H864.4V397.853H795.65v69.289a157.67,157.67,0,0,0,16.91-.2h.1q4.033-.259,8.028-.737h.06a147.633,147.633,0,0,0,41.26-11.021" transform="translate(-573.549 -246.322)" fill="#28a745" opacity="0.1"/>
    <path id="Path_1794" data-name="Path 1794" d="M1124.86,499.37H1140.9a55.4,55.4,0,0,1-5.321,23.38,56.444,56.444,0,0,1-11.926,16.089v-25.35h1.21Z" transform="translate(-807.063 -348.65)" fill="#28a745" opacity="0.1"/>
    <path id="Path_1795" data-name="Path 1795" d="M1143.9,412.783H1127.85v-33.3h8.685C1141.026,389.974,1143.884,401.5,1143.9,412.783Z" transform="translate(-810.054 -266.604)" fill="#28a745" opacity="0.1"/>
    <rect id="Rectangle_1692" data-name="Rectangle 1692" width="9.711" height="12.586" transform="translate(206.445 72.459)" fill="#28a745" opacity="0.1"/>
    <rect id="Rectangle_1693" data-name="Rectangle 1693" width="9.711" height="2.898" transform="translate(206.445 100.297)" fill="#28a745" opacity="0.1"/>
    <rect id="Rectangle_1694" data-name="Rectangle 1694" width="9.711" height="8.455" transform="translate(206.445 104.904)" fill="#28a745" opacity="0.1"/>
    <rect id="Rectangle_1695" data-name="Rectangle 1695" width="9.711" height="12.586" transform="translate(206.445 128.71)" fill="#28a745" opacity="0.1"/>
    <rect id="Rectangle_1696" data-name="Rectangle 1696" width="9.711" height="12.586" transform="translate(206.445 156.835)" fill="#28a745" opacity="0.1"/>
    <path id="Path_1796" data-name="Path 1796" d="M747.411,623.759a1.4,1.4,0,0,1,.288.02,1.631,1.631,0,0,1-.288-.017v2.924H737.7V614.1h9.711Z" transform="translate(-531.257 -429.139)" fill="#28a745" opacity="0.1"/>
    <path id="Path_1797" data-name="Path 1797" d="M747.411,704.65v9.719q-4.874-.4-9.711-1.121v-8.6Z" transform="translate(-531.255 -491.752)" fill="#28a745" opacity="0.1"/>
    <rect id="Rectangle_1697" data-name="Rectangle 1697" width="41.617" height="0.925" transform="translate(126.77 146.501)" fill="#28a745" opacity="0.1"/>
    <rect id="Rectangle_1698" data-name="Rectangle 1698" width="41.617" height="3.543" transform="translate(126.77 148.926)" fill="#28a745" opacity="0.1"/>
    <rect id="Rectangle_1699" data-name="Rectangle 1699" width="41.617" height="5.698" transform="translate(126.77 165.328)" fill="#28a745" opacity="0.1"/>
    <path id="Path_1798" data-name="Path 1798" d="M505.7,612.08v5.7H473.149q-2.126-1.619-4.189-3.324c-.956-.786-1.9-1.593-2.861-2.374Z" transform="translate(-337.324 -428.125)" fill="#28a745" opacity="0.1"/>
    <path id="Path_1799" data-name="Path 1799" d="M567,672.17v5.712h-3.437q-5.8-2.616-11.361-5.7Z" transform="translate(-398.746 -469.59)" fill="#28a745" opacity="0.1"/>
    <rect id="Rectangle_1700" data-name="Rectangle 1700" width="8.193" height="8.193" transform="translate(239.764 109.055)" fill="#6c63ff" opacity="0.1"/>
    <rect id="Rectangle_1701" data-name="Rectangle 1701" width="8.193" height="8.193" transform="translate(63.922 67.956)" fill="#28a745" opacity="0.1"/>
    <rect id="Rectangle_1702" data-name="Rectangle 1702" width="8.193" height="8.193" transform="translate(63.922 88.445)" fill="#28a745" opacity="0.1"/>
    <rect id="Rectangle_1703" data-name="Rectangle 1703" width="8.193" height="8.193" transform="translate(63.922 108.934)" fill="#28a745" opacity="0.1"/>
    <rect id="Rectangle_1704" data-name="Rectangle 1704" width="8.193" height="8.193" transform="translate(63.922 129.42)" fill="#28a745" opacity="0.1"/>
    <rect id="Rectangle_1705" data-name="Rectangle 1705" width="8.193" height="8.193" transform="translate(63.922 149.91)" fill="#28a745" opacity="0.1"/>
    <rect id="Rectangle_1706" data-name="Rectangle 1706" width="8.193" height="8.193" transform="translate(63.922 170.399)" fill="#28a745" opacity="0.1"/>
    <rect id="Rectangle_1707" data-name="Rectangle 1707" width="8.193" height="8.193" transform="translate(267.285 109.055)" fill="#28a745" opacity="0.1"/>
    <rect id="Rectangle_1708" data-name="Rectangle 1708" width="8.193" height="8.193" transform="translate(239.764 130.813)" fill="#6c63ff" opacity="0.1"/>
    <rect id="Rectangle_1709" data-name="Rectangle 1709" width="8.193" height="8.193" transform="translate(267.285 130.813)" fill="#28a745" opacity="0.1"/>
    <rect id="Rectangle_1710" data-name="Rectangle 1710" width="8.193" height="8.193" transform="translate(239.764 152.568)" fill="#6c63ff" opacity="0.1"/>
    <rect id="Rectangle_1711" data-name="Rectangle 1711" width="8.193" height="8.193" transform="translate(267.285 152.568)" fill="#6c63ff" opacity="0.1"/>
    <rect id="Rectangle_1712" data-name="Rectangle 1712" width="8.193" height="8.193" transform="translate(239.764 174.326)" fill="#6c63ff" opacity="0.1"/>
    <rect id="Rectangle_1713" data-name="Rectangle 1713" width="8.193" height="8.193" transform="translate(267.285 174.326)" fill="#28a745" opacity="0.1"/>
    <rect id="Rectangle_1714" data-name="Rectangle 1714" width="8.193" height="8.193" transform="translate(239.764 196.083)" fill="#6c63ff" opacity="0.1"/>
    <rect id="Rectangle_1715" data-name="Rectangle 1715" width="8.193" height="8.193" transform="translate(267.285 196.083)" fill="#28a745" opacity="0.1"/>
    <path id="Path_1800" data-name="Path 1800" d="M838.4,707.613V702.33h8.19v4.531Z" transform="translate(-598.636 -481.573)" fill="#6c63ff" opacity="0.1"/>
    <path id="Path_1801" data-name="Path 1801" d="M96.53,316.91V321.6h28.035V316.91Zm2.791,4.393h-2.3v-4.1h2.3Zm2.791,0h-2.3v-4.1h2.3Zm2.786,0h-2.3v-4.1h2.3Zm2.791,0h-2.3v-4.1h2.3Zm2.788,0h-2.3v-4.1h2.3Zm2.791,0h-2.3v-4.1h2.3Zm2.791,0h-2.3v-4.1h2.3Zm2.788,0h-2.3v-4.1h2.3Zm2.788,0h-2.3v-4.1h2.3Zm2.791,0h-2.3v-4.1h2.3Z" transform="translate(-72.969 -224.466)" fill="#6c63ff" opacity="0.1"/>
    <path id="Path_1802" data-name="Path 1802" d="M96.53,364.27v4.687h28.035V364.27Zm2.791,4.393h-2.3v-4.1h2.3Zm2.791,0h-2.3v-4.1h2.3Zm2.786,0h-2.3v-4.1h2.3Zm2.791,0h-2.3v-4.1h2.3Zm2.788,0h-2.3v-4.1h2.3Zm2.791,0h-2.3v-4.1h2.3Zm2.791,0h-2.3v-4.1h2.3Zm2.788,0h-2.3v-4.1h2.3Zm2.788,0h-2.3v-4.1h2.3Zm2.791,0h-2.3v-4.1h2.3Z" transform="translate(-72.969 -257.152)" fill="#28a745" opacity="0.1"/>
    <path id="Path_1803" data-name="Path 1803" d="M96.53,411.64v4.684h28.035V411.64Zm2.791,4.387h-2.3v-4.1h2.3Zm2.791,0h-2.3v-4.1h2.3Zm2.786,0h-2.3v-4.1h2.3Zm2.791,0h-2.3v-4.1h2.3Zm2.788,0h-2.3v-4.1h2.3Zm2.791,0h-2.3v-4.1h2.3Zm2.791,0h-2.3v-4.1h2.3Zm2.788,0h-2.3v-4.1h2.3Zm2.788,0h-2.3v-4.1h2.3Zm2.791,0h-2.3v-4.1h2.3Z" transform="translate(-72.969 -289.844)" fill="#28a745" opacity="0.1"/>
    <path id="Path_1804" data-name="Path 1804" d="M96.53,459v4.684h28.035V459Zm2.791,4.39h-2.3v-4.1h2.3Zm2.791,0h-2.3v-4.1h2.3Zm2.786,0h-2.3v-4.1h2.3Zm2.791,0h-2.3v-4.1h2.3Zm2.788,0h-2.3v-4.1h2.3Zm2.791,0h-2.3v-4.1h2.3Zm2.791,0h-2.3v-4.1h2.3Zm2.788,0h-2.3v-4.1h2.3Zm2.788,0h-2.3v-4.1h2.3Zm2.791,0h-2.3v-4.1h2.3Z" transform="translate(-72.969 -322.53)" fill="#28a745" opacity="0.1"/>
    <path id="Path_1805" data-name="Path 1805" d="M97,506.34c.109.444.239.881.372,1.316v-1.02h2.3v4.093H98.44c.035.1.072.2.112.288h26.358V506.34Zm5.473,4.39h-2.3v-4.093h2.3Zm2.786,0h-2.3v-4.093h2.3Zm2.791,0h-2.3v-4.093h2.3Zm2.789,0h-2.3v-4.093h2.3Zm2.791,0h-2.3v-4.093h2.3Zm2.791,0h-2.3v-4.093h2.3Zm2.788,0h-2.3v-4.093h2.3Zm2.788,0h-2.3v-4.093H122Zm2.791,0h-2.3v-4.093h2.3Z" transform="translate(-73.303 -355.202)" fill="#28a745" opacity="0.1"/>
    <path id="Path_1806" data-name="Path 1806" d="M119.54,553.7c.075.092.144.2.216.288h1.524v1.968l.493.576v-2.555h2.3v4.131h-.948c.092.1.181.2.288.288h17.523v-4.7Zm7.334,4.407h-2.3v-4.114h2.3Zm2.791,0h-2.3v-4.114h2.3Zm2.791,0h-2.3v-4.114h2.3Zm2.788,0h-2.3v-4.114h2.3Zm2.788,0h-2.3v-4.114h2.3Zm2.791,0h-2.3v-4.114h2.3Z" transform="translate(-89.35 -387.887)" fill="#28a745" opacity="0.1"/>
    <path id="Path_1807" data-name="Path 1807" d="M172.93,601.06c.265.15.533.288.8.435v-.144h2.3v1.3c.167.072.325.15.49.225v-1.524h2.3v2.495a.936.936,0,0,0,.135.049V601.06Z" transform="translate(-127.36 -420.669)" fill="#6c63ff" opacity="0.1"/>
    <path id="Path_1808" data-name="Path 1808" d="M402.993,245.861Zm-17.745,85.023Zm-18.514-43.259c.055.184.1.369.153.55h0C366.843,287.994,366.791,287.809,366.734,287.625Zm36.259-41.764ZM229,202.726v1.227h12.868V202.72ZM385.251,330.884Zm-18.517-43.259c.055.184.1.369.153.55h0C366.843,287.994,366.791,287.809,366.734,287.625Zm36.259-41.764Zm-17.745,85.023Zm-18.514-43.259c.055.184.1.369.153.55h0C366.843,287.994,366.791,287.809,366.734,287.625Z" transform="translate(-168.356 -141.544)" fill="#6c63ff" opacity="0.1"/>
    <ellipse id="Ellipse_360" data-name="Ellipse 360" cx="28.069" cy="4.508" rx="28.069" ry="4.508" transform="translate(223.32 257.987)" fill="#28a745" opacity="0.1"/>
    <ellipse id="Ellipse_361" data-name="Ellipse 361" cx="28.069" cy="4.508" rx="28.069" ry="4.508" transform="translate(98.016 253.478)" fill="#28a745" opacity="0.1"/>
    <path id="Path_1809" data-name="Path 1809" d="M444.4,322.481a.153.153,0,0,0-.043-.075c-.429-.423-5.9-8.164-5.9-8.164s-.288-.864-.755-1.988a1.975,1.975,0,0,0,.331-.648,2.219,2.219,0,0,0,.055-.3c0-.032.023-.058.032-.089a2.187,2.187,0,0,0-.029-1.187,2.053,2.053,0,0,1-.118.288,4.818,4.818,0,0,0-.432-.962c-.726-1.25-1.763-2.3-2.526-3.523a9.532,9.532,0,0,1-1.3-6.326v.34a9.858,9.858,0,0,1,.173-1.3,8.978,8.978,0,0,1,.481-1.423c.685-1.57,1.795-2.938,2.469-4.514a8.554,8.554,0,0,0,.513-1.651,9.244,9.244,0,0,0,.256-2.9,4.617,4.617,0,0,1-.072.689,9.377,9.377,0,0,0-2.647-6.242c-2.354-2.365-5.733-3.284-8.965-3.768a8.213,8.213,0,0,1-3.774-1.44,6.56,6.56,0,0,0-4.3-.821,7.089,7.089,0,0,0-4.376,2.163c-1.535,1.688-2.2,4.079-3.993,5.5A17.722,17.722,0,0,1,405.755,286a4.99,4.99,0,0,0-2.866,2.7v.046l-.017.046c-.421,1.492.392,3.01.815,4.5a18.23,18.23,0,0,1,.493,4.762c.032,1.947.061,3.9.029,5.848-.014.766-.04,1.541-.1,2.3a12.075,12.075,0,0,0-1.979.8,39.2,39.2,0,0,0-3.059,3.028l-4.721,18.039.063.072-.063.245.239-.055a24.307,24.307,0,0,0,4.819,4.05l.2,3.537a6.288,6.288,0,0,0,3.506,5.015c.075,1.23.308,6.225-.772,8.2a9.219,9.219,0,0,0-1.02,4.69,15.949,15.949,0,0,1-.052,4.58,7.489,7.489,0,0,0-.055,3.215h0v.948c0,3.195.037,13.433,0,14.591-.055,1.368,0,21.605,0,21.605s-.268,10.114-1.126,12.854-.642,11.811-.642,11.811-.539,10.805,1.365,12.937c0,.1-.017.193-.02.288v.135c-.023.821.135,1.694.841,1.962a12.052,12.052,0,0,1,3.7,2.688,6.722,6.722,0,0,0,5.185,1.342,39.044,39.044,0,0,1,5.154-.236h0s1.077-.2.729-1.535h0a11.993,11.993,0,0,0-1.665-2.964c.109.029.216.052.317.072l.1.02h.081a1.092,1.092,0,0,0,.133,0h.058a.985.985,0,0,0,.161,0h0a7.229,7.229,0,0,1,3.9,2.016c.481.83,2.178,1.461,3.457,1.619a24.556,24.556,0,0,0,4.289-.271,15.787,15.787,0,0,0,2.4-.438c.38-.144.461-.6.352-1.124h0a2.924,2.924,0,0,0-1-1.682,8.088,8.088,0,0,1-1.538-1.919l-.121-.193c.8-.766,2.256-3.272,2.7-3.791.536-.631-.864-23.7-.864-23.7V397.093l2.146-10.947,1.5-5.793,1.288-8.746s2.253-10.215,1.558-11.217h0c0-.02-.576-10.537-1.181-13.064a28.639,28.639,0,0,1-.04-6.127,1.21,1.21,0,0,0,.288-1.262,2.62,2.62,0,0,0-.167-.429v-.132a19.834,19.834,0,0,1,3.88-1.319c2.146-.421,1.61-1.527,1.61-1.527s.484-.948.8-1.527.055-5.689,0-6.11c-.02-.17-.153-1.109-.305-2.175.689-.49,1.584-1.1,2.561-1.674C444.972,323.944,444.554,322.783,444.4,322.481Zm-28,73.034s-1.61,4.108-.965,5.159-.107,4.955-.107,4.955l-.539,5.793s-1.5,10.745-.965,13.271a89.876,89.876,0,0,1,.625,10.37h0a.725.725,0,0,0-.107.052l-.072.037c.248-.971.144-2.935-1.086-6.888l-.1-16.325s-.19-18.857,1.3-20.965a15.87,15.87,0,0,0,2.016-5.689s-.323,5.165-.533,6.533A10.769,10.769,0,0,0,416.4,395.514Zm-3,40.577c-.014.035-.032.069-.043.1l-.081-.1A.848.848,0,0,0,413.4,436.091Z" transform="translate(-286.083 -183.702)" fill="url(#linear-gradient)"/>
    <path id="Path_1810" data-name="Path 1810" d="M477.421,837.461a28.6,28.6,0,0,1-6.608.712c-1.262-.153-2.933-.792-3.408-1.628a7,7,0,0,0-3.854-2.016,2.591,2.591,0,0,1-.864-.121,10.621,10.621,0,0,1-1.44-.553,2.674,2.674,0,0,1,.032-1.095,1.733,1.733,0,0,1,.063-.213,1.9,1.9,0,0,1,.968-1.077l.1-.049a2.923,2.923,0,0,1,.622-.19c2.264-.435,11.606.438,11.606.438s.262.47.622,1.052a8.043,8.043,0,0,0,1.521,1.93,2.953,2.953,0,0,1,.982,1.694C477.876,836.853,477.8,837.319,477.421,837.461Z" transform="translate(-333.737 -578.601)" fill="#fff"/>
    <path id="Path_1811" data-name="Path 1811" d="M477.43,839.455a28.573,28.573,0,0,1-6.605.712c-1.262-.153-2.932-.795-3.411-1.628a7.022,7.022,0,0,0-3.851-2.017,6.672,6.672,0,0,1-2.3-.674,2.388,2.388,0,0,1,.472-1.939l1.44,1.023s3.854,1.2,4.569,2.3a4.641,4.641,0,0,0,3.9,1.841,36.489,36.489,0,0,0,6.147-.729C477.885,838.847,477.808,839.314,477.43,839.455Z" transform="translate(-333.746 -580.596)" opacity="0.1"/>
    <path id="Path_1812" data-name="Path 1812" d="M433.277,839.187a38.379,38.379,0,0,0-5.087.239,6.55,6.55,0,0,1-5.13-1.351,12.019,12.019,0,0,0-3.656-2.708c-.7-.271-.864-1.152-.833-1.976v-.135a8.072,8.072,0,0,1,.23-1.547l11.209-.239.971,1.316.15.2.591.8s.268.351.619.864a12.3,12.3,0,0,1,1.645,2.984h0C434.34,838.992,433.277,839.187,433.277,839.187Z" transform="translate(-303.268 -578.859)" fill="#fff"/>
    <path id="Path_1813" data-name="Path 1813" d="M433.277,843.95a38.327,38.327,0,0,0-5.087.239,6.542,6.542,0,0,1-5.128-1.351,11.683,11.683,0,0,0-3.658-2.7c-.7-.271-.864-1.152-.833-1.976a6.4,6.4,0,0,1,3.143,1.5c.864,1.112,2.411,2.982,4.609,3.1,1.775.1,6.1-.222,7.68-.349C434.343,843.754,433.277,843.95,433.277,843.95Z" transform="translate(-303.269 -583.622)" opacity="0.1"/>
    <path id="Path_1814" data-name="Path 1814" d="M431.917,831.7c-.13.962-.53,1.221-.818,1.279a.549.549,0,0,1-.213,0,.691.691,0,0,1-.112-.017s-10.065,2.224-12.1.423a1.4,1.4,0,0,1-.144-.15,8.072,8.072,0,0,1,.23-1.547l11.209-.239.971,1.316a1.9,1.9,0,0,1,.968-1.077Z" transform="translate(-303.235 -578.845)" opacity="0.1"/>
    <path id="Path_1815" data-name="Path 1815" d="M478.219,832.643c-.225.248-.412.389-.53.34-.53-.213-4.874-.954-6.254-.317s-6.049.1-6.049.1,0-.553-.026-1.44a2.933,2.933,0,0,1,.622-.19c2.264-.435,11.606.438,11.606.438S477.862,832.062,478.219,832.643Z" transform="translate(-336.692 -578.537)" opacity="0.1"/>
    <path id="Path_1816" data-name="Path 1816" d="M448.038,573.767l-1.273,8.8-1.481,5.831-2.12,11.021v11.667s1.377,23.212.847,23.846-2.544,4.243-3.074,4.033-4.874-.953-6.254-.32-6.049.107-6.049.107-.107-9.008-.637-11.552.954-13.355.954-13.355l.53-5.828s.743-3.923.107-4.983.953-5.185.953-5.185a10.851,10.851,0,0,1-.527-3.713c.213-1.377.527-6.571.527-6.571a16.2,16.2,0,0,1-2,5.724c-1.472,2.117-1.285,21.092-1.285,21.092l.1,16.42c2.653,8.694,0,7.844,0,7.844s-10.065,2.227-12.1.423-1.452-13.153-1.452-13.153-.21-9.114.637-11.868,1.115-12.931,1.115-12.931-.055-20.352,0-21.726c.04-1.152,0-11.468,0-14.691v-.953l1.216-3.019,14.4-1.8h6.891s10.37,2.437,11.442,3.488a.239.239,0,0,1,.058.063C450.264,563.489,448.038,573.767,448.038,573.767Z" transform="translate(-299.884 -384.821)" fill="#28a745"/>
    <path id="Path_1817" data-name="Path 1817" d="M472.11,770.88s3.169,7.631,4.664,8.161S472.11,770.88,472.11,770.88Z" transform="translate(-341.487 -535.723)" opacity="0.1"/>
    <path id="Path_1818" data-name="Path 1818" d="M476.18,809.88s10.7.53,10.592,1.7S476.18,809.88,476.18,809.88Z" transform="translate(-344.415 -563.488)" opacity="0.1"/>
    <path id="Path_1819" data-name="Path 1819" d="M426.49,799.29c.423.4,8.161,1.152,7.524,1.884s-6.888,2.155-6.888,2.155Z" transform="translate(-308.904 -555.949)" opacity="0.1"/>
    <path id="Path_1820" data-name="Path 1820" d="M422.08,753.59c0,.317,1.59,10.175,2.016,10.6s3.921.847,3.921.847Z" transform="translate(-305.748 -523.413)" opacity="0.1"/>
    <path id="Path_1821" data-name="Path 1821" d="M434.706,280.3c-1.518,1.7-2.175,4.1-3.944,5.537a17.491,17.491,0,0,1-3.684,1.864,4.9,4.9,0,0,0-2.861,2.814c-.415,1.5.386,3.028.807,4.525a18.738,18.738,0,0,1,.487,4.791c.029,1.962.06,3.923.026,5.885-.052,3.056-.305,6.254-1.927,8.844,5.856,1.864,12.084,2.117,18.226,2.356a18.391,18.391,0,0,0,3.54-.089,30.381,30.381,0,0,0,3.016-.763,23.126,23.126,0,0,1,6.009-.769,10.089,10.089,0,0,0,2.639-.176,2.6,2.6,0,0,0,1.9-1.674,3.109,3.109,0,0,0-.487-2.27c-.714-1.256-1.728-2.3-2.495-3.543a9.737,9.737,0,0,1-.625-8.754c.68-1.581,1.774-2.958,2.443-4.543a9.581,9.581,0,0,0-1.93-10.163c-2.325-2.379-5.661-3.3-8.852-3.791a8.04,8.04,0,0,1-3.728-1.44,6.38,6.38,0,0,0-4.246-.824,6.931,6.931,0,0,0-4.318,2.184Z" transform="translate(-306.941 -196.73)" fill="#3f3d56"/>
    <g id="Group_2810" data-name="Group 2810" transform="translate(116.784 93.654)" opacity="0.1">
      <path id="Path_1822" data-name="Path 1822" d="M532.188,326.159a9.584,9.584,0,0,0-.735,4.4,9.422,9.422,0,0,1,.735-3.123c.677-1.581,1.772-2.958,2.44-4.543a9.19,9.19,0,0,0,.671-4.183,8.956,8.956,0,0,1-.671,2.91C533.959,323.2,532.865,324.578,532.188,326.159Z" transform="translate(-500.486 -318.71)"/>
      <path id="Path_1823" data-name="Path 1823" d="M427.039,329.942c.017,1.129.035,2.261.037,3.391q0-2.333-.037-4.661a18.69,18.69,0,0,0-.487-4.793,23.731,23.731,0,0,1-.864-2.979c-.256,1.412.472,2.843.864,4.252A18.6,18.6,0,0,1,427.039,329.942Z" transform="translate(-425.167 -320.269)"/>
      <path id="Path_1824" data-name="Path 1824" d="M457.423,397.027a9.739,9.739,0,0,1-2.636.176,23.112,23.112,0,0,0-6.006.755,30.592,30.592,0,0,1-3.016.761,18.2,18.2,0,0,1-3.543.092c-5.934-.233-11.952-.484-17.635-2.181a9.776,9.776,0,0,1-.576,1.095c5.856,1.861,12.084,2.117,18.223,2.356a18.2,18.2,0,0,0,3.543-.092,29.815,29.815,0,0,0,3-.758,23.106,23.106,0,0,1,5.995-.763,9.947,9.947,0,0,0,2.636-.179,2.606,2.606,0,0,0,1.9-1.671,2.287,2.287,0,0,0-.029-1.2A2.689,2.689,0,0,1,457.423,397.027Z" transform="translate(-424.01 -373.322)"/>
    </g>
    <path id="Path_1825" data-name="Path 1825" d="M461.653,347.26c-.213.478-1.112,4.609-1.325,5.033s-1.377,7.2-1.484,7.582-7.671-1.59-7.671-1.59l-4.554-3.817-4.681-4.658s-.138-4.2,3.31-5.551a5.279,5.279,0,0,1,.72-.225c4.183-1.005,3.762-13.723,3.762-13.723l8.584,3.707s-1.59,7.421-1.535,8.852c.014.481.392.781.884.962a6.993,6.993,0,0,0,2.345.254S461.867,346.785,461.653,347.26Z" transform="translate(-319.981 -232.941)" fill="#fbbebe"/>
    <path id="Path_1826" data-name="Path 1826" d="M535.7,435.964l1.219.32s.9,1.371-1.219,2.647a36.724,36.724,0,0,0-3.869,2.7l-6.266,1.907-1.207-3.788,5.831-4.425Z" transform="translate(-378.846 -306.061)" fill="#28a745"/>
    <path id="Path_1827" data-name="Path 1827" d="M535.7,435.964l1.219.32s.9,1.371-1.219,2.647a36.724,36.724,0,0,0-3.869,2.7l-6.266,1.907-1.207-3.788,5.831-4.425Z" transform="translate(-378.846 -306.061)" opacity="0.1"/>
    <path id="Path_1828" data-name="Path 1828" d="M398.977,448.529l-2.437,2.385s4.4,5.087,7.778,5.4,5.563-3.869,5.563-3.869l-2.927-4.609Z" transform="translate(-287.524 -314.68)" fill="#28a745"/>
    <path id="Path_1829" data-name="Path 1829" d="M398.977,448.529l-2.437,2.385s4.4,5.087,7.778,5.4,5.563-3.869,5.563-3.869l-2.927-4.609Z" transform="translate(-287.524 -314.68)" opacity="0.1"/>
    <circle id="Ellipse_362" data-name="Ellipse 362" cx="8.478" cy="8.478" r="8.478" transform="translate(125.961 87.623)" opacity="0.1"/>
    <circle id="Ellipse_363" data-name="Ellipse 363" cx="8.478" cy="8.478" r="8.478" transform="translate(125.961 86.935)" fill="#fbbebe"/>
    <path id="Path_1830" data-name="Path 1830" d="M454.088,563.455a27.371,27.371,0,0,0-5.672,1.27c-3.169,1.054-28,.017-28.346,0v-.954l1.216-3.019,14.4-1.8h6.891s10.37,2.437,11.442,3.488C454.065,563.072,454.088,563.455,454.088,563.455Z" transform="translate(-304.406 -391.435)" opacity="0.1"/>
    <path id="Path_1831" data-name="Path 1831" d="M461.653,380.678c-.213.478-1.112,4.609-1.325,5.033s-1.377,7.2-1.484,7.582-7.671-1.59-7.671-1.59l-4.554-3.817-4.681-4.658s-.138-4.2,3.31-5.551l8.561,9.843,3.854-10.27a6.99,6.99,0,0,0,2.345.254S461.867,380.2,461.653,380.678Z" transform="translate(-319.981 -265.727)" opacity="0.1"/>
    <path id="Path_1832" data-name="Path 1832" d="M432.987,386.747l-8.763-10.082a3.673,3.673,0,0,0-3.477-.256c-1.962.85-4.4,1.538-5.035,1.962a39.264,39.264,0,0,0-3.022,3.045l7.1,18.583-3.128,12.24s.478,6.254-.74,8.533a9.366,9.366,0,0,0-1.008,4.716,16.377,16.377,0,0,1-.052,4.609,7.676,7.676,0,0,0-.055,3.232s25.174,1.06,28.352,0a27.135,27.135,0,0,1,5.672-1.27s-.576-10.6-1.152-13.144.478-12.24.478-12.24l-.689-10.388,4.131-10.659s-2.238-6.833-4.572-7.521a45.313,45.313,0,0,1-5.139-1.483,18.017,18.017,0,0,0-3.552-.9l-1.391.467Z" transform="translate(-299.149 -262.874)" fill="#28a745"/>
    <rect id="Rectangle_1716" data-name="Rectangle 1716" width="20.176" height="30.875" rx="2.94" transform="translate(126.737 132.168) rotate(3.89)" opacity="0.1"/>
    <rect id="Rectangle_1717" data-name="Rectangle 1717" width="20.176" height="30.875" rx="2.94" transform="translate(127.366 131.482) rotate(3.89)" fill="#3f3d56"/>
    <rect id="Rectangle_1718" data-name="Rectangle 1718" width="17.578" height="26.566" transform="translate(128.503 133.874) rotate(3.89)" fill="#fff"/>
    <rect id="Rectangle_1719" data-name="Rectangle 1719" width="14.361" height="4.002" transform="translate(130.13 140.394) rotate(4.004)" opacity="0.1"/>
    <rect id="Rectangle_1720" data-name="Rectangle 1720" width="2.279" height="2.086" transform="translate(141.607 158.249) rotate(3.89)" opacity="0.1"/>
    <rect id="Rectangle_1721" data-name="Rectangle 1721" width="11.664" height="2.086" transform="translate(130.068 152.194) rotate(3.89)" opacity="0.1"/>
    <rect id="Rectangle_1722" data-name="Rectangle 1722" width="12.145" height="3.206" transform="translate(131.735 132.206) rotate(3.89)" fill="#3f3d56"/>
    <rect id="Rectangle_1723" data-name="Rectangle 1723" width="12.145" height="3.206" transform="translate(131.735 132.206) rotate(3.89)" opacity="0.1"/>
    <path id="Path_1833" data-name="Path 1833" d="M476.35,572.56s-.107,15.688-4.24,24.7c0,0,4.984-11.871,4.984-12.347s2.754-5.459,2.016-6.942S476.35,572.56,476.35,572.56Z" transform="translate(-341.495 -399.826)" opacity="0.1"/>
    <path id="Path_1834" data-name="Path 1834" d="M462.413,298.124a5.9,5.9,0,0,1,.959-3.949,4.866,4.866,0,0,0,3.762,5.128.637.637,0,0,1-.181-.7,21.325,21.325,0,0,0,1.711,2.048,2.274,2.274,0,0,0,2.457.521c1.069-.576,1.08-2.094.8-3.275a15.383,15.383,0,0,0-3.54-6.761,4.684,4.684,0,0,0-3.716-1.89,9.142,9.142,0,0,0-4.8.752,12.769,12.769,0,0,0-2.3,1.61l-4.033,3.29a3.829,3.829,0,0,0-.979,1.031,2.822,2.822,0,0,0-.305,1.08,5.822,5.822,0,0,0,2.714,5.493,4.3,4.3,0,0,1,2.572-4.033,1.118,1.118,0,0,1,.4.833l.85-1.515a1.667,1.667,0,0,1,.576-.683,1.5,1.5,0,0,1,1.625.458,2.9,2.9,0,0,0,1.481.977l.023-2.256" transform="translate(-327.327 -205.131)" opacity="0.1"/>
    <path id="Path_1835" data-name="Path 1835" d="M462.442,297.023a5.9,5.9,0,0,1,.959-3.952,4.868,4.868,0,0,0,3.765,5.128.631.631,0,0,1-.181-.694,21.672,21.672,0,0,0,1.711,2.048,2.263,2.263,0,0,0,2.457.519c1.069-.576,1.08-2.094.8-3.273a15.384,15.384,0,0,0-3.54-6.761,5.667,5.667,0,0,0-1.979-1.538,5.76,5.76,0,0,0-1.728-.351,9.139,9.139,0,0,0-4.8.749,12.921,12.921,0,0,0-2.3,1.613l-4.033,3.29a3.787,3.787,0,0,0-.979,1.031,2.808,2.808,0,0,0-.305,1.08A5.819,5.819,0,0,0,455,301.4a4.3,4.3,0,0,1,2.572-4.033,1.127,1.127,0,0,1,.4.833l.847-1.51a1.651,1.651,0,0,1,.576-.683,1.5,1.5,0,0,1,1.625.458,2.919,2.919,0,0,0,1.481.977l.023-2.258" transform="translate(-327.356 -204.372)" fill="#3f3d56"/>
    <path id="Path_1836" data-name="Path 1836" d="M438.3,464.2c-.74-.374-12.983,1.535-12.983,1.535a70.069,70.069,0,0,0-6.891-1.377,6.18,6.18,0,0,1-5.185-5.565l-.533-9.538,1.645-1.44,7.046,4.609a22.756,22.756,0,0,1,0,2.751,3.878,3.878,0,0,0-.236.864.288.288,0,0,0,.236.259c.478.121,6.994,1.175,6.994,1.175s15.1-1.034,18.868,4.053a3.826,3.826,0,0,1,.665,1.256C448.862,466.255,438.973,464.527,438.3,464.2Z" transform="translate(-299.15 -314.271)" fill="#fbbebe"/>
    <path id="Path_1837" data-name="Path 1837" d="M468.28,483.174c-.576.256-.933.441-.933.441s-5.4-.158-8.44-1.259a19.824,19.824,0,0,0-6.726-.9s-12.652-2.178-10.69-5.021a.288.288,0,0,0,.236.259c.478.121,6.994,1.175,6.994,1.175s15.1-1.034,18.868,4.053A3.823,3.823,0,0,1,468.28,483.174Z" transform="translate(-319.539 -334.456)" opacity="0.1"/>
    <path id="Path_1838" data-name="Path 1838" d="M473.557,441.58s.743,5.246.8,5.672.32,5.563,0,6.147-.8,1.535-.8,1.535.53,1.112-1.59,1.538a21.762,21.762,0,0,0-4.609,1.694s-5.407-.158-8.426-1.27a19.446,19.446,0,0,0-6.729-.9s-16.06-2.757-9.169-6.121a10.6,10.6,0,0,1,11.765,1.193l7.683-.475s2.863-1.751,3.658-1.59a2.941,2.941,0,0,0,1.642-.265l.055-5.565Z" transform="translate(-319.586 -310.035)" fill="#fbbebe"/>
    <path id="Path_1839" data-name="Path 1839" d="M402.679,396.681l-1.538-.081-4.661,18.148s5.033-1.273,7.2,0,6.147,1.535,6.147,1.535l-1.484-14.467Z" transform="translate(-287.481 -278.925)" opacity="0.1"/>
    <path id="Path_1840" data-name="Path 1840" d="M402.679,395.571l-1.538-.081-4.661,18.148s5.033-1.273,7.2,0,6.147,1.535,6.147,1.535l-1.484-14.467Z" transform="translate(-287.481 -278.16)" fill="#28a745"/>
    <path id="Path_1841" data-name="Path 1841" d="M531.971,409.57l2.117.478s5.407,7.778,5.831,8.213-2.016,2.016-3.022,2.016-5.934.576-7.366,1.907-.835-5.367-.835-5.519,1.777-4.379,1.777-4.379Z" transform="translate(-381.85 -288.123)" opacity="0.1"/>
    <path id="Path_1842" data-name="Path 1842" d="M531.971,408.47l2.117.475s5.407,7.792,5.831,8.216-2.016,2.016-3.022,2.016-5.934.576-7.366,1.907-.835-5.367-.835-5.519,1.789-4.393,1.789-4.393Z" transform="translate(-381.85 -287.365)" fill="#28a745"/>
    <g id="Group_2811" data-name="Group 2811" transform="translate(124.902 88.286)" opacity="0.1">
      <path id="Path_1843" data-name="Path 1843" d="M463.385,303.793a4.243,4.243,0,0,1,.014-.663,5.9,5.9,0,0,0-.887,2.175v.8c0,.467,0,.936-.014,1.4h-.04v.216a1.151,1.151,0,0,0-.014-.222,3.063,3.063,0,0,1-1.417-.962c-.429-.386-1.1-.755-1.625-.458a1.65,1.65,0,0,0-.576.683l-.856,1.509a1.115,1.115,0,0,0-.4-.83A4.3,4.3,0,0,0,455,311.481a5.854,5.854,0,0,1-2.734-4.589A5.825,5.825,0,0,0,455,312.115a4.3,4.3,0,0,1,2.572-4.033,1.126,1.126,0,0,1,.4.832l.847-1.509a1.651,1.651,0,0,1,.576-.683,1.5,1.5,0,0,1,1.625.458,2.918,2.918,0,0,0,1.481.977q0-1.106.023-2.207A5.868,5.868,0,0,1,463.385,303.793Z" transform="translate(-452.256 -303.13)"/>
      <path id="Path_1844" data-name="Path 1844" d="M487.494,312.111c.014-.2.037-.392.066-.576l.032-.8a5.835,5.835,0,0,0-.1,1.371Z" transform="translate(-477.339 -308.548)"/>
      <path id="Path_1845" data-name="Path 1845" d="M507.455,321.087a2.268,2.268,0,0,1-2.457-.518,21.352,21.352,0,0,1-1.711-2.048.637.637,0,0,0,.182.7.681.681,0,0,1-.167-.043,19.036,19.036,0,0,0,1.7,2.017,2.287,2.287,0,0,0,2.457.518,2.354,2.354,0,0,0,.942-2.365A2,2,0,0,1,507.455,321.087Z" transform="translate(-488.559 -314.087)"/>
      <path id="Path_1846" data-name="Path 1846" d="M494.472,310.191a4.9,4.9,0,0,1-3.589-4.281,4.865,4.865,0,0,0,3.774,4.963A.634.634,0,0,1,494.472,310.191Z" transform="translate(-479.748 -305.109)"/>
    </g>
    <path id="Path_1847" data-name="Path 1847" d="M831.89,327.545s-1.135-.158-1.135-1.809a25.954,25.954,0,0,0-.812-4.742h0s-.7-5.378-1.674-6.231-2.218-5.859-2.218-5.859a11.818,11.818,0,0,0-.648-3.3,28.039,28.039,0,0,1-1.89-4.059c-.867-2.042-4.474-3.442-4.474-3.442s-6.536-3.791-8.389-5.027h0a2.86,2.86,0,0,1-.472-.357c-.323-.421-1.728-.429-1.728-.429a28.465,28.465,0,0,1-.334-2.961v-.311a9.967,9.967,0,0,0,4.381-5.421c.035-.109.063-.222.1-.334a.937.937,0,0,0,.576-.507,10.142,10.142,0,0,1,.377-1.152,4.268,4.268,0,0,1,1.066-.933,4.039,4.039,0,0,0,1.109-3.281c-.029-.968-.184-1.942-.124-2.9a1.138,1.138,0,0,1,.017-.242c.017-.141.037-.288.063-.426.141-.714.449-1.389.622-2.1a2.7,2.7,0,0,0-.213-2.117c-.59-.9-1.821-1.075-2.9-1.152-1.224-.1-2.3.029-3.1-.988a10.857,10.857,0,0,0-1.233-1.486c-.161-.15-1.728-1.109-1.728-1.17a7,7,0,0,0-4.9-.377c-.815.236-1.579.622-2.405.815-1.775.421-3.82-.035-5.329.982a6.288,6.288,0,0,0-1.818,2.385q-.576,1.1-1.17,2.2a14.18,14.18,0,0,0-1.553,3.771,6.411,6.411,0,0,0-.107.884h0v.458a1.576,1.576,0,0,0,.017.288,1.668,1.668,0,0,0,.02.179c.02.061.026.2.043.288s.052.256.086.38a.586.586,0,0,0,.052.161c.017.055.063.193.1.288s.04.1.063.15a2.711,2.711,0,0,0,.147.288c.023.037.04.075.063.112a3.269,3.269,0,0,0,.265.386c.614.769,1.524,1.259,2.2,1.979v.323a9.86,9.86,0,0,0,4.517,8.037c0,.109.014.222.02.334a16.463,16.463,0,0,1-.032,2.564,1.216,1.216,0,0,0-.956-.426,1.365,1.365,0,0,0-.369.032l-.026-.02h0v.026c-.634.156-1.414.815-2.16,2.691,0,0-2.27,2.558-4,2.451s-6.1,2.665-6.1,2.665-4.269,2.768-5.185,5.591a39.074,39.074,0,0,1-1.841,4.69l-5.292,10.866h0l-.971,8.642a39.969,39.969,0,0,1,.432,4.422c-.107.588,2.215,5.859,2.215,5.859s7.671,13.476,10.805,14.167l.225-.156a1.96,1.96,0,0,0,.424.156l.645-.452a6.734,6.734,0,0,1-.052,1.518c-.429,1.334.164,10.016.919,11.719s.487,24.028.487,24.028l-.107,1.967a.832.832,0,0,0,.026.173l-.026.467.078.04a5.568,5.568,0,0,1-.078,1.878,20.816,20.816,0,0,0-.38,3.3s-2.161,13.793-1.135,16.564,1.893,5.807,1.893,5.807,1.08,3.457.052,4.033-3.941,1.6-3.347,3.036c.547,1.331,2.624,4.9,2.933,5.419l-.026.288-.423,4.589a5.766,5.766,0,0,0,.487,1.751,3.012,3.012,0,0,0,3.079,1.924c.288-.02.619-.052.945-.1a40.932,40.932,0,0,0,7-1.823,2.756,2.756,0,0,1-.544-.452h0a1.582,1.582,0,0,1-.481-1.152c.046-.838-1.518-4.816-1.91-5.8l-.089-.219s3.566-3.73,2.973-7.032c0,0-3.947-2.3-2.647-3.572a40.483,40.483,0,0,0,3.621-4.9s.107-13.582,0-15.607a16.833,16.833,0,0,1,.2-4.217c.043-.207.1-.412.15-.616a36.8,36.8,0,0,0,5.433.412q1,0,2.016-.04,0,.288.026.622c.15,3.365.429,9.267.657,11.459.323,3.14,2.106,11.612,2.106,11.612s-3.4,2.181.593,7.565a7.3,7.3,0,0,1-.265,2.233h0a24.4,24.4,0,0,0-.683,2.814,4.946,4.946,0,0,0,.035,2.57c.648,1.273,4.537,1.17,4.537,1.17h0a.614.614,0,0,1,.1-.014,5.551,5.551,0,0,1,4.116,1.239c1.478,1.187,7.084.668,10.123.288,1.19-.153,1.985-.288,1.985-.288a1.166,1.166,0,0,0,.04-.415h0c-.032-.746-.616-2.382-4.58-3.843,0,0-3.728-2.506-3.676-4.69h-.513c.271-.009.461-.009.461-.009s-1.46-5.326-.864-5.761-1.19-6.337-1.19-6.337-1.023-9.91-1.08-10.6a6.1,6.1,0,0,1,.271-1.757l-.271-5.436s-.052-1.806,0-2.394a11.271,11.271,0,0,0-.121-1.524c-.026-.2-.052-.412-.081-.619,1.4-.354,2.3-.68,2.3-.68l-.161-18.912c1.187-2.3,1.406-7.363,1.4-10.947,0-2.3-.1-4.01-.1-4.01l1.622-2.647s.375-3.169-.219-3.863a.665.665,0,0,1,.072-.907,3.011,3.011,0,0,1,.36-.253.466.466,0,0,1-.037-.063,2.862,2.862,0,0,1,.36-.256s-.576-.893-.06-1.27c.484.328.916.591,1.244.778-.023.21-.046.331-.046.331l.138-.288.51.288s2.541-5.061,2.486-5.8,1.728-3.889,1.728-3.889a3.9,3.9,0,0,1,1.19-2.345c.974-.691.755-5.7.755-5.7a12.248,12.248,0,0,1,.919-3.673C833.117,328.991,831.89,327.545,831.89,327.545Zm-48.614-2.221.049,1.207c-.288-.464-.5-.8-.5-.8Z" transform="translate(-555.053 -174.968)" fill="url(#linear-gradient-2)"/>
    <path id="Path_1848" data-name="Path 1848" d="M945.006,540.912l-.622,2.65s-4.983-2.549-5.879-5.776,1.5-4.456,1.5-4.456l4.647,1.965Z" transform="translate(-674.555 -373.568)" fill="#fff"/>
    <path id="Path_1849" data-name="Path 1849" d="M945.006,540.912l-.622,2.65s-4.983-2.549-5.879-5.776,1.5-4.456,1.5-4.456l4.647,1.965Z" transform="translate(-674.555 -373.568)" opacity="0.1"/>
    <path id="Path_1850" data-name="Path 1850" d="M836.608,846.86a35.808,35.808,0,0,1-7.778,1.907,2.959,2.959,0,0,1-3.022-1.913,5.845,5.845,0,0,1-.478-1.728l.418-4.566.219-2.428,6.732-1.751.953,2.918.089.219c.38.977,1.918,4.935,1.872,5.761a1.582,1.582,0,0,0,.47,1.152A2.672,2.672,0,0,0,836.608,846.86Z" transform="translate(-593.872 -582.354)" fill="#fff"/>
    <path id="Path_1851" data-name="Path 1851" d="M922.614,843.755a1.151,1.151,0,0,1-.04.415s-9.858,1.642-11.874,0a5.337,5.337,0,0,0-4.136-1.219s-3.814.1-4.451-1.152a4.991,4.991,0,0,1-.032-2.555,24.477,24.477,0,0,1,.668-2.8l.153-.121.907-.729,10.624-.314h.081c-.052,2.172,3.6,4.664,3.6,4.664C922.009,841.384,922.582,843.012,922.614,843.755Z" transform="translate(-648.671 -581.571)" fill="#fff"/>
    <path id="Path_1852" data-name="Path 1852" d="M922.613,853.544a1.188,1.188,0,0,1-.043.415s-9.858,1.642-11.871,0a5.338,5.338,0,0,0-4.14-1.219s-3.817.1-4.453-1.152a5.031,5.031,0,0,1-.032-2.558c1.469.147,3.788.513,4.7,1.389a10.482,10.482,0,0,0,5.139,2.757C913.04,853.244,919.755,853.458,922.613,853.544Z" transform="translate(-648.666 -591.36)" opacity="0.1"/>
    <path id="Path_1853" data-name="Path 1853" d="M837.79,871.671a35.8,35.8,0,0,1-7.778,1.907,2.959,2.959,0,0,1-3.022-1.913c1.175.395,2.8.807,3.659.429,1.014-.452,4.609-.74,6.625-.864A2.614,2.614,0,0,0,837.79,871.671Z" transform="translate(-595.055 -607.165)" opacity="0.1"/>
    <path id="Path_1854" data-name="Path 1854" d="M869.28,356.147c-3.8-1.478-8.694-6.361-7.472-8.642a5.165,5.165,0,0,0,.475-1.832,16.712,16.712,0,0,0,.035-2.593,35.593,35.593,0,0,0-.51-4.22s11.871.268,11.18,2.016a6.489,6.489,0,0,0-.179,2.4c.058.994.2,2.126.349,3.079.2,1.3.415,2.3.415,2.3s-.729,1.017-1.152,1.072S874.737,358.264,869.28,356.147Z" transform="translate(-619.803 -239.224)" fill="#cf6f80"/>
    <path id="Path_1855" data-name="Path 1855" d="M834.734,839.467l-.089.1c-3.549-4.292-7.841,1.06-7.841,1.06l-.063-.115.219-2.428,6.732-1.752.953,2.918Z" transform="translate(-594.859 -582.319)" opacity="0.1"/>
    <path id="Path_1856" data-name="Path 1856" d="M916.551,835.554s-2.593-.052-3.975,1.169-8.066.262-7.778,0a1,1,0,0,0,.15-.441l.907-.729,10.624-.314C916.519,835.442,916.551,835.554,916.551,835.554Z" transform="translate(-650.646 -581.543)" opacity="0.1"/>
    <path id="Path_1857" data-name="Path 1857" d="M831.9,705.259a8.077,8.077,0,0,0-.438,1.478,16.913,16.913,0,0,0-.2,4.194c.107,2.016,0,15.53,0,15.53a41.123,41.123,0,0,1-3.552,4.874c-1.273,1.27,2.593,3.552,2.593,3.552.576,3.287-2.915,7-2.915,7-3.549-4.292-7.841,1.057-7.841,1.057s-2.333-4.033-2.915-5.473,2.279-2.434,3.284-3.022-.052-4.033-.052-4.033-.847-3.022-1.855-5.779,1.112-16.477,1.112-16.477a21.29,21.29,0,0,1,.372-3.29,5.575,5.575,0,0,0,.078-1.867c-.017-.21-.037-.383-.052-.5s-.026-.173-.026-.173l.04-.069,1.44-2.685S832.588,703.568,831.9,705.259Z" transform="translate(-587.626 -484.955)" fill="#28a745"/>
    <path id="Path_1858" data-name="Path 1858" d="M908.856,745.647s-2.593-.055-3.975,1.152-8.066.265-7.778,0,.262-2.224.262-2.224c-3.921-5.355-.576-7.527-.576-7.527s-1.748-8.426-2.065-11.552c-.222-2.181-.5-8.066-.642-11.4-.063-1.44-.1-2.434-.1-2.434l3.174-.631.412-.081,7.726-1.553s.213,1.44.357,2.619a11.5,11.5,0,0,1,.118,1.518c-.049.576,0,2.382,0,2.382l.265,5.4a6.235,6.235,0,0,0-.265,1.749c.055.691,1.06,10.546,1.06,10.546s1.749,5.882,1.152,6.306S908.856,745.647,908.856,745.647Z" transform="translate(-642.945 -491.953)" fill="#28a745"/>
    <path id="Path_1859" data-name="Path 1859" d="M873.46,340.907a6.484,6.484,0,0,0-.179,2.4,9.866,9.866,0,0,1-10.491-.2,35.6,35.6,0,0,0-.51-4.22S874.151,339.158,873.46,340.907Z" transform="translate(-620.271 -239.603)" opacity="0.1"/>
    <path id="Path_1860" data-name="Path 1860" d="M868.29,299.448a9.856,9.856,0,0,1-19.71.236v-.236a9.858,9.858,0,0,1,19.715,0Z" transform="translate(-610.539 -205.22)" fill="#cf6f80"/>
    <path id="Path_1861" data-name="Path 1861" d="M869.28,372.984c-3.8-1.478-8.694-6.361-7.472-8.642a5.165,5.165,0,0,0,.475-1.832l5.205,4.281,3.221,2.642,2.449-6.231c.2,1.3.415,2.3.415,2.3s-.729,1.017-1.152,1.072S874.737,375.1,869.28,372.984Z" transform="translate(-619.803 -255.744)" opacity="0.1"/>
    <path id="Path_1862" data-name="Path 1862" d="M857.959,372.238l-4.347,73.025-5.669.372L833.26,403.292l2.408-50.271.51-10.621,6.527,5.361,3.221,2.642,2.521-6.415,4.687,4.085Z" transform="translate(-595.074 -231.251)" fill="#28a745"/>
    <path id="Path_1863" data-name="Path 1863" d="M839.143,705.316a8.079,8.079,0,0,0-.438,1.478,41.769,41.769,0,0,1-11.9-3.713l-.078-.04.026-.464v-.242l1.44-2.685S839.834,703.625,839.143,705.316Z" transform="translate(-594.88 -488.465)" opacity="0.1"/>
    <path id="Path_1864" data-name="Path 1864" d="M897.207,717.784a29.14,29.14,0,0,1-3.186.366c-.063-1.44-.1-2.434-.1-2.434l3.192-.645Z" transform="translate(-642.824 -502.006)" opacity="0.1"/>
    <path id="Path_1865" data-name="Path 1865" d="M914.553,712.018a22.367,22.367,0,0,1-8.043.758l-.04-1.824L914.2,709.4S914.4,710.829,914.553,712.018Z" transform="translate(-651.822 -498.144)" opacity="0.1"/>
    <path id="Path_1866" data-name="Path 1866" d="M814.1,464.992c-11.811,2.016-22.628-3.765-22.628-3.765l.1-1.959s.268-22.207-.475-23.91-1.322-10.324-.9-11.641-1.535-21.193-1.535-21.193l-.317-8.066-11.606-4.716,5.185-10.811a39.069,39.069,0,0,0,1.8-4.667c.9-2.809,5.087-5.565,5.087-5.565s4.292-2.754,5.989-2.65,3.921-2.437,3.921-2.437c1.642-4.186,3.128-2.3,3.128-2.3a3.7,3.7,0,0,1-.081.619c-.576,4.595,9.316,19.113,9.457,19.373h0l.953,22.947.954,29.04Z" transform="translate(-559.324 -249.649)" opacity="0.1"/>
    <path id="Path_1867" data-name="Path 1867" d="M812.978,464.992c-11.811,2.016-22.63-3.765-22.63-3.765l.107-1.959s.265-22.207-.478-23.91-1.322-10.333-.9-11.661-1.544-21.184-1.544-21.184l-.32-8.066-11.6-4.716,5.185-10.811a39.675,39.675,0,0,0,1.8-4.664c.9-2.8,5.1-5.56,5.1-5.56s4.292-2.754,5.986-2.65,3.929-2.434,3.929-2.434c1.645-4.186,3.457-2.3,3.457-2.3,0,.2-.173.288-.081.619,1.267,4.456,9,19.113,9.14,19.373h0l.954,22.947.933,29.054Z" transform="translate(-558.517 -249.649)" fill="#fff"/>
    <path id="Path_1868" data-name="Path 1868" d="M867.39,383.574c-1.27-.53-8-8.213-8-8.213v-1.749c-.245-.576-1.7-.225-2.881.179l.507-10.621.576.478C858.852,368.1,867.252,383.317,867.39,383.574Z" transform="translate(-616.147 -255.875)" opacity="0.1"/>
    <path id="Path_1869" data-name="Path 1869" d="M868.493,381.4c-1.273-.533-8-8.213-8-8.213v-1.751c-.245-.576-1.7-.225-2.881.179l.5-10.61.576.475C859.955,365.923,868.352,381.136,868.493,381.4Z" transform="translate(-616.932 -254.381)" fill="#fff"/>
    <path id="Path_1870" data-name="Path 1870" d="M826.278,562.707c.158,0,8.213-.847,8.213-.847s4.877,9.593,4.557,11.923-.9,4.4-2.861,4.033-10.558.288-10.558.288Z" transform="translate(-594.1 -392.931)" opacity="0.1"/>
    <path id="Path_1871" data-name="Path 1871" d="M825.168,560.5c.161,0,8.216-.847,8.216-.847s4.874,9.607,4.557,11.912-.9,4.4-2.861,4.033-10.56.288-10.56.288Z" transform="translate(-593.307 -391.409)" fill="#fff"/>
    <path id="Path_1872" data-name="Path 1872" d="M836.955,547s7.392,3.975,7.55,5.185-3.762-.53-4.609-.743a11.006,11.006,0,0,0-1.7-.265l-5.649.153Z" transform="translate(-599.035 -383.22)" fill="#cf6f80"/>
    <circle id="Ellipse_364" data-name="Ellipse 364" cx="0.778" cy="0.778" r="0.778" transform="translate(248.391 127.47)" opacity="0.1"/>
    <circle id="Ellipse_365" data-name="Ellipse 365" cx="0.778" cy="0.778" r="0.778" transform="translate(248.391 127.129)" fill="#3f3d56"/>
    <circle id="Ellipse_366" data-name="Ellipse 366" cx="0.778" cy="0.778" r="0.778" transform="translate(249.811 163.652)" opacity="0.1"/>
    <circle id="Ellipse_367" data-name="Ellipse 367" cx="0.778" cy="0.778" r="0.778" transform="translate(249.811 163.309)" fill="#3f3d56"/>
    <circle id="Ellipse_368" data-name="Ellipse 368" cx="0.778" cy="0.778" r="0.778" transform="translate(249.162 145.561)" opacity="0.1"/>
    <circle id="Ellipse_369" data-name="Ellipse 369" cx="0.778" cy="0.778" r="0.778" transform="translate(249.162 145.221)" fill="#3f3d56"/>
    <path id="Path_1873" data-name="Path 1873" d="M916.168,421.295s.53.8,0,1.152.052,1.273.052,1.273-1.322.772-.74,1.472.213,3.843.213,3.843l-1.59,2.647s.1,1.7.1,3.99c0,3.578-.21,8.607-1.374,10.9l.156,18.814s-5.568,2.037-10.229,1.414l-.691-30.19s1.008-17.12,1.38-20.4a34.2,34.2,0,0,0,.265-5.142,57.371,57.371,0,0,0-.691-7.521s-.576-10.336-.634-13.2c-.026-1.368.046-5.361.127-9.158.089-4.151.19-8.066.19-8.066L901.65,364.8s1.051-.1,1.368.317a3.025,3.025,0,0,0,.461.354h0c1.818,1.227,8.23,5,8.23,5s3.549,1.412,4.4,3.434a29.9,29.9,0,0,0,1.852,4.033,12.451,12.451,0,0,1,.637,3.284s1.221,4.984,2.175,5.828,1.639,6.2,1.639,6.2l-8.426,6.626s-.74,11.021-.9,11.448S916.168,421.295,916.168,421.295Z" transform="translate(-648.467 -252.494)" fill="#fff"/>
    <path id="Path_1874" data-name="Path 1874" d="M916.467,421.045s.527.8,0,1.152.049,1.273.049,1.273-1.322.772-.74,1.472.213,3.843.213,3.843l-1.584,2.647s.1,1.7.1,3.99c0,3.578-.21,8.607-1.374,10.9l.158,18.814s-5.568,2.037-10.229,1.414l-.688-30.189s1.005-17.12,1.38-20.4a33.894,33.894,0,0,0,.262-5.142,57.762,57.762,0,0,0-.688-7.521s-.576-10.336-.637-13.2c-.026-1.368.046-5.361.127-9.158.089-4.151.19-8.066.19-8.066l-1.389-8.435s1.389,0,1.708.429a2.731,2.731,0,0,0,.461.354h0c1.815,1.227,8.227,5,8.227,5s3.541,1.412,4.4,3.434a31.932,31.932,0,0,0,1.852,4.033,12.451,12.451,0,0,1,.637,3.284s1.221,4.984,2.175,5.828,1.642,6.2,1.642,6.2L914.3,399.63s-.74,11.021-.9,11.448S916.467,421.045,916.467,421.045Z" transform="translate(-648.448 -252.248)" fill="#fff"/>
    <path id="Path_1875" data-name="Path 1875" d="M907.152,376.887l.763,2.218-4.007,4.033c.089-4.151.19-8.066.19-8.066l-1.388-8.432s1.388,0,1.708.429a2.734,2.734,0,0,0,.461.354h0l3.4,9.82Z" transform="translate(-649.119 -258.401)" opacity="0.1"/>
    <path id="Path_1876" data-name="Path 1876" d="M906.022,374.662l.763,2.215-4,4.033c.086-4.151.19-8.066.19-8.066l-1.391-8.435s1.391,0,1.708.429a2.879,2.879,0,0,0,.461.354h0l3.425,9.829Z" transform="translate(-648.311 -256.865)" fill="#fff"/>
    <path id="Path_1877" data-name="Path 1877" d="M868.29,299.448a9.827,9.827,0,0,1-.484,3.056.41.41,0,0,1-.311-.075,12.745,12.745,0,0,0-2.921-7.1,7.522,7.522,0,0,0-1.584-1.642,3.1,3.1,0,0,0-2.149-.608c-.864.118-1.628.706-2.5.781-1.152.1-2.184-.7-3.327-.74a3.261,3.261,0,0,0-2.446,1.135,6.671,6.671,0,0,0-1.311,2.428,14.222,14.222,0,0,0-.732,4.194c-.014.807-.092,1.818-.841,2.112A4.292,4.292,0,0,0,848.6,299.7l-.017-.02v-.236a9.858,9.858,0,0,1,19.715,0Z" transform="translate(-610.539 -205.392)" opacity="0.1"/>
    <path id="Path_1878" data-name="Path 1878" d="M855.116,267.885a6.787,6.787,0,0,0-4.788-.374c-.8.236-1.55.619-2.359.812-1.728.418-3.745-.035-5.228.977a6.241,6.241,0,0,0-1.78,2.374l-1.152,2.192a14.251,14.251,0,0,0-1.524,3.745,4.79,4.79,0,0,0,.735,3.869c.608.772,1.512,1.259,2.175,1.988a4.321,4.321,0,0,1,1.083,3.293c.749-.288.824-1.3.841-2.112a14.241,14.241,0,0,1,.732-4.194,6.67,6.67,0,0,1,1.311-2.428,3.264,3.264,0,0,1,2.446-1.138c1.152.04,2.186.838,3.327.74.864-.072,1.63-.66,2.5-.778a3.088,3.088,0,0,1,2.149.608,7.379,7.379,0,0,1,1.581,1.642,12.691,12.691,0,0,1,2.924,7.1c.326.236.8-.075.956-.444a10.546,10.546,0,0,1,.372-1.152,4.262,4.262,0,0,1,1.043-.93,4.078,4.078,0,0,0,1.089-3.264,16.262,16.262,0,0,1-.04-3.549c.135-.712.441-1.383.608-2.088a2.731,2.731,0,0,0-.207-2.106c-.576-.89-1.789-1.069-2.846-1.152-1.2-.1-2.276.029-3.042-.982a11.265,11.265,0,0,0-1.21-1.481C856.651,268.9,855.116,267.948,855.116,267.885Z" transform="translate(-603.144 -189.834)" fill="#512e4e"/>
    <path id="Path_1879" data-name="Path 1879" d="M778.491,466.613l-3.007-5.563-.954,8.584a39.792,39.792,0,0,1,.423,4.4c-.107.585,2.172,5.828,2.172,5.828s7.527,13.409,10.6,14.1l10.37-7.421-2.754-3.5s-.953-.372-1.193,0c0,0-5.116-8.8-5.643-9.431a3.206,3.206,0,0,1-.426-1.91s-.8-.847-.53-1.642-1.521-3.549-1.521-3.549l1.642-1.535Z" transform="translate(-557.653 -322.684)" opacity="0.1"/>
    <path id="Path_1880" data-name="Path 1880" d="M774.069,458.84l-.8.637-.953,8.584a39.807,39.807,0,0,1,.423,4.4c-.107.585,2.175,5.828,2.175,5.828s7.524,13.41,10.6,14.1l10.388-7.421-2.757-3.5s-.954-.372-1.193,0c0,0-5.113-8.8-5.643-9.431a3.173,3.173,0,0,1-.424-1.91s-.8-.847-.53-1.642-1.538-3.549-1.538-3.549l1.642-1.535Z" transform="translate(-556.074 -321.133)" fill="#fff"/>
    <path id="Path_1881" data-name="Path 1881" d="M934.8,562.948c.576.7.213,3.846.213,3.846l-1.59,2.63s.1,1.7.1,3.993l-2.673.835a1.59,1.59,0,0,1-2.063-1.567l.464-14.864,6.237,2.382c-.53.369.052,1.273.052,1.273S934.218,562.248,934.8,562.948Z" transform="translate(-667.757 -390.133)" opacity="0.1"/>
    <path id="Path_1882" data-name="Path 1882" d="M935.914,561.84c.576.7.213,3.843.213,3.843l-1.584,2.633s.1,1.7.1,3.99l-2.722.85a1.553,1.553,0,0,1-2.016-1.53l.464-14.916,6.234,2.388c-.533.369.049,1.273.049,1.273S935.332,561.14,935.914,561.84Z" transform="translate(-668.557 -389.368)" fill="#fff"/>
    <path id="Path_1883" data-name="Path 1883" d="M945.607,544.167s-.423,2.7-1.484,2.863-1.535,4.376-2.593,4.229-.357-3.924-.32-4.655-1.152-3.762-.265-4.451,3.71,0,3.71,0Z" transform="translate(-676.196 -379.483)" fill="#cf6f80"/>
    <path id="Path_1884" data-name="Path 1884" d="M945.106,467.633l2-4.033a26.1,26.1,0,0,1,.8,4.716c0,1.642,1.112,1.8,1.112,1.8s1.218,1.44.576,2.492a12.06,12.06,0,0,0-.9,3.656s.21,4.981-.743,5.669a3.911,3.911,0,0,0-1.167,2.333s-1.749,3.126-1.694,3.869-2.437,5.776-2.437,5.776,1.219-6.254-5.882-8.956c0,0-.055-2.12.475-2.7s1.357-.864.838-3.791a34.36,34.36,0,0,1-.15-7.161,45.026,45.026,0,0,1,1.59-5.1Z" transform="translate(-673.5 -324.567)" opacity="0.1"/>
    <path id="Path_1885" data-name="Path 1885" d="M947.6,461.6l1.746.576a26.1,26.1,0,0,1,.8,4.716c0,1.642,1.112,1.8,1.112,1.8s1.219,1.44.576,2.492a12.092,12.092,0,0,0-.9,3.656s.213,4.981-.74,5.669a3.858,3.858,0,0,0-1.152,2.333s-1.749,3.125-1.694,3.869-2.44,5.776-2.44,5.776,1.219-6.254-5.882-8.956c0,0-.052-2.12.478-2.7s1.357-.864.838-3.791a34.352,34.352,0,0,1-.15-7.161,45.025,45.025,0,0,1,1.59-5.1Z" transform="translate(-675.109 -323.163)" fill="#fff"/>
    <path id="Path_1886" data-name="Path 1886" d="M834.92,822.145s2.783-1.749,4.609-.478S834.92,822.145,834.92,822.145Z" transform="translate(-600.684 -571.55)" opacity="0.1"/>
    <path id="Path_1887" data-name="Path 1887" d="M910,805.661a5.633,5.633,0,0,1,4.531,1.91C916.6,809.8,910,805.661,910,805.661Z" transform="translate(-654.323 -560.474)" opacity="0.1"/>
    <g id="Group_2812" data-name="Group 2812" transform="translate(235.021 84.09)" opacity="0.1">
      <path id="Path_1888" data-name="Path 1888" d="M872.626,305.191a4.336,4.336,0,0,0-1.046.93,10.775,10.775,0,0,0-.369,1.152c-.161.372-.631.68-.959.444a12.734,12.734,0,0,0-2.921-7.1,7.369,7.369,0,0,0-1.581-1.639,3.1,3.1,0,0,0-2.152-.611c-.864.118-1.625.706-2.5.781-1.152.1-2.186-.7-3.33-.74a3.25,3.25,0,0,0-2.443,1.135,6.67,6.67,0,0,0-1.311,2.428,14.241,14.241,0,0,0-.732,4.194c-.017.8-.092,1.806-.836,2.106a3.961,3.961,0,0,1,0,.642c.752-.288.827-1.3.844-2.112a14.243,14.243,0,0,1,.732-4.194,6.671,6.671,0,0,1,1.311-2.428,3.261,3.261,0,0,1,2.443-1.138c1.152.04,2.189.838,3.33.74.864-.072,1.63-.66,2.5-.778a3.1,3.1,0,0,1,2.152.608,7.384,7.384,0,0,1,1.582,1.642,12.708,12.708,0,0,1,2.921,7.1c.328.236.8-.075.959-.444a11.176,11.176,0,0,1,.369-1.152,4.274,4.274,0,0,1,1.046-.93,4.077,4.077,0,0,0,1.089-3.264v-.109A3.788,3.788,0,0,1,872.626,305.191Z" transform="translate(-848.332 -295.734)"/>
      <path id="Path_1889" data-name="Path 1889" d="M841.181,310.647c-.66-.729-1.564-1.218-2.172-1.99a4.181,4.181,0,0,1-.838-2.356,4.439,4.439,0,0,0,.838,2.993c.608.772,1.512,1.259,2.172,1.988a4.322,4.322,0,0,1,1.089,2.57,4.321,4.321,0,0,0-1.089-3.2Z" transform="translate(-838.155 -301.391)"/>
      <path id="Path_1890" data-name="Path 1890" d="M926.491,289.816c-.17.706-.472,1.377-.611,2.088a6.667,6.667,0,0,0-.089,1.458,5.568,5.568,0,0,1,.089-.821c.138-.712.441-1.383.611-2.088a3.614,3.614,0,0,0,.1-1.193A4,4,0,0,1,926.491,289.816Z" transform="translate(-900.54 -289.26)"/>
    </g>
    <ellipse id="Ellipse_370" data-name="Ellipse 370" cx="28.069" cy="4.508" rx="28.069" ry="4.508" transform="translate(10.515 251.076)" fill="#28a745" opacity="0.1"/>
    <rect id="Rectangle_1724" data-name="Rectangle 1724" width="1.806" height="40.666" transform="translate(37.682 164.154)" fill="#535461"/>
    <path id="Path_1891" data-name="Path 1891" d="M130.641,675.91l-.115,1.832-.158,2.593-.066,1.077L130.14,684l-.069,1.077-.158,2.593-1.824,29.4a4.978,4.978,0,0,1-4.969,4.673h-9.469a4.975,4.975,0,0,1-4.969-4.693l-1.823-29.4-.158-2.593-.066-1.077-.164-2.593-.066-1.077-.158-2.593-.115-1.832a2.592,2.592,0,0,1,2.575-2.739h19.364a2.592,2.592,0,0,1,2.572,2.76Z" transform="translate(-79.8 -466.146)" fill="#3f3d56"/>
    <path id="Path_1892" data-name="Path 1892" d="M114.864,670.52l-.161,2.587H90.741l-.161-2.587Z" transform="translate(-64.138 -462.886)" fill="#9d9cb5"/>
    <path id="Path_1893" data-name="Path 1893" d="M115.2,683.24l-.158,2.587H91.531l-.161-2.587Z" transform="translate(-64.7 -471.667)" fill="#9d9cb5"/>
    <path id="Path_1894" data-name="Path 1894" d="M115.534,695.97l-.158,2.584H92.321l-.161-2.584Z" transform="translate(-65.263 -483.136)" fill="#9d9cb5"/>
    <path id="Path_1895" data-name="Path 1895" d="M39.647,575.037c10.52,7.611,14.9,19.514,14.9,19.514s-12.675-.435-23.2-8.046S16.44,567,16.44,567,29.115,567.426,39.647,575.037Z" transform="translate(-15.95 -395.831)" fill="#28a745"/>
    <path id="Path_1896" data-name="Path 1896" d="M16.44,567s13.156,7.3,17.376,13.349,20.721,14.208,20.721,14.208" transform="translate(-15.95 -395.831)" fill="none" stroke="#535461" stroke-miterlimit="10" stroke-width="2"/>
    <path id="Path_1897" data-name="Path 1897" d="M89.326,530.859a25.5,25.5,0,0,1,8.112,10.618A25.485,25.485,0,0,1,84.812,537.1,25.652,25.652,0,0,1,76.7,526.48,25.5,25.5,0,0,1,89.326,530.859Z" transform="translate(-58.851 -368.613)" fill="#28a745"/>
    <path id="Path_1898" data-name="Path 1898" d="M76.7,526.48s7.161,3.975,9.46,7.265,11.278,7.732,11.278,7.732" transform="translate(-58.851 -368.613)" fill="none" stroke="#535461" stroke-miterlimit="10" stroke-width="2"/>
    <path id="Path_1899" data-name="Path 1899" d="M157.878,553.906a35.279,35.279,0,0,0-7.968,16.673,32.064,32.064,0,0,0,23.812-26.18A35.307,35.307,0,0,0,157.878,553.906Z" transform="translate(-110.972 -380.363)" fill="#28a745"/>
    <path id="Path_1900" data-name="Path 1900" d="M173.727,544.41s-8.567,7.409-10.745,12.514-13.072,13.663-13.072,13.663" transform="translate(-110.972 -380.37)" fill="none" stroke="#535461" stroke-miterlimit="10" stroke-width="2"/>
  </g>
</svg>
