<svg xmlns="http://www.w3.org/2000/svg" width="23.64" height="33.919" viewBox="0 0 23.64 33.919">
  <g id="Group_2822" data-name="Group 2822" transform="translate(-471.5 -1151)">
    <path id="Path_1902" data-name="Path 1902" d="M45.939,37.416A3.061,3.061,0,0,0,49,34.354c0-1.69-3.061-6.642-3.061-6.642s-3.061,4.952-3.061,6.642A3.061,3.061,0,0,0,45.939,37.416Z" transform="translate(437.381 1130.578)" fill="#28a745"/>
    <path id="Path_1903" data-name="Path 1903" d="M43.239,10.75H25.4a2.9,2.9,0,0,0-2.9,2.9v23.21a2.9,2.9,0,0,0,2.9,2.9h7.71c0,.031-.009.06-.009.091v3.6a1.218,1.218,0,0,0,2.435,0v-3.6c0-.031-.007-.06-.009-.091h7.71a2.9,2.9,0,0,0,2.9-2.9V13.651A2.9,2.9,0,0,0,43.239,10.75Zm-10.5,26.239a.463.463,0,0,1-.463.463H27.288a.463.463,0,0,1-.463-.463V34.96a.463.463,0,0,1,.463-.463h4.984a.463.463,0,0,1,.463.463Zm9.08,0a.463.463,0,0,1-.463.463H36.368a.463.463,0,0,1-.463-.463V34.96a.463.463,0,0,1,.463-.463h4.984a.463.463,0,0,1,.463.463v2.029ZM42.54,31.3a.94.94,0,0,1-.94.94H27.04a.94.94,0,0,1-.94-.94V14.484a.94.94,0,0,1,.94-.94H41.6a.94.94,0,0,1,.94.94V31.3Z" transform="translate(449 1140.25)" fill="#28a745"/>
  </g>
</svg>
