<svg xmlns="http://www.w3.org/2000/svg" width="21" height="21" viewBox="0 0 21 21">
  <g id="noun_User_1335326" transform="translate(206.947 -167.053)">
    <g id="Group_3" data-name="Group 3" transform="translate(-206.947 167.053)">
      <path id="Path_4" data-name="Path 4" d="M15.553,5.053a10.5,10.5,0,1,0,10.5,10.5A10.512,10.512,0,0,0,15.553,5.053Zm0,19.56a9.06,9.06,0,1,1,9.06-9.06A9.071,9.071,0,0,1,15.553,24.613Z" transform="translate(-5.053 -5.053)" fill="#28a745"/>
      <path id="Path_5" data-name="Path 5" d="M40.153,31.173A3.259,3.259,0,1,0,36.9,27.915,3.262,3.262,0,0,0,40.153,31.173Zm0-5.078a1.819,1.819,0,1,1-1.819,1.82A1.821,1.821,0,0,1,40.153,26.1Z" transform="translate(-29.456 -20.077)" fill="#28a745"/>
      <path id="Path_6" data-name="Path 6" d="M36.465,55.308a4.066,4.066,0,0,0-3.8-2.761.717.717,0,0,0-.475.14,3.224,3.224,0,0,1-3.9,0,.722.722,0,0,0-.475-.14,4.068,4.068,0,0,0-3.8,2.79.72.72,0,1,0,1.345.513,2.6,2.6,0,0,1,2.31-1.845,4.653,4.653,0,0,0,5.149,0,2.593,2.593,0,0,1,2.3,1.823.72.72,0,0,0,1.342-.521Z" transform="translate(-19.55 -41.452)" fill="#28a745"/>
    </g>
  </g>
</svg>
